<?xml version="1.0" standalone="no"?>
<!DOCTYPE svg PUBLIC "-//W3C//DTD SVG 20010904//EN"
 "http://www.w3.org/TR/2001/REC-SVG-20010904/DTD/svg10.dtd">
<svg version="1.0" xmlns="http://www.w3.org/2000/svg"
 width="512.000000pt" height="512.000000pt" viewBox="0 0 512.000000 512.000000"
 preserveAspectRatio="xMidYMid meet">
<metadata>
Created by potrace 1.14, written by Peter Selinger 2001-2017
</metadata>
<g transform="translate(0.000000,512.000000) scale(0.100000,-0.100000)"
fill="#000000" stroke="none">
<path d="M2785 4027 c-340 -149 -407 -261 -422 -695 l-6 -184 -526 7 c-379 5
-549 4 -608 -4 -372 -53 -675 -265 -830 -581 -86 -176 -118 -327 -110 -520 32
-744 788 -1221 1476 -932 116 49 219 120 326 224 l100 98 377 0 377 0 88 -88
c48 -49 116 -108 150 -131 355 -237 794 -251 1155 -35 95 57 236 187 308 284
65 87 143 252 171 360 27 107 37 317 19 428 -50 312 -234 584 -508 750 -80 49
-213 101 -316 124 -87 19 -119 20 -703 19 l-611 -2 -8 68 c-10 94 2 314 19
356 22 50 81 93 196 140 64 26 118 55 141 77 68 63 75 152 18 225 -24 31 -91
65 -128 65 -14 0 -79 -24 -145 -53z m1080 -1338 c86 -24 144 -98 145 -187 0
-57 -20 -101 -63 -139 -128 -112 -317 -28 -317 141 0 86 51 156 131 181 55 17
56 17 104 4z m-2335 -239 l0 -220 220 0 220 0 0 -160 0 -160 -220 0 -220 0 0
-215 0 -215 -160 0 -160 0 0 215 0 215 -215 0 -215 0 0 160 0 160 215 0 215 0
0 213 c0 118 3 217 7 220 3 4 75 7 160 7 l153 0 0 -220z m2756 -159 c79 -36
127 -136 104 -220 -49 -182 -307 -191 -368 -12 -16 46 -15 85 3 129 44 103
159 149 261 103z m-759 -37 c46 -36 83 -105 83 -154 -1 -49 -30 -110 -73 -147
-85 -74 -227 -50 -287 50 -56 92 -21 213 79 267 56 31 148 24 198 -16z m326
-355 c47 -13 106 -63 123 -106 17 -39 18 -111 3 -150 -24 -64 -109 -122 -179
-123 -48 0 -118 37 -154 83 -23 29 -31 50 -34 95 -7 92 41 168 125 197 47 17
67 18 116 4z"/>
</g>
</svg>
