<?xml version="1.0" encoding="utf-8"?>
<!-- Generator: Adobe Illustrator 16.0.0, SVG Export Plug-In . SVG Version: 6.00 Build 0)  -->
<!DOCTYPE svg PUBLIC "-//W3C//DTD SVG 1.1//EN" "http://www.w3.org/Graphics/SVG/1.1/DTD/svg11.dtd">
<svg version="1.1" id="Layer_1" xmlns="http://www.w3.org/2000/svg" xmlns:xlink="http://www.w3.org/1999/xlink" x="0px" y="0px"
	 width="806px" height="598.9px" viewBox="0 0 806 598.9" enable-background="new 0 0 806 598.9" xml:space="preserve">
<pattern  x="97.5" y="695.95" width="40" height="103" patternUnits="userSpaceOnUse" id="SVGID_4_" viewBox="0 -231.8 40 103" overflow="visible">
	<g>
		<polygon fill="none" points="0,-128.8 40,-128.8 40,-231.8 0,-231.8 		"/>
		<g>
			<polygon fill="none" points="0,-231.8 40,-231.8 40,-128.8 0,-128.8 			"/>
			<g>
				<polygon fill="none" points="0,-231.8 40,-231.8 40,-128.8 0,-128.8 				"/>
				<polygon points="34.5,0 37.5,0 37.5,-154.5 34.5,-154.5 				"/>
				<polygon points="26.5,0 29.5,0 29.5,-154.5 26.5,-154.5 				"/>
				<polygon points="18.5,0 21.5,0 21.5,-154.5 18.5,-154.5 				"/>
				<polygon points="10.5,0 13.5,0 13.5,-154.5 10.5,-154.5 				"/>
				<polygon points="2.5,0 5.5,0 5.5,-154.5 2.5,-154.5 				"/>
				<polygon points="34.5,-103 37.5,-103 37.5,-257.5 34.5,-257.5 				"/>
				<polygon points="26.5,-103 29.5,-103 29.5,-257.5 26.5,-257.5 				"/>
				<polygon points="18.5,-103 21.5,-103 21.5,-257.5 18.5,-257.5 				"/>
				<polygon points="10.5,-103 13.5,-103 13.5,-257.5 10.5,-257.5 				"/>
				<polygon points="2.5,-103 5.5,-103 5.5,-257.5 2.5,-257.5 				"/>
				<polygon points="34.5,-206 37.5,-206 37.5,-360.5 34.5,-360.5 				"/>
				<polygon points="26.5,-206 29.5,-206 29.5,-360.5 26.5,-360.5 				"/>
				<polygon points="18.5,-206 21.5,-206 21.5,-360.5 18.5,-360.5 				"/>
				<polygon points="10.5,-206 13.5,-206 13.5,-360.5 10.5,-360.5 				"/>
				<polygon points="2.5,-206 5.5,-206 5.5,-360.5 2.5,-360.5 				"/>
			</g>
		</g>
	</g>
</pattern>
<pattern  x="97.5" y="695.95" width="40" height="103" patternUnits="userSpaceOnUse" id="SVGID_5_" viewBox="0 -231.8 40 103" overflow="visible">
	<g>
		<polygon fill="none" points="0,-128.8 40,-128.8 40,-231.8 0,-231.8 		"/>
		<g>
			<polygon fill="none" points="0,-231.8 40,-231.8 40,-128.8 0,-128.8 			"/>
			<g>
				<polygon fill="none" points="0,-231.8 40,-231.8 40,-128.8 0,-128.8 				"/>
				<polygon points="34.5,0 37.5,0 37.5,-154.5 34.5,-154.5 				"/>
				<polygon points="26.5,0 29.5,0 29.5,-154.5 26.5,-154.5 				"/>
				<polygon points="18.5,0 21.5,0 21.5,-154.5 18.5,-154.5 				"/>
				<polygon points="10.5,0 13.5,0 13.5,-154.5 10.5,-154.5 				"/>
				<polygon points="2.5,0 5.5,0 5.5,-154.5 2.5,-154.5 				"/>
				<polygon points="34.5,-103 37.5,-103 37.5,-257.5 34.5,-257.5 				"/>
				<polygon points="26.5,-103 29.5,-103 29.5,-257.5 26.5,-257.5 				"/>
				<polygon points="18.5,-103 21.5,-103 21.5,-257.5 18.5,-257.5 				"/>
				<polygon points="10.5,-103 13.5,-103 13.5,-257.5 10.5,-257.5 				"/>
				<polygon points="2.5,-103 5.5,-103 5.5,-257.5 2.5,-257.5 				"/>
				<polygon points="34.5,-206 37.5,-206 37.5,-360.5 34.5,-360.5 				"/>
				<polygon points="26.5,-206 29.5,-206 29.5,-360.5 26.5,-360.5 				"/>
				<polygon points="18.5,-206 21.5,-206 21.5,-360.5 18.5,-360.5 				"/>
				<polygon points="10.5,-206 13.5,-206 13.5,-360.5 10.5,-360.5 				"/>
				<polygon points="2.5,-206 5.5,-206 5.5,-360.5 2.5,-360.5 				"/>
			</g>
		</g>
	</g>
</pattern>
<pattern  x="97.5" y="695.95" width="71" height="71" patternUnits="userSpaceOnUse" id="SVGID_6_" viewBox="0 -71 71 71" overflow="visible">
	<g>
		<polygon fill="none" points="0,0 71,0 71,-71 0,-71 		"/>
		<g>
			<polygon fill="none" points="0,-71 71,-71 71,0 0,0 			"/>
			<g>
				<polygon fill="none" points="0,-71 71,-71 71,0 0,0 				"/>
				<path fill="#B3B3B3" d="M41.8-35.5c0,3.5-2.8,6.3-6.3,6.3s-6.3-2.8-6.3-6.3s2.8-6.3,6.3-6.3S41.8-39,41.8-35.5z"/>
			</g>
		</g>
	</g>
</pattern>
<g>
	<g>
		<g>
			<path fill="#0D0E13" d="M801.25,418.567c-2.899-15.5-17.7-102.5-32-144.6c-9.399-27.701-13.1-53-17-64.9
				c-12-35.7-33-65.7-33-65.7s-9.5-13.1-10.1-16.3c-0.601-3.3-4.7-8.6-4.7-8.6s-17.4-5.7-62.3-5.7c-44.9,0-53.7,5-53.7,5
				s-2.4,2.9-5.9,4.8c-3.5,1.8-11.699,1.7-11.699,1.7h-33.4c0,0-0.6-0.1-0.9,0.3c-0.399,0.4-0.6,2-0.6,2h-133h-133.1
				c0,0-0.301-1.7-0.601-2c-0.399-0.4-0.899-0.3-0.899-0.3h-33.4c0,0-8.2,0.2-11.7-1.7c-3.5-1.8-5.899-4.8-5.899-4.8s-8.8-5-53.7-5
				c-44.8,0-62.3,5.7-62.3,5.7s-4.1,5.3-4.7,8.6c-0.6,3.3-10.1,16.3-10.1,16.3s-21,30-33,65.7c-4,11.9-7.7,37.199-17,64.9
				c-14.3,42.1-29.1,129.1-32,144.6c-4.3,23.2-4.6,90.2-4.6,90.2s4.5,53.399,36.2,74.899c31.7,21.5,56.7,14,56.7,14
				s33.1-8.2,57.8-41.899c24.7-33.7,56.6-129.2,56.6-129.2s2.2-3,5.7-5.3c3.5-2.301,6.3-2.601,6.3-2.601l183.7,0.101l183.7-0.101
				c0,0,2.8,0.3,6.3,2.601c3.5,2.3,5.7,5.3,5.7,5.3s31.899,95.399,56.6,129.2c24.7,33.8,57.8,41.899,57.8,41.899s25,7.5,56.7-14
				s36.2-74.899,36.2-74.899S805.65,441.768,801.25,418.567z"/>
			<g opacity="0.06">
				<path fill="#FFFFFF" d="M36.55,275.968c9.4-27.701,13.1-53,17-64.9c12-35.7,33-65.7,33-65.7s9.5-13.1,10.1-16.3
					c0.6-3.3,4.7-8.6,4.7-8.6s17.4-5.7,62.3-5.7c44.8,0,53.7,5,53.7,5s2.399,2.9,5.899,4.8c3.5,1.8,11.7,1.7,11.7,1.7h33.4
					c0,0,0.6-0.1,0.899,0.3c0.4,0.4,0.601,2,0.601,2h133.1h133.1c0,0,0.301-1.7,0.601-2c0.399-0.4,0.899-0.3,0.899-0.3h33.4
					c0,0,8.2,0.2,11.7-1.7c3.5-1.8,5.899-4.8,5.899-4.8s8.801-5,53.7-5c44.9,0,62.3,5.7,62.3,5.7s4.101,5.3,4.7,8.6
					c0.601,3.3,10.101,16.3,10.101,16.3s21,30,33,65.7c4,11.9,7.699,37.199,17,64.9c14.3,42.1,29.1,129.1,32,144.6
					c3.899,20.899,4.6,77.3,4.699,88.3c0-0.1,0-0.1,0-0.1s-0.3-66.9-4.699-90.101c-2.9-15.5-17.7-102.5-32-144.6
					c-9.4-27.7-13.101-53-17-64.9c-12-35.7-33-65.7-33-65.7s-9.5-13.1-10.101-16.3c-0.6-3.3-4.7-8.6-4.7-8.6s-17.399-5.7-62.3-5.7
					c-44.899,0-53.7,5-53.7,5s-2.399,2.9-5.899,4.8c-3.5,1.8-11.7,1.7-11.7,1.7h-33.4c0,0-0.6-0.1-0.899,0.3
					c-0.4,0.4-0.601,2-0.601,2h-133.1h-133.1c0,0-0.301-1.7-0.601-2c-0.399-0.4-0.899-0.3-0.899-0.3h-33.4c0,0-8.2,0.2-11.7-1.7
					c-3.5-1.8-5.899-4.8-5.899-4.8s-8.8-5-53.7-5c-44.8,0-62.3,5.7-62.3,5.7s-4.1,5.3-4.7,8.6c-0.6,3.3-10.1,16.3-10.1,16.3
					s-21,30-33,65.7c-4,11.9-7.7,37.2-17,64.9c-14.3,42.1-29.1,129.1-32,144.6c-4.3,23.101-4.6,90.101-4.6,90.101v0.1
					c0.1-10.9,0.7-67.4,4.7-88.3C7.55,405.167,22.25,318.067,36.55,275.968z"/>
			</g>
			<path fill="#13161F" d="M351.15,359.967c0-42.199-34.3-76.499-76.5-76.499s-76.5,34.3-76.5,76.499c0,0.7,0,1.301,0.1,2
				c0,0.7-0.1,1.301-0.1,2c0,42.2,34.3,76.5,76.5,76.5s76.5-34.3,76.5-76.5c0-0.699,0-1.3-0.101-2
				C351.05,361.268,351.15,360.567,351.15,359.967z"/>
			<circle fill="#0F1015" cx="274.65" cy="355.967" r="73"/>
			<circle cx="274.65" cy="355.967" r="51.5"/>
			<path fill="#13161F" d="M607.75,359.967c0-42.199-34.3-76.499-76.5-76.499s-76.5,34.3-76.5,76.499c0,0.7,0,1.301,0.101,2
				c0,0.7-0.101,1.301-0.101,2c0,42.2,34.3,76.5,76.5,76.5s76.5-34.3,76.5-76.5c0-0.699,0-1.3-0.1-2
				C607.75,361.268,607.75,360.567,607.75,359.967z"/>
			<circle fill="#0F1015" cx="531.25" cy="355.967" r="73"/>
			<circle cx="531.25" cy="355.967" r="51.5"/>
			<path fill="#121212" d="M534.75,127.967c-0.399-3.2-3.3-5.6-6.5-5.6l0,0h-125.3l0,0h-125.3l0,0c-3.2,0-6.101,2.3-6.5,5.6
				c-0.101,0.7-0.101,1.4-0.101,2.1v127.4c0,8.899,7.2,16.1,16.101,16.1h115.8l0,0h115.8c8.9,0,16.101-7.2,16.101-16.1v-127.4
				C534.95,129.367,534.851,128.667,534.75,127.967z"/>
			<circle fill="#080808" cx="652.25" cy="244.767" r="94.3"/>
			<g>
				<circle fill="#080808" cx="153.65" cy="244.767" r="94.3"/>
				<path fill="#1F1F1F" d="M230.351,254.067l9.5-8.9c0.5-0.5,0.5-1.199,0-1.699l-9.5-8.9c-0.7-0.7-1.9-0.2-1.9,0.8v8.899v8.9
					C228.351,254.167,229.55,254.667,230.351,254.067z"/>
				<path fill="#1F1F1F" d="M144.95,169.767h8.9h8.9c1,0,1.5-1.2,0.8-1.9l-8.9-9.5c-0.5-0.5-1.2-0.5-1.7,0l-8.9,9.5
					C143.45,168.567,143.95,169.767,144.95,169.767z"/>
				<path fill="#1F1F1F" d="M77.45,234.567l-9.5,8.9c-0.5,0.5-0.5,1.199,0,1.699l9.5,8.9c0.7,0.699,1.9,0.199,1.9-0.801v-8.899
					v-8.899C79.35,234.367,78.15,233.867,77.45,234.567z"/>
				<path fill="#1F1F1F" d="M162.75,318.768h-8.9h-8.9c-1,0-1.5,1.199-0.8,1.899l8.9,9.5c0.5,0.5,1.2,0.5,1.7,0l8.9-9.5
					C164.25,319.967,163.75,318.768,162.75,318.768z"/>
			</g>
		</g>
	</g>
</g>
<g>
	<g>
		<path opacity="0.1" fill="#E6E6E6" enable-background="new    " d="M105.15,544.467c-40.5-2.8-75.8-20.3-87.3-30.5
			c-11.5-10.3-17.5-31.6-17.5-31.6c-0.4,15-0.4,26.3-0.4,26.3s4.5,53.4,36.2,74.9c31.7,21.5,56.7,14,56.7,14s33.1-8.2,57.8-41.9
			c4.5-6.2,9.3-14.5,14.1-23.8C164.65,531.867,145.55,547.167,105.15,544.467z"/>
		<pattern  id="SVGID_1_" xlink:href="#SVGID_4_" patternTransform="matrix(0.3298 0.0946 -0.0946 0.3298 -16292.8193 2084.0645)">
		</pattern>
		<path opacity="0.08" fill="url(#SVGID_1_)" enable-background="new    " d="M105.15,544.467c-40.5-2.8-75.8-20.3-87.3-30.5
			c-11.5-10.3-17.5-31.6-17.5-31.6c-0.4,15-0.4,26.3-0.4,26.3s4.5,53.4,36.2,74.9c31.7,21.5,56.7,14,56.7,14s33.1-8.2,57.8-41.9
			c4.5-6.2,9.3-14.5,14.1-23.8C164.65,531.867,145.55,547.167,105.15,544.467z"/>
		<path opacity="0.22" enable-background="new    " d="M89.95,592.467c-12.5,1.801-31.3-2-45.1-7.699c-13.6-5.7-24-16.4-24-16.4
			c4.2,5.8,9.3,11.1,15.3,15.2c31.7,21.5,56.7,14,56.7,14s11.7-2.9,26.3-12.3C119.15,585.268,104.55,590.467,89.95,592.467z"/>
	</g>
	<g>
		<path opacity="0.1" fill="#E6E6E6" enable-background="new    " d="M700.75,544.467c40.5-2.8,75.8-20.3,87.3-30.5
			c11.5-10.199,17.5-31.5,17.5-31.5c0.4,15,0.4,26.301,0.4,26.301s-4.5,53.399-36.2,74.899s-56.7,14-56.7,14s-33.1-8.2-57.8-41.899
			c-4.5-6.2-9.3-14.5-14.1-23.801C641.25,531.867,660.351,547.167,700.75,544.467z"/>
		<pattern  id="SVGID_2_" xlink:href="#SVGID_5_" patternTransform="matrix(-0.3298 0.0946 0.0946 0.3298 -30837.8203 2104.752)">
		</pattern>
		<path opacity="0.08" fill="url(#SVGID_2_)" enable-background="new    " d="M700.75,544.467c40.5-2.8,75.8-20.3,87.3-30.5
			c11.5-10.199,17.5-31.5,17.5-31.5c0.4,15,0.4,26.301,0.4,26.301s-4.5,53.399-36.2,74.899s-56.7,14-56.7,14s-33.1-8.2-57.8-41.899
			c-4.5-6.2-9.3-14.5-14.1-23.801C641.25,531.867,660.351,547.167,700.75,544.467z"/>
		<path opacity="0.22" enable-background="new    " d="M715.95,592.467c12.5,1.801,31.3-2,45.1-7.699c13.601-5.7,24-16.4,24-16.4
			c-4.199,5.8-9.3,11.1-15.3,15.2c-31.7,21.5-56.7,14-56.7,14s-11.699-2.9-26.3-12.3C686.75,585.268,701.351,590.467,715.95,592.467
			z"/>
	</g>
	<g>
		<g>
			<path d="M240.45,143.467c6.9,0,12.5,5.6,12.5,12.5v18.3c0,6.9-5.6,12.5-12.5,12.5s-12.5-5.6-12.5-12.5v-18.3
				C227.95,149.067,233.55,143.467,240.45,143.467 M240.45,141.767c-7.8,0-14.2,6.4-14.2,14.2v18.3c0,7.8,6.4,14.2,14.2,14.2
				s14.2-6.4,14.2-14.2v-18.3C254.65,148.067,248.25,141.767,240.45,141.767L240.45,141.767z"/>
			<path fill="#10111A" d="M240.45,143.467c-6.9,0-12.5,5.6-12.5,12.5v18.3c0,6.9,5.6,12.5,12.5,12.5s12.5-5.6,12.5-12.5v-18.3
				C252.95,149.067,247.351,143.467,240.45,143.467z"/>
		</g>
	</g>
	<g>
		<g>
			<path d="M565.45,143.467c6.9,0,12.5,5.6,12.5,12.5v18.3c0,6.9-5.6,12.5-12.5,12.5l0,0c-6.9,0-12.5-5.6-12.5-12.5v-18.3
				C552.95,149.067,558.55,143.467,565.45,143.467L565.45,143.467 M565.45,141.767c-7.8,0-14.2,6.4-14.2,14.2v18.3
				c0,7.8,6.4,14.2,14.2,14.2s14.2-6.4,14.2-14.2v-18.3C579.65,148.067,573.25,141.767,565.45,141.767L565.45,141.767z"/>
			<path fill="#10111A" d="M565.45,143.467c-6.9,0-12.5,5.6-12.5,12.5v18.3c0,6.9,5.6,12.5,12.5,12.5s12.5-5.6,12.5-12.5v-18.3
				C577.95,149.067,572.351,143.467,565.45,143.467z"/>
		</g>
	</g>
</g>
<g>
	<g>
		<circle cx="402.95" cy="316.367" r="4.1"/>
		<circle cx="402.95" cy="295.467" r="4.1"/>
		<circle cx="396.05" cy="305.667" r="4.1"/>
		<circle cx="381.351" cy="305.667" r="4.1"/>
		<circle cx="388.65" cy="316.367" r="4.1"/>
		<circle cx="388.65" cy="295.467" r="4.1"/>
		<circle cx="374.351" cy="295.467" r="4.1"/>
	</g>
	<g>
		<circle cx="409.851" cy="305.667" r="4.1"/>
		<circle cx="424.55" cy="305.667" r="4.1"/>
		<circle cx="417.15" cy="316.367" r="4.1"/>
		<circle cx="417.15" cy="295.467" r="4.1"/>
		<circle cx="431.55" cy="295.467" r="4.1"/>
	</g>
</g>
<g opacity="0.12">
	<path fill="#FFFFFF" d="M402.95,319.467c-2.1,0-3.8-1.6-4.1-3.6c0,0.2-0.101,0.3-0.101,0.5c0,2.3,1.8,4.1,4.101,4.1
		c2.3,0,4.1-1.8,4.1-4.1c0-0.2,0-0.3-0.1-0.5C406.75,317.867,405.05,319.467,402.95,319.467z"/>
	<path fill="#FFFFFF" d="M402.95,299.567c2.3,0,4.1-1.801,4.1-4.1c0-0.201,0-0.301-0.1-0.5c-0.2,2-2,3.6-4.1,3.6
		c-2.101,0-3.801-1.6-4.101-3.6c0,0.199-0.1,0.299-0.1,0.5C398.851,297.667,400.65,299.567,402.95,299.567z"/>
	<path fill="#FFFFFF" d="M400.15,305.667c0-0.2,0-0.3-0.101-0.5c-0.199,2-2,3.601-4.1,3.601s-3.8-1.601-4.1-3.601
		c0,0.2-0.101,0.3-0.101,0.5c0,2.3,1.8,4.101,4.101,4.101C398.25,309.768,400.15,307.967,400.15,305.667z"/>
	<path fill="#FFFFFF" d="M385.351,305.167c-0.2,2-2,3.601-4.101,3.601c-2.1,0-3.8-1.601-4.1-3.601c0,0.2-0.101,0.3-0.101,0.5
		c0,2.3,1.801,4.101,4.101,4.101s4.1-1.801,4.1-4.101C385.45,305.467,385.45,305.367,385.351,305.167z"/>
	<path fill="#FFFFFF" d="M388.75,319.467c-2.1,0-3.8-1.6-4.1-3.6c0,0.2-0.101,0.3-0.101,0.5c0,2.3,1.801,4.1,4.101,4.1
		s4.1-1.8,4.1-4.1c0-0.2,0-0.3-0.1-0.5C392.55,317.867,390.851,319.467,388.75,319.467z"/>
	<path fill="#FFFFFF" d="M388.75,299.567c2.3,0,4.101-1.801,4.101-4.1c0-0.201,0-0.301-0.101-0.5c-0.2,2-2,3.6-4.1,3.6
		c-2.101,0-3.8-1.6-4.101-3.6c0,0.199-0.1,0.299-0.1,0.5C384.55,297.667,386.45,299.567,388.75,299.567z"/>
	<path fill="#FFFFFF" d="M378.55,295.468c0-0.201,0-0.301-0.1-0.5c-0.2,2-2,3.6-4.1,3.6c-2.101,0-3.801-1.6-4.101-3.6
		c0,0.199-0.1,0.299-0.1,0.5c0,2.299,1.8,4.1,4.1,4.1C376.65,299.567,378.55,297.667,378.55,295.468z"/>
	<path fill="#FFFFFF" d="M413.95,305.167c-0.2,2-2,3.601-4.1,3.601c-2.101,0-3.801-1.601-4.101-3.601c0,0.2-0.1,0.3-0.1,0.5
		c0,2.3,1.8,4.101,4.1,4.101s4.101-1.801,4.101-4.101C414.05,305.467,413.95,305.367,413.95,305.167z"/>
	<path fill="#FFFFFF" d="M424.55,308.768c-2.1,0-3.8-1.601-4.1-3.601c0,0.2-0.1,0.3-0.1,0.5c0,2.3,1.8,4.101,4.1,4.101
		s4.1-1.801,4.1-4.101c0-0.2,0-0.3-0.1-0.5C428.45,307.268,426.65,308.768,424.55,308.768z"/>
	<path fill="#FFFFFF" d="M417.25,319.467c-2.1,0-3.8-1.6-4.1-3.6c0,0.2-0.101,0.3-0.101,0.5c0,2.3,1.801,4.1,4.101,4.1
		s4.1-1.8,4.1-4.1c0-0.2,0-0.3-0.1-0.5C421.05,317.867,419.351,319.467,417.25,319.467z"/>
	<path fill="#FFFFFF" d="M417.25,299.567c2.3,0,4.101-1.801,4.101-4.1c0-0.201,0-0.301-0.101-0.5c-0.2,2-2,3.6-4.1,3.6
		c-2.101,0-3.8-1.6-4.101-3.6c0,0.199-0.1,0.299-0.1,0.5C413.05,297.667,414.95,299.567,417.25,299.567z"/>
	<path fill="#FFFFFF" d="M431.55,298.567c-2.1,0-3.8-1.6-4.1-3.6c0,0.199-0.1,0.299-0.1,0.5c0,2.299,1.8,4.1,4.1,4.1
		s4.1-1.801,4.1-4.1c0-0.201,0-0.301-0.1-0.5C435.351,296.968,433.65,298.567,431.55,298.567z"/>
</g>
<path fill="#0B0B0F" d="M436.55,420.967H368.65c-2.8,0-4.601,0.601-4.601-2.199l0,0c0-2.801,2.301-5,5-5h67.9c2.8,0,5,2.3,5,5l0,0
	C442.05,421.467,439.351,420.967,436.55,420.967z"/>
<path d="M408.25,418.768h-36.5c-0.5,0-0.899-0.4-0.899-0.9l0,0c0-1.1,0.899-2,2-2h34.199c1.101,0,2,0.9,2,2l0,0
	C409.15,418.367,408.75,418.768,408.25,418.768z"/>
<path d="M430.45,419.567h-4.2c-0.899,0-1.7-0.8-1.7-1.7l0,0c0-1.6,1.301-2.8,2.801-2.8h1.899c1.601,0,2.8,1.3,2.8,2.8l0,0
	C432.15,418.867,431.45,419.567,430.45,419.567z"/>
<g>
	<g>
		<path fill="#080808" d="M530.351,124.267c0-1-0.801-1.9-1.9-1.9h-125.5l0,0h-125.6c-1,0-1.9,0.8-1.9,1.9v6v123.201
			c0,8.6,7,15.6,15.6,15.6h111.9l0,0h111.9c8.6,0,15.6-7,15.6-15.6V130.367L530.351,124.267z"/>
		<g opacity="0.12">
			
				<pattern  id="SVGID_3_" xlink:href="#SVGID_6_" patternTransform="matrix(0.1017 0 0 0.1017 -21058.0977 -5548.6191)"  opacity="0.12">
			</pattern>
			<path fill="url(#SVGID_3_)" d="M275.45,253.468c0,8.6,7,15.6,15.6,15.6h111.9l0,0h111.9c8.6,0,15.6-7,15.6-15.6v-106.5h-255
				V253.468z"/>
		</g>
	</g>
</g>
<g>
	<circle fill="#050505" stroke="#000000" stroke-width="2" stroke-miterlimit="10" cx="402.95" cy="361.967" r="20.2"/>
	<g>
		<path fill="#F2F2F2" d="M404.05,368.567v-2.8v-3.5v-6.5c0-0.5,0.101-0.801,0.301-1c0.1-0.2,0.399-0.301,0.699-0.2
			c0.601,0.2,0.9,0.7,0.9,1.7v6.899c0.8,0.4,1.5,0.5,2.1,0.5c0.601,0,1.2-0.2,1.601-0.5c1-0.7,1.5-1.899,1.5-3.7
			c0-1.899-0.4-3.399-1.2-4.3c-0.8-1-2.1-1.899-4.1-2.6c-1.301-0.4-2.5-0.8-3.601-1.101c-1.1-0.3-2-0.5-2.899-0.699v12.199l0,0v2.7
			l0,0v1.7l0,0v2.5l0,0v1.5l4.699,1.5v-3.6l0,0V368.567z"/>
		<path fill="#F2F2F2" d="M398.95,367.567l-1.7,0.6l-0.899,0.4l-1.601,0.3l-1.5-0.2c-0.3-0.2-0.399-0.399-0.2-0.6
			c0.101-0.101,0.2-0.101,0.301-0.2c0.1-0.1,0.3-0.1,0.399-0.2l1.101-0.399l4.1-1.5v-2.7l-1.7,0.5l-5.5,2l-1,0.399
			c-1.5,0.601-2.2,1.2-2.2,1.801c0.101,0.8,1,1.5,2.7,1.899c0.7,0.2,1.4,0.3,2.101,0.4c0.699,0.1,1.399,0.1,2.199,0.1
			c1,0,2.101-0.1,3.301-0.3v-2.3H398.95L398.95,367.567z"/>
		<path fill="#F2F2F2" d="M414.75,365.268c-0.899-0.301-1.7-0.5-2.5-0.601c-0.8-0.1-1.7-0.2-2.5-0.1c-0.899,0-1.899,0.2-2.8,0.3
			c-0.8,0.2-1.7,0.4-2.6,0.8v2.8l3.899-1.399l1.601-0.5l1.1-0.3h1.4c0.3,0.1,0.6,0.199,0.699,0.399c0,0.2-0.199,0.4-0.8,0.601
			l-1.399,0.5l-6.5,2.399v2.7l3.5-1.3l6.399-2.3l0.7-0.4c1.5-0.5,2.2-1.2,2.2-1.9C417.15,366.367,416.351,365.768,414.75,365.268z"
			/>
	</g>
</g>
<g>
	<g>
		<g>
			<path fill="#0A0A0A" d="M697.15,109.867c0-0.8-0.4-1.5-1.101-1.9c-4.5-2.9-23.399-13.6-51.5-13.6c-26.899,0-41.1,5.9-45.1,8
				c-0.8,0.4-1.2,1.2-1.2,2c0,0,9.8-2.9,47.5-2.9S697.15,109.867,697.15,109.867z"/>
			<path fill="#121212" d="M697.05,116.767L697.05,116.767v-6.9c0,0-13.699-8.4-51.399-8.4c-37.8,0-47.5,2.9-47.5,2.9v11l0,0
				c7.7-1.3,21.2-2.6,44.1-2.6C670.75,112.867,688.15,115.167,697.05,116.767z"/>
		</g>
	</g>
	<g>
		<g>
			<path fill="#0A0A0A" d="M108.75,109.867c0-0.8,0.4-1.5,1.1-1.9c4.5-2.9,23.4-13.6,51.5-13.6c26.9,0,41.1,5.9,45.1,8
				c0.8,0.4,1.2,1.2,1.2,2c0,0-9.8-2.9-47.5-2.9C122.45,101.467,108.75,109.867,108.75,109.867z"/>
			<path fill="#121212" d="M108.85,116.767L108.85,116.767v-6.9c0,0,13.7-8.4,51.4-8.4c37.8,0,47.5,2.9,47.5,2.9v11l0,0
				c-7.7-1.3-21.2-2.6-44.1-2.6C135.15,112.867,117.75,115.167,108.85,116.767z"/>
		</g>
	</g>
</g>
<g>
	<g>
		<g>
			<g>
				<path fill="#121212" d="M697.15,90.767c0,0-32.7-3.2-50.601-3.2c-17.899,0-48.399,2.4-48.399,2.4s3.1-44.7,4.8-52
					c1.6-7.3,7.7-21.3,16.9-27.9c9.199-6.6,11.899-10.1,22.699-10.1c10.801,0,25.4,6.4,34.601,21.4
					C686.45,36.367,697.15,90.767,697.15,90.767z"/>
				<path fill="#0A0A0A" d="M598.65,83.167c0,0,26.1-4.4,49-4.4c22.8,0,47.899,4.4,47.899,4.4c1,4.7,1.601,7.6,1.601,7.6
					s-32.7-3.2-50.601-3.2c-17.899,0-48.399,2.4-48.399,2.4S598.351,87.267,598.65,83.167z"/>
			</g>
			<g opacity="0.08">
				<g>
					<path fill="#FFFFFF" d="M648.65,65.667c-2.101,1.7-3.2,2.6-3.2,2.6c-1.2,1.2-1.9,2.7-2,4.5h9.8v-2.6h-6.3
						c0.3-0.5,1-1.2,2.1-1.9c1.4-0.9,2.301-1.6,2.7-2.1c0.9-1,1.3-2.1,1.3-3.3c0-1.4-0.5-2.5-1.399-3.3c-0.9-0.8-2.101-1.2-3.5-1.2
						c-3.101,0-4.7,1.7-4.7,5h2.7c0-1.8,0.7-2.7,2.1-2.7c1.3,0,2,0.7,2,2.1C650.45,63.867,649.851,64.767,648.65,65.667z"/>
				</g>
				<path fill="#FFFFFF" d="M631.05,67.167h3c1.5,0,2.301,0.6,2.4,1.9c0.1,1.2,0.2,2.5,0.3,3.8h3.3v-0.4
					c-0.5-0.2-0.699-0.7-0.699-1.5c0-0.2,0-0.4,0.1-0.8v-0.7c0-1.7-0.6-2.9-1.8-3.5c1.399-0.5,2.2-1.6,2.2-3.4
					c0-1.3-0.4-2.3-1.301-3c-0.8-0.7-1.899-1-3.199-1h-7.301v14.3h3V67.167z M631.05,60.967h3.7c1.4,0,2.101,0.6,2.101,1.9
					s-0.801,1.9-2.301,1.9h-3.5V60.967z"/>
			</g>
		</g>
	</g>
	<g>
		<g>
			<g>
				<path fill="#121212" d="M108.75,90.767c0,0,32.7-3.2,50.6-3.2s48.3,2.4,48.3,2.4s-3.1-44.7-4.8-52c-1.6-7.3-7.7-21.3-16.9-27.9
					c-9.1-6.7-11.8-10.1-22.6-10.1c-10.8,0-25.4,6.4-34.6,21.4C119.55,36.367,108.75,90.767,108.75,90.767z"/>
				<path fill="#0A0A0A" d="M207.25,83.167c0,0-26.1-4.4-49-4.4c-22.8,0-47.9,4.4-47.9,4.4c-1,4.7-1.6,7.6-1.6,7.6
					s32.7-3.2,50.6-3.2s48.3,2.4,48.3,2.4S207.55,87.267,207.25,83.167z"/>
			</g>
			<g opacity="0.08">
				<g>
					<path fill="#FFFFFF" d="M173.25,65.667c-2.1,1.7-3.2,2.6-3.2,2.6c-1.2,1.2-1.9,2.7-2,4.5h9.8v-2.6h-6.2c0.3-0.5,1-1.2,2.1-1.9
						c1.4-0.9,2.3-1.6,2.7-2.1c0.9-1,1.3-2.1,1.3-3.3c0-1.4-0.5-2.5-1.4-3.3c-0.9-0.8-2.1-1.2-3.5-1.2c-3.1,0-4.7,1.7-4.7,5h2.7
						c0-1.8,0.7-2.7,2.1-2.7c1.3,0,2,0.7,2,2.1C175.05,63.867,174.45,64.767,173.25,65.667z"/>
				</g>
				<polygon fill="#FFFFFF" points="164.75,70.167 157.75,70.167 157.75,58.467 154.65,58.467 154.65,72.767 164.75,72.767 				"/>
			</g>
		</g>
	</g>
</g>
<g>
	<g>
		<path fill="#CCCCCC" d="M547.55,134.567c0,2.1-1.5,3.8-4.1,3.8s-4.1-1.7-4.1-3.8c0-2,1.5-3.8,4.1-3.8
			S547.55,132.467,547.55,134.567z M540.851,134.567c0,1.4,0.8,2.7,2.6,2.7s2.6-1.4,2.6-2.7c0-1.4-0.8-2.7-2.6-2.7
			S540.851,133.167,540.851,134.567z"/>
		<path fill="#CCCCCC" d="M548.851,130.967h3.8c2.399,0,2.899,1.3,2.899,2.2c0,0.9-0.5,2.2-2.899,2.2h-2.3v2.8h-1.5V130.967z
			 M550.351,134.367h2.199c0.7,0,1.5-0.3,1.5-1.2c0-0.9-0.699-1.2-1.5-1.2h-2.199V134.367z"/>
		<path fill="#CCCCCC" d="M556.05,130.967h6.9v1.1h-2.7v6.1h-1.5v-6.2h-2.7V130.967z"/>
		<path fill="#CCCCCC" d="M564.05,130.967h1.5v7.2h-1.5V130.967z"/>
		<path fill="#CCCCCC" d="M575.05,134.567c0,2.1-1.5,3.8-4.1,3.8s-4.1-1.7-4.1-3.8c0-2,1.5-3.8,4.1-3.8
			S575.05,132.467,575.05,134.567z M568.351,134.567c0,1.4,0.8,2.7,2.6,2.7s2.6-1.4,2.6-2.7c0-1.4-0.8-2.7-2.6-2.7
			S568.351,133.167,568.351,134.567z"/>
		<path fill="#CCCCCC" d="M576.45,130.967h1.6l3.9,5.3l0,0v-5.3h1.4v7.2h-1.601l-3.899-5.3l0,0v5.3h-1.4V130.967z"/>
		<path fill="#CCCCCC" d="M586.15,135.767c0,1.1,1,1.5,2.2,1.5c1.3,0,1.8-0.6,1.8-1.1c0-0.6-0.4-0.8-0.7-0.9
			c-0.6-0.2-1.4-0.3-2.6-0.6c-1.5-0.3-1.9-1.1-1.9-1.8c0-1.5,1.6-2.1,3.1-2.1c1.801,0,3.301,0.8,3.301,2.3h-1.5
			c-0.101-0.9-0.801-1.3-1.801-1.3c-0.699,0-1.6,0.2-1.6,0.9c0,0.5,0.4,0.8,1,0.9c0.1,0,2,0.4,2.5,0.6c1.1,0.3,1.7,1.1,1.7,1.8
			c0,1.6-1.7,2.3-3.4,2.3c-2,0-3.5-0.8-3.6-2.6h1.5V135.767z"/>
	</g>
	<g>
		<path fill="#CCCCCC" d="M222.15,135.767c0,1.1,1,1.5,2.2,1.5c1.3,0,1.8-0.6,1.8-1.1c0-0.6-0.4-0.8-0.7-0.9
			c-0.6-0.2-1.4-0.3-2.6-0.6c-1.5-0.3-1.9-1.1-1.9-1.8c0-1.5,1.6-2.1,3.1-2.1c1.801,0,3.301,0.8,3.301,2.3h-1.5
			c-0.101-0.9-0.801-1.3-1.801-1.3c-0.699,0-1.6,0.2-1.6,0.9c0,0.5,0.4,0.8,1,0.9c0.1,0,2,0.4,2.5,0.6c1.1,0.3,1.7,1.1,1.7,1.8
			c0,1.6-1.7,2.3-3.4,2.3c-2,0-3.5-0.8-3.6-2.6h1.5V135.767z"/>
		<path fill="#CCCCCC" d="M228.851,130.967h1.5v2.9h3.899v-2.9h1.5v7.2h-1.5v-3.2h-3.899v3.2h-1.5V130.967z"/>
		<path fill="#CCCCCC" d="M239.851,130.967h1.6l3.3,7.2h-1.6l-0.8-1.9h-3.4l-0.8,1.9h-1.5L239.851,130.967z M239.351,135.267h2.6
			l-1.3-3.1l0,0L239.351,135.267z"/>
		<path fill="#CCCCCC" d="M245.55,130.967h4.101c1.899,0,2.8,0.7,2.8,1.9c0,1.4-1.1,1.7-1.4,1.8l0,0c0.5,0.1,1.301,0.4,1.301,1.5
			c0,0.8,0.1,1.6,0.5,1.9h-1.601c-0.2-0.3-0.2-0.7-0.2-1.1c0-1.3-0.3-1.9-1.699-1.9h-2.2v3h-1.5v-7.1H245.55z M247.05,134.167h2.5
			c1,0,1.5-0.4,1.5-1.1c0-0.9-0.699-1.1-1.5-1.1h-2.399v2.2H247.05z"/>
		<path fill="#CCCCCC" d="M254.05,130.967h6.2v1.1h-4.7v1.9h4.301v1h-4.301v2.1h4.7v1.1h-6.2V130.967L254.05,130.967z"/>
	</g>
</g>
</svg>
