<?xml version="1.0" encoding="utf-8"?>
<!-- Generator: Adobe Illustrator 19.0.1, SVG Export Plug-In . SVG Version: 6.00 Build 0)  -->
<svg version="1.1" id="Layer_1" xmlns="http://www.w3.org/2000/svg" xmlns:xlink="http://www.w3.org/1999/xlink" x="0px" y="0px"
	 width="98.9px" height="22.4px" viewBox="-256 385.6 98.9 22.4" enable-background="new -256 385.6 98.9 22.4"
	 xml:space="preserve">
<g>
	<path fill="#F5F5F5" d="M-256,401.1c0-0.8,0.4-1.5,1.1-1.9c4.5-2.9,23.3-13.6,51.5-13.6c26.9,0,41.1,5.9,45.1,8
		c0.8,0.4,1.2,1.2,1.2,2c0,0-9.8-2.9-47.5-2.9S-256,401.1-256,401.1z"/>
	<path fill="#EDEDED" d="M-256,408L-256,408v-6.9c0,0,13.7-8.4,51.4-8.4c37.8,0,47.5,2.9,47.5,2.9v11l0,0
		c-7.7-1.3-21.2-2.6-44.1-2.6C-229.7,404-247.1,406.3-256,408z"/>
</g>
</svg>
