<?xml version="1.0" encoding="utf-8"?>
<!-- Generator: Adobe Illustrator 16.0.0, SVG Export Plug-In . SVG Version: 6.00 Build 0)  -->
<!DOCTYPE svg PUBLIC "-//W3C//DTD SVG 1.1//EN" "http://www.w3.org/Graphics/SVG/1.1/DTD/svg11.dtd">
<svg version="1.1" id="Layer_1" xmlns="http://www.w3.org/2000/svg" xmlns:xlink="http://www.w3.org/1999/xlink" x="0px" y="0px" width="224px" height="112px" viewBox="0 0 224 112" enable-background="new 0 0 224 112" xml:space="preserve">
	<g>
		<g>
			<g>
				<path fill="#1A1A1A" d="M84.051,54.873c-14.899,0-27.024-12.104-27.024-26.975c0-14.873,12.125-26.872,27.024-26.872     s26.92,12.102,26.92,26.872C110.973,42.668,98.848,54.873,84.051,54.873z"/>
				<path
					fill="#0F0F0F"
					d="M84.051,2.051c14.283,0,25.894,11.589,25.894,25.948c0,14.359-11.611,25.849-25.894,25.849     c-14.283,0-25.996-11.591-25.996-25.849C58.055,13.743,69.666,2.051,84.051,2.051 M84.051,0C68.638,0,56,12.512,56,27.999     C56,43.488,68.536,56,84.051,56C99.567,56,112,43.384,112,27.999C112,12.615,99.464,0,84.051,0L84.051,0z"/>
			</g>
			<path
				fill="#F16667"
				d="M84.051,8.615c-10.686,0-19.42,8.718-19.42,19.384c0,10.667,8.734,19.386,19.42,19.386    c10.687,0,19.42-8.718,19.42-19.386C103.369,17.229,94.738,8.615,84.051,8.615z M84.051,44.41c-9.145,0-16.44-7.384-16.44-16.411    c0-9.128,7.397-16.41,16.44-16.41c9.042,0,16.439,7.386,16.439,16.41C100.492,37.025,93.094,44.41,84.051,44.41z"/>
		</g>
		<g>
			<g>
				<path fill="#1A1A1A" d="M27.897,54.873c-14.77,0-26.872-12.104-26.872-26.874c0-14.769,12.102-26.974,26.872-26.974     c14.769,0,26.974,12.102,26.974,26.974C54.871,42.872,42.77,54.873,27.897,54.873z"/>
				<path
					fill="#0F0F0F"
					d="M28,2.051c14.257,0,25.949,11.589,25.949,25.948c0,14.359-11.692,25.849-25.949,25.849     S2.052,42.257,2.052,27.999C2.051,13.743,13.641,2.051,28,2.051 M28,0C12.513,0,0,12.512,0,27.999C0,43.385,12.513,56,28,56     c15.487,0,28-12.513,28-28.001C55.897,12.512,43.384,0,28,0L28,0z"/>
			</g>
			<polygon fill="#7FB1DF" points="42.667,15.282 40.615,13.23 28,25.846 15.282,13.23 13.23,15.282 25.846,27.897 13.23,40.616    15.282,42.668 28,30.05 40.615,42.668 42.667,40.616 30.051,27.897   "/>
		</g>
		<g>
			<g>
				<path fill="#1A1A1A" d="M140,54.973c-14.872,0-26.871-12.125-26.871-26.92c0-14.797,12.104-27.025,26.871-27.025     c14.77,0,26.975,12.126,26.975,27.025S154.77,54.973,140,54.973z"/>
				<path
					fill="#0F0F0F"
					d="M140,2.055c14.257,0,25.947,11.612,25.947,25.997c0,14.385-11.589,25.893-25.947,25.893     s-25.947-11.611-25.947-25.996C114.053,13.564,125.642,2.055,140,2.055 M140,0c-15.385,0-28,12.536-28,28.052     C112,43.567,124.514,56,140,56c15.488,0,28-12.535,28-27.947C168,12.639,155.385,0,140,0L140,0z"/>
			</g>
			<path fill="#CB79B1" d="M151.795,13.153h-23.59h-2.872v2.875v23.633v2.877h2.872h23.59h2.872v-2.877V16.029v-2.875L151.795,13.153    L151.795,13.153z M151.795,39.765h-23.59V16.132h23.59V39.765z"/>
		</g>
		<g>
			<g>
				<path fill="#1A1A1A" d="M195.949,54.872c-14.899,0-27.023-12.102-27.023-26.973c0-14.872,12.124-26.976,27.023-26.976     c14.897,0,27.022,12.206,27.022,27.078S210.848,54.872,195.949,54.872z"/>
				<path
					fill="#0F0F0F"
					d="M196.051,2.051c14.283,0,25.995,11.591,25.995,25.95c0,14.359-11.609,25.949-25.995,25.949     c-14.385,0-25.995-11.59-25.995-25.949C170.056,13.642,181.666,2.051,196.051,2.051 M196.051,0C180.639,0,168,12.514,168,28.001     S180.536,56,196.051,56C211.566,56,224,43.386,224,28.001C224,12.616,211.464,0,196.051,0L196.051,0z"/>
			</g>
			<path fill="#66C194" d="M212.44,39.334l-16.439-28.307l-16.439,28.307l-1.646,2.872h3.393h14.692h14.692h3.391L212.44,39.334z     M196.104,39.334h-13.051l13.051-22.462l13.049,22.462H196.104z"/>
		</g>
	</g>
	<g>
		<g>
			<g>
				<path fill="#E6E6E6" d="M84.051,110.97c-14.898,0-27.023-12.123-27.023-27.019c0-14.9,12.125-26.925,27.023-26.925     c14.899,0,26.921,12.127,26.921,27.025C110.973,98.949,98.848,110.97,84.051,110.97z"/>
				<path
					fill="#F0F0F0"
					d="M84.051,58.055c14.283,0,25.997,11.612,25.997,25.894c0,14.279-11.611,25.994-25.997,25.994     S58.055,98.333,58.055,84.05S69.666,58.055,84.051,58.055 M84.051,56C68.639,56,56,68.537,56,83.952     C56,99.363,68.536,112,84.051,112C99.566,112,112,99.464,112,84.052S99.464,56,84.051,56L84.051,56z"/>
			</g>
			<path
				fill="#F16667"
				d="M84.051,64.631c-10.686,0-19.42,8.732-19.42,19.421c0,10.687,8.734,19.419,19.42,19.419    c10.688,0,19.421-8.732,19.421-19.419C103.369,73.262,94.738,64.631,84.051,64.631z M84.051,100.492    c-9.145,0-16.439-7.397-16.439-16.439c0-9.146,7.397-16.439,16.439-16.439c9.042,0,16.44,7.397,16.44,16.439    C100.492,93.092,93.094,100.492,84.051,100.492z"/>
		</g>
		<g>
			<g>
				<path fill="#E6E6E6" d="M27.897,110.874c-14.77,0-26.872-12-26.872-26.873c0-14.872,12.102-26.872,26.974-26.872     S54.974,69.231,54.974,84S42.77,110.874,27.897,110.874z"/>
				<path
					fill="#F0F0F0"
					d="M28,58.053c14.257,0,25.949,11.589,25.949,25.847c0,14.255-11.59,25.947-25.949,25.947     S2.052,98.258,2.052,84C2.051,69.744,13.641,58.053,28,58.053 M28,56C12.514,56,0,68.617,0,84C0,99.387,12.513,112,28,112     C43.487,112,56,99.488,56,84C55.897,68.617,43.384,56,28,56L28,56z"/>
			</g>
			<polygon fill="#7FB1DF" points="42.667,71.283 40.615,69.231 28,81.95 15.282,69.231 13.23,71.283 25.846,84 13.23,96.616    15.282,98.772 28,86.052 40.615,98.772 42.667,96.616 30.051,84   "/>
		</g>
		<g>
			<g>
				<path fill="#E6E6E6" d="M140.001,110.97c-14.872,0-26.872-12.123-26.872-27.019c0-14.9,12.104-26.925,26.872-26.925     c14.771,0,26.975,12.127,26.975,26.925C166.976,98.745,154.771,110.97,140.001,110.97z"/>
				<path
					fill="#F0F0F0"
					d="M140.001,58.055c14.258,0,25.948,11.612,25.948,25.894c0,14.279-11.59,25.994-25.948,25.994     s-25.947-11.609-25.947-25.893S125.643,58.055,140.001,58.055 M140.001,56C124.616,56,112,68.537,112,83.952     C112,99.363,124.514,112,140.001,112S168,99.464,168,83.952C168,68.432,155.386,56,140.001,56L140.001,56z"/>
			</g>
			<path fill="#CB79B1" d="M151.797,69.255h-23.592h-2.871v2.878v23.634v2.874h2.871h23.592h2.87v-2.874V72.133v-2.878H151.797z     M151.797,95.868h-23.592V72.235h23.592V95.868z"/>
		</g>
		<g>
			<g>
				<path fill="#E6E6E6" d="M195.949,110.97c-14.898,0-27.023-12.123-27.023-27.019c0-14.9,12.125-26.925,27.023-26.925     c14.897,0,27.022,12.127,27.022,27.025C222.972,98.949,210.848,110.97,195.949,110.97z"/>
				<path
					fill="#F0F0F0"
					d="M196.051,58.055c14.283,0,25.995,11.612,25.995,25.894c0,14.279-11.609,25.994-25.995,25.994     c-14.385,0-25.995-11.609-25.995-25.893S181.666,58.055,196.051,58.055 M196.051,56C180.639,56,168,68.537,168,83.952     C168,99.363,180.536,112,196.051,112C211.566,112,224,99.464,224,84.052S211.464,56,196.051,56L196.051,56z"/>
			</g>
			<path fill="#66C194" d="M212.389,92.273l-16.439-28.358L179.51,92.273l-1.645,2.875h3.393h14.691h14.694h3.39L212.389,92.273z     M196.051,92.273h-13.05l13.05-22.504l13.05,22.504H196.051z"/>
		</g>
	</g>
</svg>
