<?xml version="1.0" encoding="utf-8"?>
<!-- Generator: Adobe Illustrator 16.0.0, SVG Export Plug-In . SVG Version: 6.00 Build 0)  -->
<!DOCTYPE svg PUBLIC "-//W3C//DTD SVG 1.1//EN" "http://www.w3.org/Graphics/SVG/1.1/DTD/svg11.dtd">
<svg version="1.1" id="Layer_1" xmlns="http://www.w3.org/2000/svg" xmlns:xlink="http://www.w3.org/1999/xlink" x="0px" y="0px"
	 width="806px" height="598.9px" viewBox="0 0 806 598.9" enable-background="new 0 0 806 598.9" xml:space="preserve">
<g>
	<path fill="#ED1C24" d="M805.75,508.717L805.75,508.717L805.75,508.717v-0.2c0-0.1,0-0.2,0-0.4c0-0.1,0-0.199,0-0.3
		c0-0.399,0-0.899,0-1.399c0,0,0,0,0-0.101c-0.1-12.399-0.8-67.1-4.6-87.6c-2.9-15.5-17.7-102.5-32-144.6
		c-9.4-27.701-13.101-53-17-64.9c-12-35.7-33-65.7-33-65.7s-9.5-13.1-10.101-16.3c-0.6-3.3-4.7-8.6-4.7-8.6s-2.3-0.8-7.399-1.7l0,0
		l0,0v-6.9c0-0.8-0.4-1.5-1.101-1.9c-4.5-2.9-23.399-13.6-51.5-13.6c-26.899,0-41.1,5.9-45.1,8c-0.8,0.4-1.2,1.2-1.2,2v11l0,0
		c-7.399,1.2-9.6,2.4-9.6,2.4s-2.4,2.9-5.9,4.8c-3.5,1.8-11.7,1.7-11.7,1.7H537.45c0,0-0.601-0.1-0.9,0.3c-0.399,0.4-0.6,2-0.6,2
		h-1.601c-0.899-2.3-3.1-3.9-5.699-4.1c-0.101,0-0.101,0-0.2,0h-0.3h-125.4l0,0h-125.3h-0.3c-0.101,0-0.101,0-0.2,0
		c-2.5,0.2-4.8,1.8-5.7,4.1h-1.6c0,0-0.301-1.7-0.601-2c-0.399-0.4-0.899-0.3-0.899-0.3h-33.4c0,0-8.2,0.2-11.7-1.7
		c-3.5-1.8-5.899-4.8-5.899-4.8s-2.101-1.2-9.601-2.4l0,0v-11c0-0.9-0.5-1.6-1.2-2c-4-2-18.2-8-45.1-8c-28.2,0-47,10.7-51.5,13.6
		c-0.7,0.4-1.1,1.1-1.1,1.9v6.9l0,0l0,0c-5.1,1-7.4,1.7-7.4,1.7s-4.1,5.3-4.7,8.6c-0.6,3.3-10.1,16.3-10.1,16.3s-21,30-33,65.7
		c-4,11.9-7.7,37.199-17,64.9c-14.3,42.1-29.1,129.1-32,144.6c-3.8,20.5-4.5,75.2-4.6,87.6c0,0,0,0,0,0.101c0,0.6,0,1.1,0,1.399
		c0,0.101,0,0.2,0,0.3c0,0.2,0,0.301,0,0.4v0.1v0.101l0,0c0,0.1,0,0.1,0,0.1s0,0,0,0.101l0,0c0.2,2.5,3.6,35.699,20.8,59.5l0,0l0,0
		c0.5,0.699,1.1,1.399,1.6,2.1c0,0,0,0.1,0.1,0.1c0.5,0.7,1.1,1.4,1.6,2l0,0c0.6,0.7,1.1,1.3,1.7,1.9c0.1,0.1,0.1,0.1,0.2,0.2
		c0.6,0.6,1.1,1.2,1.7,1.8c0,0,0,0,0.1,0.1c0.6,0.601,1.2,1.2,1.8,1.7c0.1,0.1,0.2,0.2,0.3,0.3c0.6,0.5,1.2,1,1.8,1.601l0.1,0.1
		c0.6,0.5,1.3,1,1.9,1.5c0.2,0.1,0.3,0.2,0.5,0.3c0.7,0.5,1.3,1,2,1.4c31.7,21.5,56.7,14,56.7,14s0,0,0.1,0l0,0
		c0.1,0,0.1,0,0.2-0.101c0,0,0,0,0.1,0s0.3-0.1,0.4-0.1l0,0c0.2,0,0.3-0.1,0.5-0.2h0.1c0.2-0.1,0.4-0.1,0.7-0.2c0.1,0,0.1,0,0.2-0.1
		c0.3-0.1,0.5-0.2,0.8-0.3h0.1c0.3-0.1,0.6-0.2,0.9-0.3c0.1,0,0.1,0,0.2-0.101c0.3-0.1,0.7-0.199,1.1-0.399
		c0.1,0,0.2-0.101,0.3-0.101c0.4-0.1,0.8-0.3,1.2-0.5c0.1,0,0.1-0.1,0.2-0.1c0.4-0.2,0.8-0.3,1.2-0.5c0.1,0,0.2-0.1,0.2-0.1
		c0.4-0.2,0.9-0.4,1.4-0.601c0.1,0,0.2-0.1,0.3-0.1c0.5-0.2,1-0.4,1.5-0.7c0.1,0,0.2-0.1,0.3-0.1c0.5-0.2,1-0.4,1.5-0.7
		c0.1,0,0.2-0.101,0.2-0.101c0.5-0.3,1.1-0.5,1.7-0.8c0.1-0.1,0.3-0.1,0.4-0.2c0.6-0.3,1.1-0.6,1.7-0.899
		c0.1-0.101,0.2-0.101,0.3-0.2c0.6-0.3,1.1-0.6,1.7-0.9c0.1,0,0.1-0.1,0.2-0.1c0.6-0.3,1.2-0.7,1.9-1.1c0.1-0.101,0.3-0.2,0.4-0.2
		c0.6-0.4,1.3-0.7,1.9-1.101c0.1-0.1,0.3-0.199,0.4-0.199c0.7-0.4,1.3-0.801,2-1.2c0,0,0.1,0,0.1-0.101l0,0l0,0
		c10-6.399,21.4-15.899,31.5-29.6c0.5-0.7,1-1.4,1.5-2.2c0.1-0.2,0.3-0.399,0.4-0.6c0.5-0.7,1-1.4,1.4-2.2c0-0.1,0.1-0.1,0.1-0.2
		c0.5-0.8,1.1-1.7,1.6-2.5c0.1-0.2,0.2-0.3,0.3-0.5c0.5-0.8,1-1.7,1.5-2.5l0.1-0.1c0.6-1,1.1-1.9,1.7-2.9c0.1-0.1,0.1-0.2,0.2-0.3
		c0.5-1,1.1-2,1.7-3l0,0c0.6-1.1,1.2-2.2,1.8-3.3c0,0,0,0,0-0.101c21.9-41.6,44.3-108.8,44.3-108.8s2.2-3,5.7-5.3s6.3-2.6,6.3-2.6
		h1.9c13.8,13.5,32.699,21.8,53.5,21.8c20.8,0,39.6-8.3,53.399-21.7h36c0,2.8,1.8,2.2,4.601,2.2h67.899c2.8,0,5.5,0.6,5.5-2.2h35.9
		c13.8,13.4,32.6,21.7,53.399,21.7c20.801,0,39.7-8.3,53.5-21.8h1.9c0,0,2.8,0.3,6.3,2.6s5.7,5.3,5.7,5.3s22.5,67.2,44.3,108.8
		c0,0,0,0,0,0.101c0.601,1.1,1.2,2.2,1.8,3.3l0,0c0.601,1,1.101,2,1.7,3c0.101,0.1,0.101,0.2,0.2,0.3c0.6,1,1.1,2,1.7,2.9l0.1,0.1
		c0.5,0.9,1,1.7,1.5,2.5c0.101,0.2,0.2,0.3,0.3,0.5c0.5,0.9,1.101,1.7,1.601,2.5c0,0.101,0.1,0.101,0.1,0.2c0.5,0.7,1,1.5,1.4,2.2
		c0.1,0.2,0.3,0.399,0.399,0.6c0.5,0.7,1,1.5,1.5,2.2c10,13.7,21.5,23.2,31.5,29.6l0,0l0,0c0,0,0.101,0,0.101,0.101
		c0.7,0.399,1.3,0.8,2,1.2c0.1,0.1,0.3,0.199,0.399,0.199c0.601,0.4,1.301,0.801,1.9,1.101c0.1,0.1,0.3,0.2,0.4,0.2
		c0.6,0.399,1.3,0.699,1.899,1.1c0.101,0,0.101,0.1,0.2,0.1c0.6,0.301,1.2,0.601,1.7,0.9c0.1,0.1,0.2,0.1,0.3,0.2
		c0.6,0.3,1.2,0.6,1.7,0.899c0.1,0.101,0.3,0.101,0.399,0.2c0.601,0.3,1.101,0.5,1.7,0.8c0.101,0,0.2,0.101,0.2,0.101
		c0.5,0.2,1,0.5,1.5,0.7c0.1,0,0.2,0.1,0.3,0.1c0.5,0.2,1,0.4,1.5,0.7c0.101,0,0.2,0.1,0.3,0.1c0.5,0.2,0.9,0.4,1.4,0.601
		c0.1,0,0.2,0.1,0.2,0.1c0.4,0.2,0.8,0.3,1.2,0.5c0.1,0,0.1,0.1,0.2,0.1c0.399,0.2,0.8,0.301,1.199,0.5
		c0.101,0,0.2,0.101,0.301,0.101c0.399,0.1,0.699,0.3,1.1,0.399c0.1,0,0.1,0,0.2,0.101c0.3,0.1,0.6,0.2,0.899,0.3h0.101
		c0.3,0.1,0.6,0.2,0.8,0.3c0.1,0,0.1,0,0.2,0.1c0.2,0.101,0.5,0.101,0.7,0.2h0.1c0.2,0.101,0.4,0.101,0.5,0.2l0,0
		c0.2,0,0.3,0.1,0.4,0.1c0,0,0,0,0.1,0s0.2,0.101,0.2,0.101l0,0h0.1c0,0,25,7.5,56.7-14c0.7-0.5,1.3-0.9,2-1.4
		c0.2-0.1,0.3-0.2,0.5-0.3c0.6-0.5,1.3-1,1.9-1.5l0.1-0.1c0.6-0.5,1.2-1,1.8-1.601c0.1-0.1,0.2-0.2,0.3-0.3
		c0.601-0.6,1.2-1.1,1.8-1.7c0,0,0,0,0.101-0.1c0.6-0.6,1.1-1.2,1.7-1.8c0.1-0.101,0.1-0.101,0.199-0.2c0.601-0.6,1.101-1.3,1.7-1.9
		l0,0c0.601-0.7,1.101-1.3,1.601-2c0,0,0-0.1,0.1-0.1c0.5-0.7,1.1-1.4,1.6-2.1l0,0l0,0c17.2-23.801,20.601-57,20.801-59.5l0,0
		c0-0.101,0-0.101,0-0.101S805.75,508.816,805.75,508.717z"/>
	<path fill="#ED1C24" d="M608.55,89.417c0.5,0,1.101-0.1,1.601-0.1c4.399-0.3,9.6-0.6,15-0.9c1.3-0.1,2.699-0.1,4-0.2
		c2.699-0.1,5.399-0.2,8-0.3c1.3,0,2.6-0.1,3.8-0.1s2.399,0,3.6-0.1c0.601,0,1.2,0,1.7,0c17.9,0,50.6,3.2,50.6,3.2l0,0
		c0,0,0-0.1-0.1-0.3v-0.1c0-0.1,0-0.1,0-0.2l0,0c0-0.1,0-0.2-0.1-0.3c0-0.1,0-0.1,0-0.2v-0.1c0-0.2-0.101-0.5-0.2-0.8v-0.1
		c0-0.1-0.101-0.3-0.101-0.4c0,0,0,0,0-0.1c-2.3-11-11.399-53.8-19.399-66.8c-9.101-15-23.7-21.4-34.601-21.4
		c-10.899,0-13.6,3.4-22.699,10.1c-9.101,6.7-15.301,20.6-16.9,27.9c-1.2,5.5-3.3,32.4-4.3,45.2l0,0c0,0.1,0,0.3,0,0.4
		c0,0.1,0,0.1,0,0.2s0,0.3,0,0.4c0,0.1,0,0.3,0,0.4c0,0.1,0,0.3,0,0.4c0,0.1,0,0.2,0,0.3v0.1c0,0.2,0,0.4,0,0.6l0,0
		c0,0.6-0.101,1.1-0.101,1.6c0,0.2,0,0.3,0,0.5l0,0c-0.1,1-0.1,1.6-0.1,1.8c0,0.1,0,0.1,0,0.1s1.9-0.1,5-0.4
		C604.55,89.617,606.45,89.517,608.55,89.417z"/>
	<path fill="#ED1C24" d="M207.55,90.117L207.55,90.117c0-0.3-0.1-0.9-0.1-1.9l0,0c0-0.2,0-0.3,0-0.5c0-0.5-0.1-1-0.1-1.6l0,0
		c0-0.2,0-0.4,0-0.6v-0.1c0-0.1,0-0.2,0-0.3s0-0.3,0-0.4c0-0.1,0-0.3,0-0.4c0-0.1,0-0.3,0-0.4s0-0.2,0-0.2c0-0.1,0-0.2,0-0.3
		c-1-12.8-3.1-39.7-4.3-45.2c-1.6-7.3-7.7-21.3-16.9-27.9c-9.2-6.6-12.2-10.2-23-10.2c-10.8,0-25.4,6.4-34.6,21.4
		c-8,13-17.1,55.8-19.4,66.8c0,0,0,0,0,0.1c0,0.2-0.1,0.3-0.1,0.4v0.1c-0.1,0.3-0.1,0.6-0.2,0.8v0.1c0,0.1,0,0.1,0,0.2
		s0,0.2-0.1,0.3l0,0c0,0.1,0,0.1,0,0.2v0.1c0,0.1,0,0.2-0.1,0.3l0,0c0,0,32.7-3.2,50.6-3.2S207.55,90.117,207.55,90.117z"/>
</g>
<g>
	<path fill="#F2F2F2" d="M268.5,348.8c4.3-0.699,9.8-1.1,15.7-1.1c10.1,0,17,2.1,22,6.199c5.2,4.201,8.399,10.601,8.399,19.801
		c0,9.6-3.3,16.8-8.399,21.4c-5.4,4.899-13.9,7.399-24.4,7.399c-5.8,0-10.1-0.3-13.3-0.7V348.8L268.5,348.8z M278.4,394.5
		c1.4,0.2,3.4,0.2,5.4,0.2c12.8,0.1,20.4-7,20.4-20.6c0.1-11.9-6.8-18.701-19.1-18.701c-3.1,0-5.4,0.201-6.7,0.601V394.5
		L278.4,394.5z"/>
	<path fill="#F2F2F2" d="M333.5,352.2c0,3-2.2,5.3-5.6,5.3c-3.301,0-5.4-2.3-5.4-5.3s2.2-5.4,5.5-5.4S333.4,349.2,333.5,352.2z
		 M323,402v-39h9.9v39H323z"/>
	<path fill="#F2F2F2" d="M343,393c2.2,1.399,6.5,2.8,10,2.8c4.3,0,6.2-1.8,6.2-4.3c0-2.601-1.601-4-6.4-5.7
		c-7.6-2.6-10.8-6.8-10.7-11.4c0-6.899,5.7-12.199,14.7-12.199c4.3,0,8.101,1.1,10.3,2.3l-1.899,7c-1.7-1-4.8-2.2-8.2-2.2
		c-3.5,0-5.4,1.7-5.4,4.1c0,2.5,1.801,3.701,6.801,5.4c7,2.6,10.3,6.2,10.399,11.9c0,7-5.5,12.2-15.8,12.2c-4.7,0-9-1.101-11.8-2.7
		L343,393z"/>
	<path fill="#F2F2F2" d="M405.5,400.8c-2.1,1-6.2,2-11,2c-12.2,0-20.1-7.8-20.1-19.8c0-11.7,8-20.8,21.699-20.8
		c3.601,0,7.301,0.8,9.5,1.8l-1.8,7.399c-1.6-0.699-3.899-1.5-7.399-1.5c-7.5,0-12,5.5-11.9,12.601c0,8,5.2,12.601,11.9,12.601
		c3.399,0,5.8-0.701,7.8-1.5L405.5,400.8z"/>
	<path fill="#F2F2F2" d="M449.1,382.2c0,14.3-10.1,20.7-20,20.7c-11,0-19.5-7.601-19.5-20.101c0-12.8,8.4-20.6,20.2-20.6
		C441.3,362.2,449.1,370.399,449.1,382.2z M419.7,382.601c0,7.5,3.7,13.199,9.7,13.199c5.6,0,9.5-5.5,9.5-13.4c0-6.1-2.7-13-9.4-13
		C422.5,369.399,419.7,376.101,419.7,382.601z"/>
	<path fill="#F2F2F2" d="M457.2,374.7c0-4.5-0.101-8.2-0.3-11.6h8.6l0.5,5.799h0.2c1.7-3,5.899-6.699,12.399-6.699
		c6.801,0,13.801,4.4,13.801,16.699V402H482.6v-22c0-5.601-2.1-9.8-7.399-9.8c-3.9,0-6.601,2.8-7.7,5.8
		c-0.3,0.899-0.4,2.101-0.4,3.2V402.1H457.2V374.7L457.2,374.7z"/>
	<path fill="#F2F2F2" d="M502.9,374.7c0-4.5-0.101-8.2-0.301-11.6h8.601l0.5,5.799h0.2c1.699-3,5.899-6.699,12.399-6.699
		c6.8,0,13.8,4.4,13.8,16.699V402h-9.8v-22c0-5.601-2.1-9.8-7.399-9.8c-3.9,0-6.601,2.8-7.7,5.8c-0.3,0.899-0.4,2.101-0.4,3.2V402.1
		H502.9V374.7L502.9,374.7z"/>
	<path fill="#F2F2F2" d="M555.6,385.3c0.2,7,5.801,10.1,12,10.1c4.601,0,7.801-0.6,10.801-1.799l1.399,6.8
		c-3.399,1.399-8,2.399-13.6,2.399c-12.601,0-20.101-7.8-20.101-19.699c0-10.801,6.601-21,19-21c12.601,0,16.801,10.399,16.801,19
		c0,1.799-0.2,3.299-0.301,4.199H555.6z M572.8,378.399c0.101-3.6-1.5-9.5-8.1-9.5c-6.101,0-8.601,5.5-9,9.5H572.8z"/>
	<path fill="#F2F2F2" d="M618.6,400.8c-2.1,1-6.199,2-11,2c-12.199,0-20.1-7.8-20.1-19.8c0-11.7,8-20.8,21.7-20.8
		c3.6,0,7.3,0.8,9.5,1.8l-1.8,7.399c-1.601-0.699-3.9-1.5-7.4-1.5c-7.5,0-12,5.5-11.9,12.601c0,8,5.2,12.601,11.9,12.601
		c3.4,0,5.8-0.701,7.8-1.5L618.6,400.8z"/>
	<path fill="#F2F2F2" d="M638.4,352v11.101h9.399v7.399H638.4v17.2c0,4.699,1.3,7.199,5,7.199c1.699,0,3-0.199,3.8-0.5l0.2,7.501
		c-1.4,0.6-4,1-7.101,1c-3.6,0-6.6-1.2-8.5-3.2c-2.1-2.2-3-5.801-3-10.9v-18.3h-5.6v-7.399h5.6V354.3L638.4,352z"/>
	<path fill="#F2F2F2" d="M661.6,385.3c0.2,7,5.801,10.1,12,10.1c4.601,0,7.801-0.6,10.801-1.799l1.399,6.8
		c-3.399,1.399-8,2.399-13.6,2.399c-12.601,0-20.101-7.8-20.101-19.699c0-10.801,6.601-21,19-21c12.601,0,16.801,10.399,16.801,19
		c0,1.799-0.2,3.299-0.301,4.199H661.6z M678.8,378.399c0.101-3.6-1.5-9.5-8.1-9.5c-6.101,0-8.601,5.5-9,9.5H678.8z"/>
	<path fill="#F2F2F2" d="M731.9,345.2v45.9c0,4,0.199,8.3,0.3,10.999h-8.8l-0.4-6.2h-0.2c-2.3,4.301-7,7.001-12.7,7.001
		c-9.3,0-16.6-7.9-16.6-19.9c-0.1-13,8.1-20.8,17.4-20.8c5.399,0,9.199,2.199,11,5.1h0.199v-22.1H731.9z M722,379.3
		c0-0.8-0.1-1.8-0.2-2.6c-0.899-3.801-4-7-8.5-7c-6.3,0-9.8,5.6-9.8,12.9c0,7.1,3.5,12.299,9.8,12.299c4,0,7.5-2.699,8.5-7
		c0.2-0.899,0.3-1.799,0.3-2.899L722,379.3L722,379.3z"/>
</g>
</svg>
