<?xml version="1.0" encoding="utf-8"?>
<!-- Generator: Adobe Illustrator 16.0.0, SVG Export Plug-In . SVG Version: 6.00 Build 0)  -->
<!DOCTYPE svg PUBLIC "-//W3C//DTD SVG 1.1//EN" "http://www.w3.org/Graphics/SVG/1.1/DTD/svg11.dtd">
<svg version="1.1" id="Layer_1" xmlns="http://www.w3.org/2000/svg" xmlns:xlink="http://www.w3.org/1999/xlink" x="0px" y="0px" width="178.5px" height="104px" viewBox="0 0 178.5 104" enable-background="new 0 0 178.5 104" xml:space="preserve">
	<g>
		<g>
			<path fill="#1A1A1A" d="M124.505,20.654c1.399-2,1.2-2.9,1.2-2.9s0.199-0.9-1.2-2.9s-15-13.6-15.7-14
			c-0.699-0.399-28.5-2.199-31.4,1.301s-2.6,15.6-2.6,15.6s-0.3,12.1,2.6,15.6s30.701,1.7,31.4,1.301
			C109.505,34.254,123.105,22.654,124.505,20.654z"/>
			<path opacity="0.25" enable-background="new" d="M124.505,20.654c1.399-2,1.2-2.9,1.2-2.9s0.199-0.9-1.2-2.9
			c-0.899-1.3-6.899-6.6-11.2-10.3c-2.1,3.9-3.4,8.4-3.4,13.2s1.201,9.3,3.4,13.2C117.605,27.254,123.605,21.954,124.505,20.654z"/>
		</g>
		<g>
			<path fill="#1A1A1A" d="M52.205,49.754c2,1.4,2.9,1.2,2.9,1.2s0.9,0.2,2.9-1.2s13.6-15,14-15.7s2.2-28.5-1.3-31.399
			c-3.5-2.9-15.6-2.601-15.6-2.601s-12.1-0.2-15.6,2.601c-3.5,2.8-1.7,30.699-1.3,31.399C38.605,34.754,50.205,48.354,52.205,49.754
			z"/>
			<path opacity="0.25" enable-background="new" d="M52.205,49.754c2,1.4,2.9,1.2,2.9,1.2s0.9,0.2,2.9-1.2
			c1.3-0.9,6.6-6.9,10.3-11.2c-3.9-2.1-8.4-3.399-13.2-3.399c-4.8,0-9.3,1.199-13.2,3.399
			C45.605,42.854,50.905,48.854,52.205,49.754z"/>
		</g>
		<g>
			<path fill="#1A1A1A" d="M175.904,2.254c-2.899-3.5-30.699-1.7-31.399-1.3c-0.7,0.399-14.3,12-15.7,14s-1.199,2.899-1.199,2.899
			s-0.201,0.9,1.199,2.9s15,13.6,15.7,14s28.5,2.2,31.399-1.3c2.9-3.5,2.601-15.601,2.601-15.601S178.805,5.754,175.904,2.254z"/>
			<path
				opacity="0.25"
				enable-background="new"
				d="M140.105,4.654c-4.301,3.699-10.301,9-11.201,10.3
			c-1.399,2-1.199,2.899-1.199,2.899s-0.2,0.9,1.199,2.9c0.9,1.3,6.9,6.6,11.201,10.3c2.1-3.899,3.399-8.399,3.399-13.2
			C143.505,13.054,142.205,8.554,140.105,4.654z"/>
		</g>
		<g>
			<path fill="#1A1A1A" d="M20.605,1.254c-2-1.4-2.9-1.2-2.9-1.2s-0.9-0.2-2.9,1.2s-13.6,15-14,15.7c-0.4,0.7-2.2,28.5,1.3,31.399
			c3.5,2.9,15.6,2.601,15.6,2.601s12.1,0.3,15.6-2.601c3.5-2.899,1.7-30.699,1.3-31.399S22.605,2.654,20.605,1.254z"/>
			<path opacity="0.25" enable-background="new" d="M20.605,1.254c-2-1.4-2.9-1.2-2.9-1.2s-0.9-0.2-2.9,1.2
			c-1.3,0.9-6.6,6.9-10.3,11.2c3.9,2.1,8.4,3.399,13.2,3.399c4.8,0,9.3-1.199,13.2-3.399C27.205,8.154,21.905,2.154,20.605,1.254z"/>
		</g>
	</g>
	<g>
		<g>
			<path fill="#E6E6E6" d="M124.505,73.654c1.399-2,1.2-2.9,1.2-2.9s0.199-0.9-1.2-2.9s-15-13.6-15.7-14
			c-0.699-0.399-28.5-2.199-31.4,1.301s-2.6,15.6-2.6,15.6s-0.3,12.1,2.6,15.6s30.701,1.7,31.4,1.301
			C109.505,87.254,123.105,75.654,124.505,73.654z"/>
			<path
				opacity="0.25"
				fill="#FFFFFF"
				enable-background="new"
				d="M124.505,73.654c1.399-2,1.2-2.9,1.2-2.9s0.199-0.9-1.2-2.9
			c-0.899-1.3-6.899-6.6-11.2-10.3c-2.1,3.9-3.4,8.4-3.4,13.2s1.201,9.3,3.4,13.2C117.605,80.254,123.605,74.954,124.505,73.654z"/>
		</g>
		<g>
			<path
				fill="#E6E6E6"
				d="M52.205,102.754c2,1.4,2.9,1.2,2.9,1.2s0.9,0.2,2.9-1.2s13.6-15,14-15.7s2.2-28.5-1.3-31.399
			c-3.5-2.9-15.6-2.601-15.6-2.601s-12.1-0.2-15.6,2.601c-3.5,2.8-1.7,30.699-1.3,31.399
			C38.605,87.754,50.205,101.354,52.205,102.754z"/>
			<path
				opacity="0.25"
				fill="#FFFFFF"
				enable-background="new"
				d="M52.205,102.754c2,1.4,2.9,1.2,2.9,1.2s0.9,0.2,2.9-1.2
			c1.3-0.9,6.6-6.9,10.3-11.2c-3.9-2.1-8.4-3.399-13.2-3.399c-4.8,0-9.3,1.199-13.2,3.399
			C45.605,95.854,50.905,101.854,52.205,102.754z"/>
		</g>
		<g>
			<path
				fill="#E6E6E6"
				d="M175.904,55.154c-2.899-3.5-30.699-1.7-31.399-1.301c-0.7,0.4-14.3,12-15.7,14s-1.199,2.9-1.199,2.9
			s-0.201,0.9,1.199,2.9s15,13.6,15.7,14c0.7,0.399,28.5,2.199,31.399-1.301c2.9-3.5,2.601-15.6,2.601-15.6
			S178.805,58.654,175.904,55.154z"/>
			<path
				opacity="0.25"
				fill="#FFFFFF"
				enable-background="new"
				d="M140.105,57.654c-4.301,3.699-10.301,9-11.201,10.3
			c-1.399,2-1.199,2.899-1.199,2.899s-0.2,0.9,1.199,2.9c0.9,1.3,6.9,6.6,11.201,10.3c2.1-3.899,3.399-8.399,3.399-13.2
			C143.505,66.054,142.205,61.554,140.105,57.654z"/>
		</g>
		<g>
			<path fill="#E6E6E6" d="M20.605,54.254c-2-1.4-2.9-1.2-2.9-1.2s-0.9-0.2-2.9,1.2s-13.6,15-14,15.7c-0.4,0.7-2.2,28.5,1.3,31.399
			c3.5,2.9,15.6,2.601,15.6,2.601s12.1,0.3,15.6-2.601c3.5-2.899,1.7-30.699,1.3-31.399S22.605,55.654,20.605,54.254z"/>
			<path
				opacity="0.25"
				fill="#FFFFFF"
				enable-background="new"
				d="M20.605,54.254c-2-1.4-2.9-1.2-2.9-1.2s-0.9-0.2-2.9,1.2
			c-1.3,0.9-6.6,6.9-10.3,11.2c3.9,2.1,8.4,3.399,13.2,3.399c4.8,0,9.3-1.199,13.2-3.399C27.205,61.154,21.905,55.154,20.605,54.254
			z"/>
		</g>
	</g>
</svg>
