<?xml version="1.0" encoding="utf-8"?>
<!-- Generator: Adobe Illustrator 16.0.0, SVG Export Plug-In . SVG Version: 6.00 Build 0)  -->
<!DOCTYPE svg PUBLIC "-//W3C//DTD SVG 1.1//EN" "http://www.w3.org/Graphics/SVG/1.1/DTD/svg11.dtd">
<svg version="1.1" id="Layer_1" xmlns="http://www.w3.org/2000/svg" xmlns:xlink="http://www.w3.org/1999/xlink" x="0px" y="0px" width="42.3px" height="42.3px" viewBox="0 0 42.3 42.3" enable-background="new 0 0 42.3 42.3" xml:space="preserve">
	<g>
		<g>
			<circle fill="#FAFAFA" cx="21.15" cy="21.15" r="20.2"/>
			<path
				fill="#FFFFFF"
				d="M21.15,42.35c-11.699,0-21.199-9.5-21.199-21.199c0-11.701,9.5-21.201,21.199-21.201
			c11.7,0,21.2,9.5,21.2,21.201C42.35,32.85,32.85,42.35,21.15,42.35z M21.15,1.95c-10.6,0-19.199,8.602-19.199,19.201
			S10.55,40.35,21.15,40.35s19.2-8.6,19.2-19.199S31.75,1.95,21.15,1.95z"/>
		</g>
		<g>
			<g>
				<path
					fill="#0D0D0D"
					d="M22.25,27.75V24.95v-3.5v-6.5c0-0.5,0.101-0.799,0.301-1c0.1-0.199,0.4-0.299,0.699-0.199
				c0.601,0.199,0.9,0.699,0.9,1.699v6.9c0.801,0.4,1.5,0.5,2.1,0.5c0.601,0,1.201-0.199,1.601-0.5c1-0.699,1.5-1.9,1.5-3.699
				c0-1.9-0.399-3.4-1.2-4.301c-0.8-1-2.1-1.9-4.1-2.6c-1.301-0.4-2.5-0.801-3.6-1.1c-1.101-0.301-2-0.5-2.9-0.701v12.201l0,0v2.699
				l0,0v1.701l0,0v2.5l0,0v1.5l4.699,1.5v-3.6l0,0V27.75z"/>
			</g>
			<g>
				<path
					fill="#0D0D0D"
					d="M17.25,26.75l-1.699,0.6l-0.9,0.4l-1.6,0.301l-1.5-0.201c-0.301-0.199-0.4-0.4-0.2-0.6
				c0.101-0.1,0.2-0.1,0.3-0.199c0.1-0.102,0.301-0.102,0.4-0.201l1.1-0.4l4.1-1.5V22.25l-1.699,0.5l-5.5,2l-1,0.4
				c-1.5,0.6-2.2,1.199-2.2,1.799c0.101,0.801,1,1.5,2.7,1.9c0.699,0.201,1.4,0.301,2.1,0.4c0.7,0.1,1.4,0.1,2.2,0.1
				c1,0,2.101-0.1,3.3-0.299V26.75H17.25z"/>
			</g>
			<g>
				<path
					fill="#0D0D0D"
					d="M33.05,24.45c-0.9-0.299-1.7-0.5-2.5-0.6c-0.801-0.1-1.7-0.199-2.5-0.1c-0.9,0-1.9,0.199-2.801,0.301
				c-0.799,0.199-1.699,0.398-2.6,0.799v2.801l3.9-1.4l1.6-0.5l1.1-0.301h1.4c0.301,0.102,0.6,0.201,0.7,0.4
				c0,0.201-0.2,0.4-0.8,0.6l-1.4,0.5l-6.5,2.4v2.701l3.5-1.301l6.4-2.301l0.699-0.398c1.5-0.5,2.201-1.201,2.201-1.9
				C35.451,25.551,34.65,24.95,33.05,24.45z"/>
			</g>
		</g>
	</g>
</svg>
