<?xml version="1.0" encoding="utf-8"?>
<!-- Generator: Adobe Illustrator 16.0.0, SVG Export Plug-In . SVG Version: 6.00 Build 0)  -->
<!DOCTYPE svg PUBLIC "-//W3C//DTD SVG 1.1//EN" "http://www.w3.org/Graphics/SVG/1.1/DTD/svg11.dtd">
<svg version="1.1" id="Layer_1" xmlns="http://www.w3.org/2000/svg" xmlns:xlink="http://www.w3.org/1999/xlink" x="0px" y="0px"
	 width="286px" height="94px" viewBox="0 0 286 94" enable-background="new 0 0 286 94" xml:space="preserve">
<g>
	<g>
		<path fill="#0F0F0F" d="M47,92.5c-25.1,0-45.5-20.4-45.5-45.5S21.899,1.5,47,1.5S92.5,21.9,92.5,47S72.1,92.5,47,92.5z"/>
		<path fill="#121212" d="M47,3c24.3,0,44,19.7,44,44s-19.7,44-44,44S3,71.3,3,47S22.7,3,47,3 M47,0C21,0,0,21,0,47s21,47,47,47
			s47-21,47-47S73,0,47,0L47,0z"/>
	</g>
	<circle fill="#141414" cx="47" cy="47" r="27.3"/>
</g>
<g>
	<g>
		<path fill="#F0F0F0" d="M239,92.5c-25.101,0-45.5-20.4-45.5-45.5S213.899,1.5,239,1.5c25.1,0,45.5,20.4,45.5,45.5
			S264.1,92.5,239,92.5z"/>
		<path fill="#EDEDED" d="M239,3c24.299,0,44,19.7,44,44s-19.701,44-44,44c-24.301,0-44-19.7-44-44S214.699,3,239,3 M239,0
			c-26,0-47,21-47,47s21,47,47,47s47-21,47-47S265,0,239,0L239,0z"/>
	</g>
	<circle fill="#EBEBEB" cx="239" cy="47" r="27.3"/>
</g>
<g>
	<g>
		<path fill="#F0F0F0" d="M143,92.5c-25.1,0-45.5-20.4-45.5-45.5s20.4-45.5,45.5-45.5s45.5,20.4,45.5,45.5S168.1,92.5,143,92.5z"/>
		<path fill="#EDEDED" d="M143,3c24.299,0,44,19.7,44,44s-19.701,44-44,44c-24.3,0-44-19.7-44-44S118.7,3,143,3 M143,0
			c-26,0-47,21-47,47s21,47,47,47c26,0,47-21,47-47S169,0,143,0L143,0z"/>
	</g>
	<circle fill="#EBEBEB" cx="143" cy="47" r="27.3"/>
</g>
</svg>
