<?xml version="1.0" encoding="utf-8"?>
<!-- Generator: Adobe Illustrator 16.0.0, SVG Export Plug-In . SVG Version: 6.00 Build 0)  -->
<!DOCTYPE svg PUBLIC "-//W3C//DTD SVG 1.1//EN" "http://www.w3.org/Graphics/SVG/1.1/DTD/svg11.dtd">
<svg version="1.1" id="Layer_1" xmlns="http://www.w3.org/2000/svg" xmlns:xlink="http://www.w3.org/1999/xlink" x="0px" y="0px"
	 width="263.9px" height="151.2px" viewBox="0 0 263.9 151.2" enable-background="new 0 0 263.9 151.2" xml:space="preserve">
<pattern  x="-173.55" y="472.1" width="71" height="71" patternUnits="userSpaceOnUse" id="SVGID_1_" viewBox="0 -71 71 71" overflow="visible">
	<g>
		<polygon fill="none" points="0,0 71,0 71,-71 0,-71 		"/>
		<g>
			<polygon fill="none" points="0,0 71,0 71,-71 0,-71 			"/>
			<path fill="#4C4C4C" d="M41.8-35.5c0-3.5-2.8-6.3-6.3-6.3s-6.3,2.8-6.3,6.3s2.8,6.3,6.3,6.3S41.8-32,41.8-35.5z"/>
		</g>
	</g>
</pattern>
<g>
	<path fill="#EDEDED" d="M263.749,5.601C263.349,2.4,260.449,0,257.249,0l0,0h-125.3l0,0H6.649l0,0c-3.2,0-6.1,2.301-6.5,5.602
		C0.05,6.3,0.05,7,0.05,7.701v127.4c0,8.898,7.199,16.1,16.1,16.1h115.8l0,0h115.8c8.9,0,16.101-7.201,16.101-16.1V7.701
		C263.849,6.9,263.849,6.201,263.749,5.601z"/>
	<g>
		<path fill="#F7F7F7" d="M259.349,1.9c0-1-0.8-1.9-1.9-1.9h-125.5l0,0H6.349c-1,0-1.9,0.801-1.9,1.9v6v123.201
			c0,8.6,7,15.6,15.601,15.6h111.899l0,0h111.9c8.6,0,15.6-7,15.6-15.6V7.9L259.349,1.9z"/>
		<g opacity="0.12">
			
				<pattern  id="SVGID_2_" xlink:href="#SVGID_1_" patternTransform="matrix(0.1017 0 0 -0.1017 -14860.8418 -2380.2935)"  opacity="0.12">
			</pattern>
			<path fill="url(#SVGID_2_)" d="M4.449,131.101c0,8.6,7,15.6,15.601,15.6h111.899l0,0h111.9c8.6,0,15.6-7,15.6-15.6V24.5H4.55
				v106.602H4.449z"/>
		</g>
	</g>
</g>
</svg>
