<?xml version="1.0" encoding="utf-8"?>
<!-- Generator: Adobe Illustrator 16.0.0, SVG Export Plug-In . SVG Version: 6.00 Build 0)  -->
<!DOCTYPE svg PUBLIC "-//W3C//DTD SVG 1.1//EN" "http://www.w3.org/Graphics/SVG/1.1/DTD/svg11.dtd">
<svg version="1.1" id="Layer_1" xmlns="http://www.w3.org/2000/svg" xmlns:xlink="http://www.w3.org/1999/xlink" x="0px" y="0px"
	 width="199.9px" height="90.8px" viewBox="0 0 199.9 90.8" enable-background="new 0 0 199.9 90.8" xml:space="preserve">
<g>
	<g>
		<path fill="#EDEDED" d="M199.95,90.799c0,0-32.7-3.199-50.601-3.199c-17.899,0-48.399,2.4-48.399,2.4s3.1-44.701,4.8-52
			c1.7-7.301,7.7-21.301,16.9-27.9c9.199-6.6,12-10.1,22.8-10.1S170.849,6.4,180.05,21.4S199.95,90.799,199.95,90.799z"/>
		<path fill="#F5F5F5" d="M101.45,83.2c0,0,26.1-4.4,49-4.4c22.8,0,47.899,4.4,47.899,4.4c1,4.699,1.601,7.6,1.601,7.6
			s-32.7-3.199-50.601-3.199c-17.899,0-48.399,2.4-48.399,2.4S101.15,87.299,101.45,83.2z"/>
	</g>
	<g opacity="0.08">
		<g>
			<path d="M151.45,65.7c-2.101,1.699-3.2,2.6-3.2,2.6c-1.2,1.201-1.9,2.701-2,4.5h9.8v-2.6h-6.2c0.301-0.5,1-1.199,2.101-1.9
				c1.399-0.9,2.3-1.6,2.7-2.1c0.899-1,1.3-2.1,1.3-3.301c0-1.398-0.5-2.5-1.4-3.299c-0.899-0.801-2.1-1.201-3.5-1.201
				c-3.1,0-4.7,1.701-4.7,5h2.7c0-1.799,0.7-2.699,2.101-2.699c1.3,0,2,0.699,2,2.1C153.25,63.899,152.65,64.799,151.45,65.7z"/>
		</g>
		<path d="M133.95,67.2h3c1.5,0,2.3,0.6,2.399,1.9c0.101,1.199,0.2,2.5,0.301,3.799h3.3V72.5c-0.5-0.201-0.7-0.701-0.7-1.5
			c0-0.201,0-0.4,0.1-0.801V69.5c0-1.701-0.6-2.9-1.8-3.5c1.4-0.5,2.2-1.602,2.2-3.4c0-1.301-0.4-2.301-1.3-3
			c-0.8-0.701-1.9-1-3.2-1h-7.3v14.299h3V67.2z M133.95,61h3.7c1.399,0,2.1,0.6,2.1,1.898c0,1.301-0.8,1.9-2.3,1.9h-3.5V61z"/>
	</g>
</g>
<g>
	<g>
		<path fill="#EDEDED" d="M0.05,90.799c0,0,32.7-3.199,50.601-3.199c17.899,0,48.3,2.4,48.3,2.4s-3.101-44.701-4.8-52
			c-1.7-7.301-7.7-21.301-16.9-27.9S65.349,0,54.55,0S29.15,6.4,19.95,21.4S0.05,90.799,0.05,90.799z"/>
		<path fill="#F5F5F5" d="M98.45,83.2c0,0-26.101-4.4-49-4.4c-22.8,0-47.9,4.4-47.9,4.4c-1,4.699-1.6,7.6-1.6,7.6
			s32.7-3.199,50.6-3.199c17.9,0,48.4,2.4,48.4,2.4S98.849,87.299,98.45,83.2z"/>
	</g>
	<g opacity="0.08">
		<g>
			<path d="M64.55,65.7c-2.1,1.699-3.2,2.6-3.2,2.6c-1.199,1.201-1.899,2.701-2,4.5h9.7v-2.6h-6.2c0.301-0.5,1-1.199,2.101-1.9
				c1.399-0.9,2.3-1.6,2.7-2.1c0.899-1,1.3-2.1,1.3-3.301c0-1.398-0.5-2.5-1.4-3.299c-0.899-0.801-2.1-1.201-3.5-1.201
				c-3.1,0-4.7,1.701-4.7,5h2.7c0-1.799,0.7-2.699,2.101-2.699c1.3,0,2,0.699,2,2.1C66.25,63.899,65.75,64.799,64.55,65.7z"/>
		</g>
		<polygon points="56.05,70.2 48.95,70.2 48.95,58.5 45.95,58.5 45.95,72.799 56.05,72.799 		"/>
	</g>
</g>
</svg>
