<svg xmlns="http://www.w3.org/2000/svg" width="224" height="112" viewBox="0 0 224 112">
    <path fill="#1A1A1A" d="M84.051 54.873c-14.899 0-27.024-12.104-27.024-26.975 0-14.873 12.125-26.872 27.024-26.872s26.92 12.102 26.92 26.872c.002 14.77-12.123 26.975-26.92 26.975z"/>
    <path fill="#0F0F0F" d="M84.051 2.051c14.283 0 25.894 11.589 25.894 25.948S98.334 53.848 84.051 53.848c-14.283 0-25.996-11.591-25.996-25.849 0-14.256 11.611-25.948 25.996-25.948m0-2.051C68.638 0 56 12.512 56 27.999 56 43.488 68.536 56 84.051 56 99.567 56 112 43.384 112 27.999 112 12.615 99.464 0 84.051 0z"/>
    <path fill="#F16667" d="M84.051 8.615c-10.686 0-19.42 8.718-19.42 19.384 0 10.667 8.734 19.386 19.42 19.386 10.687 0 19.42-8.718 19.42-19.386-.102-10.77-8.733-19.384-19.42-19.384zm0 35.795c-9.145 0-16.44-7.384-16.44-16.411 0-9.128 7.397-16.41 16.44-16.41 9.042 0 16.439 7.386 16.439 16.41.002 9.026-7.396 16.411-16.439 16.411z"/>
    <path fill="#1A1A1A" d="M27.897 54.873c-14.77 0-26.872-12.104-26.872-26.874 0-14.769 12.102-26.974 26.872-26.974 14.769 0 26.974 12.102 26.974 26.974 0 14.873-12.101 26.874-26.974 26.874z"/>
    <path fill="#0F0F0F" d="M28 2.051c14.257 0 25.949 11.589 25.949 25.948S42.257 53.848 28 53.848 2.052 42.257 2.052 27.999C2.051 13.743 13.641 2.051 28 2.051M28 0C12.513 0 0 12.512 0 27.999 0 43.385 12.513 56 28 56s28-12.513 28-28.001C55.897 12.512 43.384 0 28 0z"/>
    <path fill="#7FB1DF" d="M42.667 15.282l-2.052-2.052L28 25.846 15.282 13.23l-2.052 2.052 12.616 12.615L13.23 40.616l2.052 2.052L28 30.05l12.615 12.618 2.052-2.052-12.616-12.719z"/>
    <path fill="#1A1A1A" d="M140 54.973c-14.872 0-26.871-12.125-26.871-26.92 0-14.797 12.104-27.025 26.871-27.025 14.77 0 26.975 12.126 26.975 27.025S154.77 54.973 140 54.973z"/>
    <path fill="#0F0F0F" d="M140 2.055c14.257 0 25.947 11.612 25.947 25.997S154.358 53.945 140 53.945s-25.947-11.611-25.947-25.996c0-14.385 11.589-25.894 25.947-25.894M140 0c-15.385 0-28 12.536-28 28.052C112 43.567 124.514 56 140 56c15.488 0 28-12.535 28-27.947C168 12.639 155.385 0 140 0z"/>
    <path fill="#CB79B1" d="M151.795 13.153h-26.462v29.385h29.334V13.154l-2.872-.001zm0 26.612h-23.59V16.132h23.59v23.633z"/>
    <path fill="#1A1A1A" d="M195.949 54.872c-14.899 0-27.023-12.102-27.023-26.973 0-14.872 12.124-26.976 27.023-26.976 14.897 0 27.022 12.206 27.022 27.078s-12.123 26.871-27.022 26.871z"/>
    <path fill="#0F0F0F" d="M196.051 2.051c14.283 0 25.995 11.591 25.995 25.95S210.437 53.95 196.051 53.95c-14.385 0-25.995-11.59-25.995-25.949 0-14.359 11.61-25.95 25.995-25.95m0-2.051C180.639 0 168 12.514 168 28.001S180.536 56 196.051 56C211.566 56 224 43.386 224 28.001 224 12.616 211.464 0 196.051 0z"/>
    <path fill="#66C194" d="M212.44 35.834l-16.439-28.307-16.439 28.307-1.646 2.872h36.168l-1.644-2.872zm-16.336 0h-13.051l13.051-22.462 13.049 22.462h-13.049z"/>
    <path fill="#E6E6E6" d="M84.051 110.97c-14.898 0-27.023-12.123-27.023-27.019 0-14.9 12.125-26.925 27.023-26.925 14.899 0 26.921 12.127 26.921 27.025.001 14.898-12.124 26.919-26.921 26.919z"/>
    <path fill="#F0F0F0" d="M84.051 58.055c14.283 0 25.997 11.612 25.997 25.894 0 14.279-11.611 25.994-25.997 25.994S58.055 98.333 58.055 84.05s11.611-25.995 25.996-25.995m0-2.055C68.639 56 56 68.537 56 83.952 56 99.363 68.536 112 84.051 112 99.566 112 112 99.464 112 84.052S99.464 56 84.051 56z"/>
    <path fill="#F16667" d="M84.051 64.631c-10.686 0-19.42 8.732-19.42 19.421 0 10.687 8.734 19.419 19.42 19.419 10.688 0 19.421-8.732 19.421-19.419-.103-10.79-8.734-19.421-19.421-19.421zm0 35.861c-9.145 0-16.439-7.397-16.439-16.439 0-9.146 7.397-16.439 16.439-16.439s16.44 7.397 16.44 16.439c.001 9.039-7.397 16.439-16.44 16.439z"/>
    <path fill="#E6E6E6" d="M27.897 110.874c-14.77 0-26.872-12-26.872-26.873 0-14.872 12.102-26.872 26.974-26.872S54.974 69.231 54.974 84s-12.204 26.874-27.077 26.874z"/>
    <path fill="#F0F0F0" d="M28 58.053c14.257 0 25.949 11.589 25.949 25.847 0 14.255-11.59 25.947-25.949 25.947S2.052 98.258 2.052 84C2.051 69.744 13.641 58.053 28 58.053M28 56C12.514 56 0 68.617 0 84c0 15.387 12.513 28 28 28s28-12.512 28-28c-.103-15.383-12.616-28-28-28z"/>
    <path fill="#7FB1DF" d="M42.667 71.283l-2.052-2.052L28 81.95 15.282 69.231l-2.052 2.052L25.846 84 13.23 96.616l2.052 2.156L28 86.052l12.615 12.72 2.052-2.156L30.051 84z"/>
    <path fill="#E6E6E6" d="M140.001 110.97c-14.872 0-26.872-12.123-26.872-27.019 0-14.9 12.104-26.925 26.872-26.925 14.771 0 26.975 12.127 26.975 26.925 0 14.794-12.205 27.019-26.975 27.019z"/>
    <path fill="#F0F0F0" d="M140.001 58.055c14.258 0 25.948 11.612 25.948 25.894 0 14.279-11.59 25.994-25.948 25.994s-25.947-11.609-25.947-25.893 11.589-25.995 25.947-25.995m0-2.055C124.616 56 112 68.537 112 83.952 112 99.363 124.514 112 140.001 112S168 99.464 168 83.952C168 68.432 155.386 56 140.001 56z"/>
    <path fill="#CB79B1" d="M151.797 69.255h-26.463v29.386h29.333V69.255h-2.87zm0 26.613h-23.592V72.235h23.592v23.633z"/>
    <path fill="#E6E6E6" d="M195.949 110.97c-14.898 0-27.023-12.123-27.023-27.019 0-14.9 12.125-26.925 27.023-26.925 14.897 0 27.022 12.127 27.022 27.025.001 14.898-12.123 26.919-27.022 26.919z"/>
    <path fill="#F0F0F0" d="M196.051 58.055c14.283 0 25.995 11.612 25.995 25.894 0 14.279-11.609 25.994-25.995 25.994-14.385 0-25.995-11.609-25.995-25.893s11.61-25.995 25.995-25.995m0-2.055C180.639 56 168 68.537 168 83.952 168 99.363 180.536 112 196.051 112 211.566 112 224 99.464 224 84.052S211.464 56 196.051 56z"/>
    <path fill="#66C194" d="M212.389 92.273L195.95 63.915l-16.44 28.358-1.645 2.875h36.168l-1.644-2.875zm-16.338 0h-13.05l13.05-22.504 13.05 22.504h-13.05z"/>
</svg>
