<svg xmlns="http://www.w3.org/2000/svg" width="806" height="598.9" viewBox="0 0 806 598.9">
    <path d="M805.75 508.717v-2.4c-.1-12.399-.8-67.1-4.6-87.6-2.9-15.5-17.7-102.5-32-144.6-9.4-27.701-13.101-53-17-64.9-12-35.7-33-65.7-33-65.7s-9.5-13.1-10.101-16.3c-.6-3.3-4.7-8.6-4.7-8.6s-2.3-.8-7.399-1.7v-6.9c0-.8-.4-1.5-1.101-1.9-4.5-2.9-23.399-13.6-51.5-13.6-26.899 0-41.1 5.9-45.1 8-.8.4-1.2 1.2-1.2 2v11c-7.399 1.2-9.6 2.4-9.6 2.4s-2.4 2.9-5.9 4.8c-3.5 1.8-11.7 1.7-11.7 1.7H537.45s-.601-.1-.9.3c-.399.4-.6 2-.6 2h-1.601c-.899-2.3-3.1-3.9-5.699-4.1h-251.7c-2.5.2-4.8 1.8-5.7 4.1h-1.6s-.301-1.7-.601-2c-.399-.4-.899-.3-.899-.3h-33.4s-8.2.2-11.7-1.7c-3.5-1.8-5.899-4.8-5.899-4.8s-2.101-1.2-9.601-2.4v-11c0-.9-.5-1.6-1.2-2-4-2-18.2-8-45.1-8-28.2 0-47 10.7-51.5 13.6-.7.4-1.1 1.1-1.1 1.9v6.9c-5.1 1-7.4 1.7-7.4 1.7s-4.1 5.3-4.7 8.6c-.6 3.3-10.1 16.3-10.1 16.3s-21 30-33 65.7c-4 11.9-7.7 37.199-17 64.9-14.3 42.1-29.1 129.1-32 144.6-3.8 20.5-4.5 75.2-4.6 87.6v2.602c.2 2.5 3.6 35.699 20.8 59.5.5.699 1.1 1.399 1.6 2.1 0 0 0 .1.1.1.5.7 1.1 1.4 1.6 2 .6.7 1.1 1.3 1.7 1.9l.2.2c.6.6 1.1 1.2 1.7 1.8l.1.1c.6.601 1.2 1.2 1.8 1.7l.3.3c.6.5 1.2 1 1.8 1.601l.1.1c.6.5 1.3 1 1.9 1.5.2.1.3.2.5.3.7.5 1.3 1 2 1.4 31.7 21.5 56.7 14 56.7 14h.1c.1 0 .1 0 .2-.101h.1c.1 0 .3-.1.4-.1.2 0 .3-.1.5-.2h.1c.2-.1.4-.1.7-.2.1 0 .1 0 .2-.1.3-.1.5-.2.8-.3h.1l.9-.3c.1 0 .1 0 .2-.101.3-.1.7-.199 1.1-.399.1 0 .2-.101.3-.101.4-.1.8-.3 1.2-.5.1 0 .1-.1.2-.1.4-.2.8-.3 1.2-.5.1 0 .2-.1.2-.1.4-.2.9-.4 1.4-.601.1 0 .2-.1.3-.1.5-.2 1-.4 1.5-.7.1 0 .2-.1.3-.1.5-.2 1-.4 1.5-.7.1 0 .2-.101.2-.101.5-.3 1.1-.5 1.7-.8.1-.1.3-.1.4-.2.6-.3 1.1-.6 1.7-.899.1-.101.2-.101.3-.2.6-.3 1.1-.6 1.7-.9.1 0 .1-.1.2-.1.6-.3 1.2-.7 1.9-1.1.1-.101.3-.2.4-.2.6-.4 1.3-.7 1.9-1.101.1-.1.3-.199.4-.199.7-.4 1.3-.801 2-1.2 0 0 .1 0 .1-.101 10-6.399 21.4-15.899 31.5-29.6.5-.7 1-1.4 1.5-2.2.1-.2.3-.399.4-.6.5-.7 1-1.4 1.4-2.2 0-.1.1-.1.1-.2.5-.8 1.1-1.7 1.6-2.5.1-.2.2-.3.3-.5.5-.8 1-1.7 1.5-2.5l.1-.1c.6-1 1.1-1.9 1.7-2.9.1-.1.1-.2.2-.3.5-1 1.1-2 1.7-3l1.8-3.3v-.101c21.9-41.6 44.3-108.8 44.3-108.8s2.2-3 5.7-5.3 6.3-2.6 6.3-2.6h1.9c13.8 13.5 32.699 21.8 53.5 21.8 20.8 0 39.6-8.3 53.399-21.7h36c0 2.8 1.8 2.2 4.601 2.2h67.899c2.8 0 5.5.6 5.5-2.2h35.9c13.8 13.4 32.6 21.7 53.399 21.7 20.801 0 39.7-8.3 53.5-21.8h1.9s2.8.3 6.3 2.6 5.7 5.3 5.7 5.3 22.5 67.2 44.3 108.8v.101l1.8 3.3c.601 1 1.101 2 1.7 3 .101.1.101.2.2.3.6 1 1.1 2 1.7 2.9l.1.1c.5.9 1 1.7 1.5 2.5.101.2.2.3.3.5.5.9 1.101 1.7 1.601 2.5 0 .101.1.101.1.2.5.7 1 1.5 1.4 2.2.1.2.3.399.399.6.5.7 1 1.5 1.5 2.2 10 13.7 21.5 23.2 31.5 29.6 0 0 .101 0 .101.101.7.399 1.3.8 2 1.2.1.1.3.199.399.199.601.4 1.301.801 1.9 1.101.1.1.3.2.4.2.6.399 1.3.699 1.899 1.1.101 0 .101.1.2.1.6.301 1.2.601 1.7.9.1.1.2.1.3.2.6.3 1.2.6 1.7.899.1.101.3.101.399.2.601.3 1.101.5 1.7.8.101 0 .2.101.2.101.5.2 1 .5 1.5.7.1 0 .2.1.3.1.5.2 1 .4 1.5.7.101 0 .2.1.3.1.5.2.9.4 1.4.601.1 0 .2.1.2.1.4.2.8.3 1.2.5.1 0 .1.1.2.1.399.2.8.301 1.199.5.101 0 .2.101.301.101.399.1.699.3 1.1.399.1 0 .1 0 .2.101l.899.3h.101c.3.1.6.2.8.3.1 0 .1 0 .2.1.2.101.5.101.7.2h.1c.2.101.4.101.5.2.2 0 .3.1.4.1h.1c.1 0 .2.101.2.101h.1s25 7.5 56.7-14c.7-.5 1.3-.9 2-1.4.2-.1.3-.2.5-.3.6-.5 1.3-1 1.9-1.5l.1-.1c.6-.5 1.2-1 1.8-1.601l.3-.3c.601-.6 1.2-1.1 1.8-1.7l.101-.1c.6-.6 1.1-1.2 1.7-1.8l.199-.2c.601-.6 1.101-1.3 1.7-1.9.601-.7 1.101-1.3 1.601-2 0 0 0-.1.1-.1.5-.7 1.1-1.4 1.6-2.1 17.2-23.801 20.601-57 20.801-59.5v-.101s-.398-.002-.398-.101zm-197.2-419.3c.5 0 1.101-.1 1.601-.1 4.399-.3 9.6-.6 15-.9 1.3-.1 2.699-.1 4-.2 2.699-.1 5.399-.2 8-.3 1.3 0 2.6-.1 3.8-.1s2.399 0 3.6-.1h1.7c17.9 0 50.6 3.2 50.6 3.2s0-.1-.1-.3v-.3c0-.1 0-.2-.1-.3v-.3c0-.2-.101-.5-.2-.8v-.1c0-.1-.101-.3-.101-.4v-.1c-2.3-11-11.399-53.8-19.399-66.8-9.101-15-23.7-21.4-34.601-21.4-10.899 0-13.6 3.4-22.699 10.1-9.101 6.7-15.301 20.6-16.9 27.9-1.2 5.5-3.3 32.4-4.3 45.2v2.8c0 .6-.101 1.1-.101 1.6v.5c-.1 1-.1 1.6-.1 1.8v.1s1.9-.1 5-.4c1.3-.1 3.2-.2 5.3-.3zm-401 .7c0-.3-.1-.9-.1-1.9v-.5c0-.5-.1-1-.1-1.6v-2.7c-1-12.8-3.1-39.7-4.3-45.2-1.6-7.3-7.7-21.3-16.9-27.9-9.2-6.6-12.2-10.2-23-10.2s-25.4 6.4-34.6 21.4c-8 13-17.1 55.8-19.4 66.8v.1c0 .2-.1.3-.1.4v.1c-.1.3-.1.6-.2.8v.3c0 .1 0 .2-.1.3v.3c0 .1 0 .2-.1.3 0 0 32.7-3.2 50.6-3.2s48.3 2.4 48.3 2.4z" fill="#ED1C24"/>
    <path d="M268.5 348.8c4.3-.699 9.8-1.1 15.7-1.1 10.1 0 17 2.1 22 6.199 5.2 4.201 8.399 10.601 8.399 19.801 0 9.6-3.3 16.8-8.399 21.4-5.4 4.899-13.9 7.399-24.4 7.399-5.8 0-10.1-.3-13.3-.7V348.8zm9.9 45.7c1.4.2 3.4.2 5.4.2 12.8.1 20.4-7 20.4-20.6.1-11.9-6.8-18.701-19.1-18.701-3.1 0-5.4.201-6.7.601v38.5zm55.1-42.3c0 3-2.2 5.3-5.6 5.3-3.301 0-5.4-2.3-5.4-5.3s2.2-5.4 5.5-5.4 5.4 2.4 5.5 5.4zM323 402v-39h9.9v39H323zm20-9c2.2 1.399 6.5 2.8 10 2.8 4.3 0 6.2-1.8 6.2-4.3 0-2.601-1.601-4-6.4-5.7-7.6-2.6-10.8-6.8-10.7-11.4 0-6.899 5.7-12.199 14.7-12.199 4.3 0 8.101 1.1 10.3 2.3l-1.899 7c-1.7-1-4.8-2.2-8.2-2.2-3.5 0-5.4 1.7-5.4 4.1 0 2.5 1.801 3.701 6.801 5.4 7 2.6 10.3 6.2 10.399 11.9 0 7-5.5 12.2-15.8 12.2-4.7 0-9-1.101-11.8-2.7L343 393zm62.5 7.8c-2.1 1-6.2 2-11 2-12.2 0-20.1-7.8-20.1-19.8 0-11.7 8-20.8 21.699-20.8 3.601 0 7.301.8 9.5 1.8l-1.8 7.399c-1.6-.699-3.899-1.5-7.399-1.5-7.5 0-12 5.5-11.9 12.601 0 8 5.2 12.601 11.9 12.601 3.399 0 5.8-.701 7.8-1.5l1.3 7.199zm43.6-18.6c0 14.3-10.1 20.7-20 20.7-11 0-19.5-7.601-19.5-20.101 0-12.8 8.4-20.6 20.2-20.6 11.5.001 19.3 8.2 19.3 20.001zm-29.4.401c0 7.5 3.7 13.199 9.7 13.199 5.6 0 9.5-5.5 9.5-13.4 0-6.1-2.7-13-9.4-13-7-.001-9.8 6.701-9.8 13.201zm37.5-7.901c0-4.5-.101-8.2-.3-11.6h8.6l.5 5.799h.2c1.7-3 5.899-6.699 12.399-6.699 6.801 0 13.801 4.4 13.801 16.699V402h-9.8v-22c0-5.601-2.1-9.8-7.399-9.8-3.9 0-6.601 2.8-7.7 5.8-.3.899-.4 2.101-.4 3.2v22.9H457.2v-27.4zm45.7 0c0-4.5-.101-8.2-.301-11.6h8.601l.5 5.799h.2c1.699-3 5.899-6.699 12.399-6.699 6.8 0 13.8 4.4 13.8 16.699V402h-9.8v-22c0-5.601-2.1-9.8-7.399-9.8-3.9 0-6.601 2.8-7.7 5.8-.3.899-.4 2.101-.4 3.2v22.9h-9.9v-27.4zm52.7 10.6c.2 7 5.801 10.1 12 10.1 4.601 0 7.801-.6 10.801-1.799l1.399 6.8c-3.399 1.399-8 2.399-13.6 2.399-12.601 0-20.101-7.8-20.101-19.699 0-10.801 6.601-21 19-21 12.601 0 16.801 10.399 16.801 19 0 1.799-.2 3.299-.301 4.199H555.6zm17.2-6.901c.101-3.6-1.5-9.5-8.1-9.5-6.101 0-8.601 5.5-9 9.5h17.1zm45.8 22.401c-2.1 1-6.199 2-11 2-12.199 0-20.1-7.8-20.1-19.8 0-11.7 8-20.8 21.7-20.8 3.6 0 7.3.8 9.5 1.8l-1.8 7.399c-1.601-.699-3.9-1.5-7.4-1.5-7.5 0-12 5.5-11.9 12.601 0 8 5.2 12.601 11.9 12.601 3.4 0 5.8-.701 7.8-1.5l1.3 7.199zm19.8-48.8v11.101h9.399v7.399H638.4v17.2c0 4.699 1.3 7.199 5 7.199 1.699 0 3-.199 3.8-.5l.2 7.501c-1.4.6-4 1-7.101 1-3.6 0-6.6-1.2-8.5-3.2-2.1-2.2-3-5.801-3-10.9v-18.3h-5.6v-7.399h5.6V354.3l9.601-2.3zm23.2 33.3c.2 7 5.801 10.1 12 10.1 4.601 0 7.801-.6 10.801-1.799l1.399 6.8c-3.399 1.399-8 2.399-13.6 2.399-12.601 0-20.101-7.8-20.101-19.699 0-10.801 6.601-21 19-21 12.601 0 16.801 10.399 16.801 19 0 1.799-.2 3.299-.301 4.199H661.6zm17.2-6.901c.101-3.6-1.5-9.5-8.1-9.5-6.101 0-8.601 5.5-9 9.5h17.1zm53.1-33.199v45.9c0 4 .199 8.3.3 10.999h-8.8l-.4-6.2h-.2c-2.3 4.301-7 7.001-12.7 7.001-9.3 0-16.6-7.9-16.6-19.9-.1-13 8.1-20.8 17.4-20.8 5.399 0 9.199 2.199 11 5.1h.199v-22.1h9.801zm-9.9 34.1c0-.8-.1-1.8-.2-2.6-.899-3.801-4-7-8.5-7-6.3 0-9.8 5.6-9.8 12.9 0 7.1 3.5 12.299 9.8 12.299 4 0 7.5-2.699 8.5-7 .2-.899.3-1.799.3-2.899l-.1-5.7z" fill="#F2F2F2"/>
</svg>
