<svg xmlns="http://www.w3.org/2000/svg" width="28.4" height="46.7" viewBox="0 0 28.4 46.7">
    <path fill="#FFF" d="M14.2 1.701c6.9 0 12.5 5.6 12.5 12.5V32.5c0 6.9-5.6 12.5-12.5 12.5S1.7 39.4 1.7 32.5V14.201c0-6.901 5.6-12.5 12.5-12.5M14.2 0C6.4 0 0 6.4 0 14.201V32.5c0 7.8 6.4 14.201 14.2 14.201S28.4 40.3 28.4 32.5V14.201C28.4 6.4 22 0 14.2 0z"/>
    <path fill="#EFEEE5" d="M14.2 1.701c-6.9 0-12.5 5.6-12.5 12.5V32.5C1.7 39.4 7.3 45 14.2 45s12.5-5.6 12.5-12.5V14.201c0-6.901-5.6-12.5-12.5-12.5z"/>
</svg>
