<svg xmlns="http://www.w3.org/2000/svg" width="286" height="94" viewBox="0 0 286 94">
    <path fill="#0F0F0F" d="M47 92.5C21.9 92.5 1.5 72.1 1.5 47S21.899 1.5 47 1.5 92.5 21.9 92.5 47 72.1 92.5 47 92.5z"/>
    <path fill="#121212" d="M47 3c24.3 0 44 19.7 44 44S71.3 91 47 91 3 71.3 3 47 22.7 3 47 3m0-3C21 0 0 21 0 47s21 47 47 47 47-21 47-47S73 0 47 0z"/>
    <circle fill="#141414" cx="47" cy="47" r="27.3"/>
    <path fill="#F0F0F0" d="M239 92.5c-25.101 0-45.5-20.4-45.5-45.5S213.899 1.5 239 1.5c25.1 0 45.5 20.4 45.5 45.5S264.1 92.5 239 92.5z"/>
    <path fill="#EDEDED" d="M239 3c24.299 0 44 19.7 44 44s-19.701 44-44 44c-24.301 0-44-19.7-44-44s19.699-44 44-44m0-3c-26 0-47 21-47 47s21 47 47 47 47-21 47-47-21-47-47-47z"/>
    <circle fill="#EBEBEB" cx="239" cy="47" r="27.3"/>
    <path fill="#F0F0F0" d="M143 92.5c-25.1 0-45.5-20.4-45.5-45.5S117.9 1.5 143 1.5s45.5 20.4 45.5 45.5-20.4 45.5-45.5 45.5z"/>
    <path fill="#EDEDED" d="M143 3c24.299 0 44 19.7 44 44s-19.701 44-44 44c-24.3 0-44-19.7-44-44s19.7-44 44-44m0-3c-26 0-47 21-47 47s21 47 47 47 47-21 47-47-21-47-47-47z"/>
    <circle fill="#EBEBEB" cx="143" cy="47" r="27.3"/>
</svg>
