<svg xmlns="http://www.w3.org/2000/svg" width="199.9" height="90.8" viewBox="0 0 199.9 90.8">
    <path fill="#EDEDED" d="M199.95 90.799s-32.7-3.199-50.601-3.199c-17.899 0-48.399 2.4-48.399 2.4s3.1-44.701 4.8-52c1.7-7.301 7.7-21.301 16.9-27.9 9.199-6.6 12-10.1 22.8-10.1s25.399 6.4 34.6 21.4 19.9 69.399 19.9 69.399z"/>
    <path fill="#F5F5F5" d="M101.45 83.2s26.1-4.4 49-4.4c22.8 0 47.899 4.4 47.899 4.4 1 4.699 1.601 7.6 1.601 7.6s-32.7-3.199-50.601-3.199c-17.899 0-48.399 2.4-48.399 2.4s.2-2.702.5-6.801z"/>
    <path d="M151.45 65.7a686.83 686.83 0 0 0-3.2 2.6c-1.2 1.201-1.9 2.701-2 4.5h9.8v-2.6h-6.2c.301-.5 1-1.199 2.101-1.9 1.399-.9 2.3-1.6 2.7-2.1.899-1 1.3-2.1 1.3-3.301 0-1.398-.5-2.5-1.4-3.299-.899-.801-2.1-1.201-3.5-1.201-3.1 0-4.7 1.701-4.7 5h2.7c0-1.799.7-2.699 2.101-2.699 1.3 0 2 .699 2 2.1.098 1.099-.502 1.999-1.702 2.9zm-17.5 1.5h3c1.5 0 2.3.6 2.399 1.9.101 1.199.2 2.5.301 3.799h3.3V72.5c-.5-.201-.7-.701-.7-1.5 0-.201 0-.4.1-.801V69.5c0-1.701-.6-2.9-1.8-3.5 1.4-.5 2.2-1.602 2.2-3.4 0-1.301-.4-2.301-1.3-3-.8-.701-1.9-1-3.2-1h-7.3v14.299h3V67.2zm0-6.2h3.7c1.399 0 2.1.6 2.1 1.898 0 1.301-.8 1.9-2.3 1.9h-3.5V61z" opacity=".08"/>
    <path fill="#EDEDED" d="M.05 90.799S32.75 87.6 50.651 87.6c17.899 0 48.3 2.4 48.3 2.4s-3.101-44.701-4.8-52c-1.7-7.301-7.7-21.301-16.9-27.9S65.349 0 54.55 0s-25.4 6.4-34.6 21.4S.05 90.799.05 90.799z"/>
    <path fill="#F5F5F5" d="M98.45 83.2s-26.101-4.4-49-4.4c-22.8 0-47.9 4.4-47.9 4.4-1 4.699-1.6 7.6-1.6 7.6s32.7-3.199 50.6-3.199 48.4 2.4 48.4 2.4-.101-2.702-.5-6.801z"/>
    <path d="M64.55 65.7c-2.1 1.699-3.2 2.6-3.2 2.6-1.199 1.201-1.899 2.701-2 4.5h9.7v-2.6h-6.2c.301-.5 1-1.199 2.101-1.9 1.399-.9 2.3-1.6 2.7-2.1.899-1 1.3-2.1 1.3-3.301 0-1.398-.5-2.5-1.4-3.299-.899-.801-2.1-1.201-3.5-1.201-3.1 0-4.7 1.701-4.7 5h2.7c0-1.799.7-2.699 2.101-2.699 1.3 0 2 .699 2 2.1.098 1.099-.402 1.999-1.602 2.9zm-8.5 4.5h-7.1V58.5h-3v14.299h10.1z" opacity=".08"/>
</svg>
