<svg xmlns="http://www.w3.org/2000/svg" width="750" height="630.455" viewBox="0 0 750 630.455">
    <path fill="#E6E6E6" d="M664.368 213.96c-6.72-16.682-20.542-20.877-21.818-22.003-11.701-10.336-2.474-21.214-19.946-30.695-18.28-9.914-71.979-36.997-114.22-31.375-9.225 1.235-27.837 17.608-41.214 17.608H282.84c-13.377 0-31.99-16.374-41.215-17.608-42.248-5.622-95.939 21.461-114.22 31.375-17.472 9.481-8.243 20.359-19.941 30.695-1.281 1.125-15.104 5.321-21.823 22.003C22.889 369.983-1.741 469.114.095 529.129c2.891 94.416 76.578 101.326 76.578 101.326 37.033-8.617 111.55-129.135 168.535-129.135h259.594c56.985 0 131.502 120.518 168.538 129.135 0 0 73.678-6.91 76.563-101.326 1.864-60.015-22.81-159.146-85.535-315.169z"/>
    <path fill="none" d="M106.249 192.642c.541-.289.941-.487 1.155-.65-.39.223-.771.423-1.155.65zm536.31-.676c.215.177.755.435 1.527.819-.491-.271-1.017-.542-1.527-.819z"/>
    <path fill="#E6E6E6" d="M664.368 213.96c-3.344-8.304-8.445-13.518-12.892-16.797-3.023-2.237-5.734-3.563-7.392-4.378-.772-.384-1.313-.642-1.527-.819-33.564-18.007-97.459-38.153-117.479-34.305-26.01 5.024-65.536 79.714-88.969 79.714H315.124c-23.435 0-62.966-74.69-88.973-79.714-19.583-3.779-85.589 16.456-118.749 34.331-.214.163-.614.362-1.155.65-1.761.849-5.067 2.418-8.698 5.268-4.194 3.308-8.812 8.352-11.911 16.051C22.889 369.983-1.741 469.114.095 529.129c2.891 94.416 76.578 101.326 76.578 101.326 37.033-8.617 111.55-129.135 168.535-129.135h259.594c56.985 0 131.502 120.518 168.538 129.135 0 0 73.678-6.91 76.563-101.326 1.864-60.015-22.81-159.146-85.535-315.169z"/>
    <path fill="none" d="M107.464 191.957v1.562m535.086-2.047v.95"/>
    <path fill="#EBEBEB" d="M277.671 462.114c-33.437 0-60.64-27.197-60.64-60.627 0-33.428 27.203-60.623 60.64-60.623 33.428 0 60.624 27.195 60.624 60.623 0 33.43-27.196 60.627-60.624 60.627z"/>
    <path fill="#DEDEDE" d="M277.671 341.865c32.876 0 59.624 26.747 59.624 59.623 0 32.878-26.747 59.627-59.624 59.627-32.885 0-59.64-26.749-59.64-59.627.001-32.878 26.755-59.623 59.64-59.623m0-2c-34.036 0-61.64 27.577-61.64 61.623 0 34.05 27.604 61.627 61.64 61.627 34.037 0 61.624-27.577 61.624-61.627 0-34.046-27.587-61.623-61.624-61.623z"/>
    <path fill="#141414" d="M277.671 452.698c-7.132 0-12.742-1.323-13.049-3.078a.926.926 0 0 1-.014-.148v-34.424a.5.5 0 0 0-.5-.5h-34.42c-1.82 0-3.246-5.735-3.246-13.057s1.426-13.057 3.246-13.057h34.42a.5.5 0 0 0 .5-.5v-34.427c0-.043.007-.093.014-.142l.06-.227c.029-.041.066-.107.082-.134.495-.81 2.105-1.517 4.535-1.991a28.2 28.2 0 0 1 .889-.183c.317-.062.637-.106.958-.136.055-.004.108-.014.162-.025.255-.029.579-.072.907-.111.679-.08 1.359-.145 2.041-.191l2.369-.077c.353-.008.701-.013 1.047-.013 7.325 0 13.063 1.418 13.063 3.229l.001 34.427a.5.5 0 0 0 .5.5h34.419c1.809 0 3.226 5.734 3.226 13.057s-1.417 13.057-3.226 13.057h-34.419a.5.5 0 0 0-.5.5v34.424a.943.943 0 0 1-.015.152c-.306 1.752-5.917 3.075-13.05 3.075z"/>
    <path fill="#120B0B" d="M277.671 350.781c8.089 0 12.563 1.612 12.563 2.729l.001.044v34.383a1 1 0 0 0 1 1h34.419c1.138 0 2.726 4.776 2.726 12.556 0 7.78-1.588 12.557-2.726 12.557h-34.419a1 1 0 0 0-1 1v34.423c0 .021-.004.046-.006.063-.195 1.117-4.668 2.664-12.558 2.664-7.889 0-12.361-1.547-12.556-2.656-.004-.027-.008-.054-.008-.07V415.05a1 1 0 0 0-1-1h-34.42c-1.146 0-2.746-4.775-2.746-12.556s1.6-12.559 2.747-12.559h34.419a1 1 0 0 0 1-1v-34.422c0-.021.004-.043.004-.043l.002-.011.001-.003c.013-.035.029-.094.04-.135l.036-.055c.153-.25.906-1.113 4.186-1.759.296-.067.594-.128.893-.183l.082-.014c.263-.051.528-.09.795-.115a1.08 1.08 0 0 0 .188-.02c.309-.042.612-.082.919-.119l.024-.002a37.775 37.775 0 0 1 2.007-.188l.117-.007c.19-.008.382-.012.575-.017l.395-.01c.382-.017.765-.029 1.148-.04l.124-.001c.341-.006.685-.011 1.028-.01m0-1.001c-.392 0-.785.005-1.177.015-.387.011-.773.024-1.16.041-.327.011-.654.015-.977.028l-.138.007a34.9 34.9 0 0 0-.996.081c-.014.001-.027.003-.041.003-.348.032-.691.069-1.027.11h-.002c-.35.042-.699.087-1.048.135a9 9 0 0 0-.938.13l-.074.012c-.301.058-.596.116-.88.181l-.013.002c-2.427.476-4.25 1.215-4.865 2.223a.597.597 0 0 0-.106.165l-.009.017c-.017.061-.03.121-.045.184l-.017.041a1.422 1.422 0 0 0-.053.358v34.426h-34.42c-4.995 0-4.995 27.113 0 27.113h34.42v34.424c0 .07.007.152.021.234.408 2.329 6.975 3.491 13.542 3.491 6.568 0 13.135-1.162 13.542-3.491.014-.082.021-.165.021-.234V415.05h34.419c4.967 0 4.967-27.113 0-27.113h-34.419v-34.424h-.001v-.002c.004-2.503-6.792-3.731-13.559-3.731z"/>
    <path fill="#242424" d="M264.108 387.937l-3.602-3.625h-30.817c-.863 0-1.822.226-2.784.846l2.784 2.777c-.001.002 15.454.002 34.419.002z"/>
    <path fill="#292929" d="M229.688 387.937l-2.783-2.778c-1.367.93-2.679 2.739-3.525 6.143-.664 2.746-1.032 6.358-1.032 10.188 0 3.835.368 7.446 1.032 10.192.845 3.402 2.158 5.212 3.525 6.144l2.783-2.774c-4.996-.003-4.996-27.115 0-27.115z"/>
    <path fill="#242424" d="M269.202 350.524l.013-.002c.284-.064.579-.125.88-.182l.074-.012c.33-.063.663-.109.997-.137.333-.045.658-.088.989-.129h.002c.336-.041.679-.076 1.027-.109.014 0 .027-.002.041-.003.377-.034.755-.063 1.134-.089.323-.014.649-.018.977-.027.387-.018.773-.031 1.16-.041l.125-.002c.35-.008.702-.012 1.052-.012 6.768 0 13.563 1.227 13.563 3.729l2.755-2.771c-.901-1.367-2.713-2.709-6.144-3.524-2.743-.673-6.357-1.036-10.175-1.036-3.846 0-7.459.362-10.18 1.036-2.939.718-4.715 1.796-5.725 2.963l2.57 2.57c.616-1.007 2.438-1.747 4.865-2.222z"/>
    <path fill="#191919" d="M325.655 387.937l2.755-2.778a4.98 4.98 0 0 0-2.755-.847h-30.819l-3.601 3.625h34.42z"/>
    <path fill="#1C1C1C" d="M291.234 353.51l.001 34.425 3.601-3.625v-30.8a4.98 4.98 0 0 0-.846-2.772l-2.756 2.772z"/>
    <path fill="#292929" d="M264.108 353.509c.002-.121.02-.241.053-.357l.017-.041c.015-.063.028-.123.045-.184l.009-.017a.597.597 0 0 1 .106-.165l-2.57-2.57c-.969 1.121-1.261 2.293-1.261 3.333v30.802l3.602 3.625-.001-34.426z"/>
    <path fill="#171717" d="M325.654 415.049h-34.419l3.6 3.62h32.315l.34-.345c.308-.128.617-.303.925-.498l-2.761-2.777z"/>
    <path fill="#0F0F0F" d="M291.235 449.473l2.754 2.771c.624-.945.846-1.92.846-2.771v-30.804l-3.6-3.62v34.424zm40.728-58.173c-.845-3.402-2.181-5.213-3.553-6.143l-2.755 2.777c4.967 0 4.967 27.113 0 27.113l2.76 2.777c1.369-.931 2.705-2.747 3.548-6.147.664-2.746 1.032-6.356 1.032-10.191 0-3.829-.368-7.441-1.032-10.186z"/>
    <path fill="#171717" d="M291.214 449.707c-.407 2.329-6.975 3.491-13.542 3.491s-13.134-1.162-13.542-3.491a1.404 1.404 0 0 1-.021-.234l-2.785 2.771c.929 1.367 2.743 2.702 6.168 3.521 2.721.672 6.333 1.041 10.18 1.041 3.818 0 7.432-.369 10.175-1.041 3.43-.819 5.243-2.156 6.143-3.523l-2.754-2.771c-.002.08-.009.158-.022.236z"/>
    <path fill="#1C1C1C" d="M264.108 449.473v-34.424l-3.602 3.62v31.65l.093.235c.128.545.345 1.119.724 1.689l2.785-2.77z"/>
    <path fill="#1A1A1A" d="M229.688 415.049l-2.783 2.774c.961.62 1.92.846 2.783.846h30.818l3.602-3.62h-34.42z"/>
    <path fill="#1A1615" d="M448.915 280.366c0 10.397-8.42 18.817-18.789 18.817-10.398 0-18.819-8.42-18.819-18.817 0-10.371 8.421-18.805 18.819-18.805 10.369.001 18.789 8.434 18.789 18.805z"/>
    <path fill="#0A0A0A" stroke="#000" stroke-miterlimit="10" d="M446.228 280.366c0 8.902-7.229 16.103-16.102 16.103-8.902 0-16.103-7.201-16.103-16.103 0-8.896 7.2-16.103 16.103-16.103 8.873.001 16.102 7.208 16.102 16.103z"/>
    <path fill="#6D6B6C" d="M422.931 275.741h14.361v1.552h-14.361v-1.552zm0 3.919h14.361v1.552h-14.361v-1.552zm0 3.809h14.361v1.533h-14.361v-1.533z"/>
    <path fill="#1A1615" d="M340.938 280.366c0 10.397-8.422 18.817-18.819 18.817-10.368 0-18.789-8.42-18.789-18.817 0-10.371 8.42-18.805 18.789-18.805 10.397.001 18.819 8.434 18.819 18.805z"/>
    <path fill="#0A0A0A" stroke="#000" stroke-miterlimit="10" d="M338.221 280.366c0 8.902-7.201 16.103-16.103 16.103-8.872 0-16.104-7.201-16.104-16.103 0-8.896 7.231-16.103 16.104-16.103 8.902.001 16.103 7.208 16.103 16.103z"/>
    <g fill="#6D6B6C">
        <path d="M319.602 280.266h-3.03v-3.785h5.472v1.321h1.8v-3.059h-8.891v7.389h4.649v-1.866z"/>
        <path d="M320.353 278.427v7.584h8.96v-7.584h-8.96zm7.16 5.783h-5.47v-3.945h5.47v3.945z"/>
    </g>
    <g stroke-width="2" stroke-miterlimit="10">
        <path fill="#E6E6E6" stroke="#DEDEDE" d="M185.468 351.49c-37.328 0-67.695-30.365-67.695-67.688 0-37.323 30.366-67.686 67.695-67.686 37.336 0 67.707 30.363 67.707 67.686 0 37.323-30.37 67.688-67.707 67.688z"/>
        <path stroke="#120B0B" d="M241.571 279.865c0 30.977-25.106 56.084-56.103 56.084-30.981 0-56.092-25.107-56.092-56.084 0-31 25.111-56.106 56.092-56.106 30.997 0 56.103 25.106 56.103 56.106z"/>
    </g>
    <g stroke-width="2" stroke-miterlimit="10">
        <path fill="#E6E6E6" stroke="#DEDEDE" d="M473.042 465.461c-37.324 0-67.688-30.364-67.688-67.686 0-37.326 30.363-67.706 67.688-67.706 37.322 0 67.707 30.379 67.707 67.706 0 37.323-30.385 67.686-67.707 67.686z"/>
        <path stroke="#120B0B" d="M529.151 393.815c0 30.999-25.106 56.104-56.109 56.104-30.975 0-56.083-25.105-56.083-56.104 0-30.979 25.108-56.086 56.083-56.086 31.003 0 56.109 25.107 56.109 56.086z"/>
    </g>
    <path fill="#0A0A0A" d="M566.491 354.511c-13.786 0-25.002-11.221-25.002-25.013 0-13.791 11.216-25.009 25.002-25.009 13.796 0 25.02 11.218 25.02 25.009s-11.224 25.013-25.02 25.013z"/>
    <path fill="#1A1615" d="M566.491 305.978c13.004 0 23.531 10.526 23.531 23.52 0 12.996-10.527 23.524-23.531 23.524-12.985 0-23.514-10.527-23.514-23.524 0-12.994 10.529-23.52 23.514-23.52m0-2.978C551.884 303 540 314.887 540 329.498 540 344.11 551.885 356 566.491 356 581.108 356 593 344.11 593 329.498 593 314.887 581.108 303 566.491 303z"/>
    <path fill="#0A0A0A" d="M566.491 253.51c-13.786 0-25.002-11.224-25.002-25.021 0-13.786 11.216-25.001 25.002-25.001 13.796 0 25.02 11.216 25.02 25.001 0 13.798-11.224 25.021-25.02 25.021z"/>
    <path fill="#1A1615" d="M566.491 204.978c13.004 0 23.531 10.527 23.531 23.512 0 13.004-10.527 23.532-23.531 23.532-12.985 0-23.514-10.528-23.514-23.532 0-12.985 10.529-23.512 23.514-23.512m0-2.978C551.884 202 540 213.884 540 228.49c0 14.617 11.885 26.51 26.491 26.51C581.108 255 593 243.107 593 228.49c0-14.607-11.892-26.49-26.509-26.49z"/>
    <path fill="#0A0A0A" d="M516.486 304.511c-13.784 0-24.997-11.224-24.997-25.019 0-13.788 11.213-25.004 24.997-25.004 13.799 0 25.024 11.217 25.024 25.004.001 13.796-11.225 25.019-25.024 25.019z"/>
    <path fill="#1A1615" d="M516.486 255.978c13.009 0 23.536 10.527 23.536 23.515 0 13.002-10.526 23.529-23.536 23.529-12.98 0-23.509-10.527-23.509-23.529.001-12.988 10.529-23.515 23.509-23.515m0-2.978C501.882 253 490 264.885 490 279.493 490 294.109 501.882 306 516.486 306c14.62 0 26.514-11.891 26.514-26.507C543 264.885 531.105 253 516.486 253z"/>
    <path fill="#1A1A1A" d="M375.615 156.499s-88.917-1.067-100.548-2.973l-16.384 30.538c20.238 23.271 41.583 53.312 56.441 53.312H436.11c14.872 0 36.196-30.041 56.463-53.312l-16.383-30.538c-11.63 1.905-100.575 2.973-100.575 2.973z"/>
    <path fill="#0D0D0D" d="M476.191 153.526l-3.639-6.778c-1.855.48-3.652.748-5.384.748h-184.33c-1.392 0-2.818-.189-4.282-.501l-3.49 6.531c11.631 1.905 100.548 2.973 100.548 2.973s88.946-1.068 100.577-2.973z"/>
    <path fill="#1A1A1A" d="M642.55 191.957c-8.979-7.938-5.636-16.16-11.469-23.844.24.326.486.652.698.979-.028-.013-96.527-42.059-120.801-34.478-15.568 4.869-27.241 15.331-32.83 18.224l15.876 29.583c11.169-12.678 21.941-23.005 31.057-24.761 20.02-3.848 83.914 16.298 117.479 34.305-.003-.001-.007-.005-.01-.008z"/>
    <path fill="#0D0D0D" d="M510.979 134.615c24.273-7.582 120.772 34.465 120.801 34.478-.212-.328-.458-.654-.698-.979-.029-.039-.063-.078-.091-.117a7.849 7.849 0 0 0-.428-.536c-.085-.093-.17-.212-.273-.332-.055-.051-.108-.097-.155-.159a1.71 1.71 0 0 0-.282-.301c-.063-.067-.112-.136-.166-.204-.1-.104-.2-.18-.289-.286a1.386 1.386 0 0 0-.199-.199c-.104-.083-.19-.185-.286-.287-.077-.069-.155-.117-.23-.188a1.613 1.613 0 0 0-.304-.279c-.076-.063-.142-.137-.223-.21-.113-.097-.218-.168-.316-.263a15.42 15.42 0 0 0-.6-.482 1.448 1.448 0 0 0-.265-.195c-.124-.096-.227-.19-.354-.28-.097-.05-.177-.125-.272-.199a7.068 7.068 0 0 0-.381-.258 3.608 3.608 0 0 1-.289-.22c-.143-.082-.29-.165-.41-.262-.106-.071-.211-.142-.298-.192a5.502 5.502 0 0 1-.45-.293c-.108-.055-.209-.104-.295-.171-.183-.111-.352-.22-.532-.303-.095-.056-.167-.112-.256-.167-.277-.151-.558-.302-.833-.467-18.281-9.914-71.979-36.997-114.221-31.375-7.608 1.005-21.634 12.342-33.819 16.281l3.583 6.671c5.588-2.895 17.261-13.357 32.831-18.226zm-269.354-4.728c-42.248-5.622-95.939 21.461-114.22 31.375-.274.164-.557.313-.828.464-.083.054-.157.11-.25.164-.183.083-.351.192-.533.303-.09.066-.188.123-.29.168a7.994 7.994 0 0 1-.452.297c-.084.046-.183.113-.288.182-.133.1-.273.189-.419.268-.082.068-.17.137-.269.206-.134.087-.259.171-.397.27-.091.068-.163.137-.251.19a3.528 3.528 0 0 0-.377.29c-.088.061-.173.106-.244.172a5.237 5.237 0 0 1-.362.287c-.067.059-.147.125-.226.191-.116.105-.224.184-.348.288a3.147 3.147 0 0 0-.193.19c-.118.081-.24.189-.341.299a1.104 1.104 0 0 1-.186.154c-.12.112-.214.226-.326.325a1.294 1.294 0 0 0-.167.155c-.095.119-.209.221-.323.328a2.37 2.37 0 0 0-.125.156 3.144 3.144 0 0 0-.325.348.615.615 0 0 1-.107.121 4.841 4.841 0 0 0-.315.37.938.938 0 0 0-.095.104c-.118.145-.219.266-.315.403a5.159 5.159 0 0 1-.068.087c-.119.138-.216.285-.321.442a.362.362 0 0 1-.036.042c-.124.152-.227.328-.333.473.025-.01 97.688-41.961 121.984-34.379 15.54 4.869 27.223 15.331 32.802 18.224l3.423-6.342c-12.411-3.594-27.031-15.578-34.879-16.615z"/>
    <path fill="#1A1A1A" d="M273.57 153.096l.464.187c-.158-.064-.307-.126-.464-.187zm-.473-.249c-5.579-2.882-17.262-13.358-32.815-18.231-24.208-7.554-121.307 34.092-121.977 34.376-4.971 7.435-2.211 15.331-10.841 22.966-.016.013-.042.023-.06.034 33.159-17.875 99.165-38.11 118.749-34.331 9.123 1.756 19.905 12.083 31.08 24.761l15.851-29.583.013.008z"/>
    <path d="M273.097 152.847c.172.088.313.173.473.249-.161-.077-.301-.161-.473-.249z"/>
    <path d="M257.959 183.228c.234.296.466.565.725.835l16.384-30.538 3.49-6.531c-.344-.066-.688-.131-1.038-.226-.335-.092-.673-.19-1.013-.271l-3.423 6.342-15.851 29.583c.235.268.467.535.726.806m220.188-30.389l-3.583-6.671c-.333.093-.666.207-.996.311-.339.089-.679.176-1.016.27l3.639 6.778 16.383 30.538c.231-.27.492-.539.723-.836.232-.27.494-.537.727-.805l-15.877-29.585z"/>
    <path fill="#1A1A1A" d="M356.946 169.294l-.003.002.003-.002z"/>
    <path fill="#FFF" d="M407.579 196.412c0 17.993-14.58 32.577-32.574 32.577-17.995 0-32.574-14.584-32.574-32.577 0-17.983 14.579-32.575 32.574-32.575 17.994 0 32.574 14.592 32.574 32.575z"/>
    <path fill="#1A1A1A" d="M384.006 182.009s8.933-9.444 13.77-8.876l-.007-.006a36.354 36.354 0 0 0-2.262-2.018.059.059 0 0 1-.022-.012 19.613 19.613 0 0 0-1.182-.909c-.024-.019-.05-.036-.062-.054-.386-.278-.771-.549-1.173-.835l-.004-.003c-.38-.06-.776-.125-1.188-.166-5.25-.494-16.869 4.511-16.869 4.511s-11.62-5.005-16.869-4.511c-.413.041-.81.105-1.188.166l-.003.002c-.407.29-.795.563-1.18.843a.306.306 0 0 1-.056.046c-.407.291-.804.597-1.188.916l-.017.007a35.958 35.958 0 0 0-2.269 2.023v.001c4.836-.567 13.768 8.877 13.768 8.877s-17.732 20.884-16.965 34.084c1.1 1.435 2.31 2.78 3.618 4.026-.44-11.992 22.349-30.134 22.349-30.134s22.789 18.14 22.35 30.134a34.17 34.17 0 0 0 3.576-3.98.462.462 0 0 0 .041-.046c.764-13.202-16.968-34.086-16.968-34.086zM549.08 5.466a23.553 23.553 0 0 0-1.211-.899l-2.347 109.995 53.272 7.234C586.729 4.974 555.822 10.762 549.08 5.466z"/>
    <path fill="#141414" d="M522.043.142c-10.823.403-12.063 11.439-12.182 15.19v1.227s2.899 40.716 0 93.094c9.926 2.289 38.535 5.298 38.535 5.298s.034-20.914.685-50.596c.802-37.501-1.211-59.788-1.211-59.788C541.453.091 534.302-.307 522.043.142z"/>
    <path fill="#1A1A1A" d="M200.996 5.466c.401-.319.805-.618 1.211-.899l2.322 109.995-53.248 7.234C163.348 4.974 194.24 10.762 200.996 5.466z"/>
    <path fill="#141414" d="M228.022.142c10.833.403 12.069 11.439 12.193 15.19v1.227s-2.901 40.716 0 93.094c-9.926 2.289-38.539 5.298-38.539 5.298s-.051-20.914-.68-50.596c-.811-37.501 1.211-59.788 1.211-59.788C208.624.091 215.773-.307 228.022.142z"/>
    <path fill="#0A0A0A" d="M616.493 304.511c-13.787 0-25.004-11.224-25.004-25.018 0-13.789 11.217-25.004 25.004-25.004 13.795 0 25.018 11.217 25.018 25.004 0 13.795-11.223 25.018-25.018 25.018z"/>
    <path fill="#1A1615" d="M616.493 255.978c13 0 23.529 10.527 23.529 23.516 0 13.002-10.529 23.529-23.529 23.529-12.988 0-23.516-10.527-23.516-23.529 0-12.989 10.528-23.516 23.516-23.516m0-2.978C601.885 253 590 264.885 590 279.493 590 294.109 601.885 306 616.493 306 631.109 306 643 294.109 643 279.493 643 264.885 631.109 253 616.493 253z"/>
</svg>
