<svg xmlns="http://www.w3.org/2000/svg" width="171.154" height="62.864" viewBox="0 0 171.154 62.864">
    <path fill="#F2F2F2" d="M134.221.76C91.974-4.862 38.282 22.221 20.001 32.135c-.274.164-.557.313-.828.464-.083.054-.157.11-.25.164-.183.083-.351.192-.533.303a1.621 1.621 0 0 1-.29.168 8.024 8.024 0 0 1-.452.297c-.084.046-.183.113-.288.182a3.428 3.428 0 0 1-.419.268c-.082.068-.17.137-.269.206-.134.087-.259.171-.397.27-.091.068-.163.137-.251.19a3.393 3.393 0 0 0-.377.29c-.088.061-.173.106-.244.172a5.2 5.2 0 0 1-.362.287c-.067.059-.147.125-.226.191-.116.105-.224.184-.348.288a2.907 2.907 0 0 0-.193.19c-.118.081-.24.189-.341.299a1.08 1.08 0 0 1-.186.154c-.12.112-.214.226-.326.325a1.264 1.264 0 0 0-.167.155c-.095.119-.209.221-.323.328a2.439 2.439 0 0 0-.125.156 3.162 3.162 0 0 0-.325.348.626.626 0 0 1-.107.121 4.513 4.513 0 0 0-.315.37.972.972 0 0 0-.095.104c-.118.144-.219.266-.315.403a5.159 5.159 0 0 1-.068.087c-.119.138-.216.285-.321.442a.304.304 0 0 1-.036.042c-.124.152-.227.328-.333.473.025-.01 97.688-41.961 121.984-34.379 15.54 4.869 27.223 15.331 32.802 18.224l3.423-6.342C156.689 13.781 142.069 1.797 134.221.76z"/>
    <path fill="#E5E5E5" d="M166.167 23.969l.464.187c-.159-.064-.308-.126-.464-.187zm-.474-.249c-5.579-2.882-17.262-13.358-32.815-18.231C108.67-2.066 11.571 39.581 10.901 39.864 5.931 47.299 8.69 55.195.06 62.83c-.016.013-.042.024-.06.034 33.159-17.875 99.165-38.11 118.749-34.331 9.123 1.756 19.905 12.083 31.08 24.761l15.851-29.583c.005.004.008.007.013.009z"/>
    <path fill="#FFF" d="M165.693 23.72c.172.088.313.173.473.249-.161-.077-.301-.161-.473-.249z"/>
    <path fill="#FFF" d="M150.555 54.101c.234.296.466.565.725.835l16.384-30.538 3.49-6.531c-.344-.066-.688-.131-1.038-.226-.335-.092-.673-.19-1.013-.271l-3.423 6.342-15.851 29.583c.235.268.467.535.726.806"/>
</svg>
