<svg xmlns="http://www.w3.org/2000/svg" width="212" height="106" viewBox="0 0 212 106">
    <path fill="#141414" d="M26.491 0C41.14 0 53 11.868 53 26.5 53 41.133 41.14 53 26.491 53 11.861 53 0 41.133 0 26.5 0 11.868 11.861 0 26.491 0z"/>
    <path fill="#39B54A" d="M35.251 41.654l-2.778-7.663H20.345L17.7 41.654h-5.481l11.467-30.309h5.583l11.512 30.309h-5.53zm-8.79-25.756h-.129c-.107.847-.238 1.577-.45 2.174l-4.137 11.68h9.293l-4.164-11.68c-.132-.366-.282-1.09-.413-2.174z"/>
    <path fill="#141414" d="M79.493.001c14.646 0 26.508 11.871 26.508 26.503S94.139 53.001 79.493 53.001C64.86 53.001 53 41.135 53 26.503S64.86.001 79.493.001z"/>
    <path fill="#C1272D" d="M89.699 32.828c0 2.628-.983 4.783-2.926 6.386-1.957 1.633-4.469 2.437-7.565 2.437h-9.907V11.35h9.571c2.898 0 5.194.646 6.867 1.884 1.686 1.266 2.522 2.952 2.522 5.089 0 1.646-.504 3.097-1.5 4.349-1.015 1.279-2.322 2.149-3.956 2.67v.091c2.164.273 3.842 1.075 5.068 2.372 1.201 1.326 1.826 2.98 1.826 5.023zM82.931 19.29c0-1.204-.454-2.144-1.332-2.795-.907-.648-2.225-.973-3.979-.973h-3.276v8.383h3.231c1.693 0 3.021-.399 3.955-1.201.925-.801 1.401-1.921 1.401-3.414zm1.433 13.402c0-1.449-.508-2.585-1.558-3.409-1.051-.813-2.596-1.206-4.674-1.206h-3.79v9.413h4.238c1.802 0 3.212-.438 4.237-1.308 1.045-.856 1.547-2.026 1.547-3.49z"/>
    <path fill="#141414" d="M185.49 0C200.141 0 212 11.876 212 26.504c0 14.631-11.859 26.497-26.51 26.497-14.631 0-26.49-11.866-26.49-26.497C159 11.876 170.859 0 185.49 0z"/>
    <path fill="#FCEE21" d="M187.897 30.663V41.65h-4.996V30.786l-9.848-19.437h5.721l6.096 12.646c.214.411.34.783.438 1.121.101.336.177.609.257.825h.045c.152-.66.387-1.3.694-1.903l6.323-12.689h5.318l-10.048 19.314z"/>
    <path fill="#141414" d="M132.484 0C147.141 0 159 11.872 159 26.503s-11.859 26.498-26.516 26.498C117.861 53.001 106 41.134 106 26.503S117.861 0 132.484 0z"/>
    <path fill="#0071BC" d="M139.613 41.65l-6.406-11.019a5.813 5.813 0 0 1-.309-.764 5.461 5.461 0 0 0-.212-.763h-.093c-.115.275-.189.523-.266.775a6.077 6.077 0 0 1-.338.75l-6.521 11.019h-6.123l10.137-15.188-9.259-15.111h6.187l5.4 9.954c.52.885.861 1.64 1.048 2.266h.073c.305-.793.537-1.311.656-1.56.108-.237 2.209-3.797 6.271-10.66h5.675l-9.459 15.02 9.58 15.281h-6.041z"/>
    <path fill="#FFF" d="M26.491 53C41.14 53 53 64.867 53 79.5S41.14 106 26.491 106C11.861 106 0 94.133 0 79.5S11.861 53 26.491 53z"/>
    <path fill="#39B54A" d="M35.251 94.654l-2.778-7.662H20.345L17.7 94.654h-5.481l11.467-30.309h5.583l11.513 30.309h-5.531zm-8.79-25.756h-.129c-.107.848-.238 1.578-.45 2.174l-4.138 11.68h9.293l-4.163-11.68c-.132-.365-.282-1.09-.413-2.174z"/>
    <path fill="#FFF" d="M79.493 53C94.139 53 106 64.871 106 79.504 106 94.134 94.139 106 79.493 106 64.86 106 53 94.133 53 79.501 53 64.871 64.86 53 79.493 53z"/>
    <path fill="#C1272D" d="M89.699 85.828c0 2.628-.984 4.783-2.925 6.386-1.957 1.633-4.47 2.438-7.566 2.438h-9.907V64.349h9.571c2.898 0 5.194.646 6.867 1.886 1.685 1.266 2.523 2.952 2.523 5.089 0 1.646-.504 3.097-1.5 4.349-1.015 1.279-2.322 2.149-3.956 2.671v.09c2.164.273 3.842 1.076 5.068 2.373 1.2 1.323 1.825 2.978 1.825 5.021zm-6.768-13.539c0-1.204-.454-2.144-1.332-2.795-.907-.649-2.225-.974-3.979-.974h-3.276v8.384h3.231c1.693 0 3.021-.399 3.955-1.201.925-.8 1.401-1.92 1.401-3.414zm1.433 13.403c0-1.449-.508-2.586-1.558-3.409-1.051-.813-2.596-1.206-4.674-1.206h-3.79v9.413h4.238c1.802 0 3.212-.438 4.237-1.308 1.045-.856 1.547-2.027 1.547-3.49z"/>
    <path fill="#FFF" d="M132.484 53C147.141 53 159 64.87 159 79.503 159 94.133 147.141 106 132.484 106 117.861 106 106 94.133 106 79.503 106 64.87 117.861 53 132.484 53z"/>
    <path fill="#0071BC" d="M139.615 94.651l-6.406-11.02a5.906 5.906 0 0 1-.311-.764 5.21 5.21 0 0 0-.211-.764h-.094c-.115.274-.188.522-.266.774a5.796 5.796 0 0 1-.336.75l-6.523 11.021h-6.123l10.137-15.189-9.26-15.111h6.188l5.4 9.955c.52.885.859 1.641 1.047 2.267h.074c.305-.793.535-1.312.656-1.562.107-.236 2.209-3.797 6.27-10.66h5.676l-9.459 15.021 9.58 15.281h-6.039v.001z"/>
    <path fill="#FFF" d="M185.49 53C200.141 53 212 64.874 212 79.504 212 94.136 200.141 106 185.49 106 170.859 106 159 94.136 159 79.504 159 64.874 170.859 53 185.49 53z"/>
    <path fill="#FCEE21" d="M187.897 83.662V94.65h-4.996V83.785l-9.848-19.436h5.721l6.096 12.646c.214.41.34.783.438 1.121.101.336.177.609.257.824h.045a8.27 8.27 0 0 1 .694-1.902l6.323-12.689h5.318l-10.048 19.313z"/>
</svg>
