<svg xmlns="http://www.w3.org/2000/svg" width="67.409" height="33.206" viewBox="0 0 67.409 33.206">
    <path fill="#F5F5F5" stroke="#FFF" stroke-miterlimit="10" d="M66.909 16.603c0 8.903-7.229 16.103-16.102 16.103-8.901 0-16.102-7.2-16.102-16.103C34.705 7.707 41.905.5 50.807.5c8.874 0 16.102 7.207 16.102 16.103z"/>
    <path d="M43.612 11.978h14.361v1.552H43.612zm0 3.918h14.361v1.552H43.612zm0 3.81h14.361v1.532H43.612z" fill="#929493"/>
    <path fill="#F5F5F5" stroke="#FFF" stroke-miterlimit="10" d="M32.706 16.603c0 8.903-7.201 16.103-16.103 16.103C7.731 32.706.5 25.506.5 16.603.5 7.707 7.731.5 16.603.5c8.902 0 16.103 7.207 16.103 16.103z"/>
    <g fill="#929493">
        <path d="M14.087 16.502h-3.031v-3.784h5.472v1.321h1.8v-3.06H9.437v7.39h4.65z"/>
        <path d="M14.837 14.663v7.584h8.96v-7.584h-8.96zm7.161 5.784h-5.47v-3.945h5.47v3.945z"/>
    </g>
</svg>
