<svg xmlns="http://www.w3.org/2000/svg" width="88.934" height="121.795" viewBox="0 0 88.934 121.795">
    <path fill="#E5E5E5" d="M74.809 56.17v-.669c.014.414 0 .669 0 .669zM49.752 5.475c.401-.319.806-.619 1.212-.9l2.324 110.179L0 122C12.075 4.982 42.991 10.78 49.752 5.475z"/>
    <path fill="#EBEBEB" d="M76.799.142C87.64.546 88.876 11.601 89 15.358v1.229s-2.902 40.784 0 93.251c-9.934 2.293-38.567 5.307-38.567 5.307s-.052-20.949-.681-50.682c-.812-37.564 1.212-59.888 1.212-59.888C57.386.091 64.54-.308 76.799.142z"/>
</svg>
