<svg xmlns="http://www.w3.org/2000/svg" viewBox="0 0 1200 698">
    <path fill="#e6e6e6"
        d="M344.3 131c-9 1.9-21.5 6.9-32.1 12.9-11.5 6.4-15.8 10.3-16.8 14.9-.3 1.5-.7 3.7-1 4.8-.3 1.6-1.6 2.5-4.8 3.3-4.2 1-4.8 1.6-10.6 10.9-8.3 13.3-21.7 40.6-28.9 58.7-23.5 59.6-36.7 124.8-43.3 213.5-1.7 22.5-1.7 106.2 0 130 .7 9.6 1.5 21.4 1.8 26.2.5 7.6 1 9.4 4.2 14.8 9.3 15.8 28.1 29.1 45.7 32.6 3.8.7 11.9 2.4 17.9 3.8 5.9 1.4 13.8 2.8 17.5 3.2 7.4.7 9.2-.3 10.5-6.1 1.4-5.5 9.6-27.2 17.5-46.2 18.1-43.5 31.9-72.5 44.3-93.5 10.8-18.4 26.7-33.8 40.1-39.1 6.5-2.5 18.2-2.6 48.7-.3 32.9 2.4 265.1 2.3 288.5-.2 23.8-2.5 36.1-2.2 45.9 1.2 4.3 1.5 9.8 4 12.1 5.6 5.7 3.9 21.5 22 27.7 31.6 12 18.8 27 53.5 48.4 112.4 7.6 20.7 10.5 27 14.3 30.4 1.8 1.7 3.5 1.8 18.8 1.4 16.5-.4 17-.5 28.5-4.5 16.8-5.8 28.2-13.2 37.6-24.7 8.2-9.9 9-12.4 10.2-30.6 4.3-67.2 3.6-131.6-2-185.5-6.9-67-20.4-126-40.1-176-7.2-18.1-20.6-45.4-28.9-58.7-5-8.1-6.6-9.9-9.3-10.6-2.8-.7-3.3-1.4-4.3-5.8-2.2-9.2-2.9-9.9-19.5-18.8-11.9-6.3-21.3-9.9-30.9-11.6-7.4-1.4-48.3-.4-51.3 1.2-2.9 1.5-5.7 7-5.7 11v3.7l-18.2-.5c-22.7-.6-28.6-1-30.1-2.2-2.8-2.3-47.9-6.4-90-8.2-29.7-1.3-119.7-1.3-132.9 0-5.7.6-15.2 1.5-21.3 2.1-6 .6-14.4 1.4-18.5 1.9s-12.9 1.4-19.5 2c-6.6.7-13.7 1.8-15.7 2.6-2.7 1-10 1.4-25 1.6l-21.3.3-.1-3.7c-.1-4.1-2.3-8-5.7-10.2-2.7-1.7-45.6-3-52.4-1.6z" />
    <path fill="#1a1a1a"
        d="M398.1 121.37q-48.86-8.04-97.8.15 4.84-24.2 11.45-45.52 1.69-5.44 4.72-12.11 8.27-18.18 26.78-24.64 6.77-2.36 13.97-1.62 4.95.51 9.9 3.4 5.03 2.94 10.19 7.16 4.69 3.83 7.39 7.65 8.11 11.47 10.05 25.41 1.42 10.19 3.35 40.12Zm-35.24-13.34q.86-1.03 3.08-2.59 3.49-2.46 2.17-5.66-1.05-2.52-3.89-3.14-4.14-.91-5.58 3.88a.68.65-65.1 0 0 .26.77q1.91 1.22 2.79-1.1 1.02-2.7 2.75-1.13 1.51 1.38.95 2.95-.29.8-1.82 1.97-2.76 2.11-4.58 5.21a1.19 1.19 15.7 0 0 1.01 1.8q3.56.05 6.72-.03.92-.03 1.37-.34.82-.58.34-1.62a.87.76-9.9 0 0-.75-.45l-4.62-.1q-.54-.01-.2-.42Zm-17.7-10.34-.12 12.18a1.16 1.12.2 0 0 1.16 1.13h7.03q1.03 0 1.5-.25.96-.52.43-1.74a.81.76-9.9 0 0-.72-.47l-5.73-.04a.71.69 0 0 1-.71-.69V97.75a.98.84-76.7 0 0-.41-.8q-.99-.61-1.98-.05a.95.88 76.8 0 0-.45.79Zm550.82 23.71q-19.2-2.44-38.55-3.43-10.39-.53-19.99-.2-13.21.46-22.25 1.79-8.43 1.25-16.9 2.19 1.39-22.42 3.21-38.5 3.02-26.67 26.06-40.94 11.55-7.15 24.21-2.98 18.59 6.12 27.15 22.2 2.69 5.06 6.93 18.72 6.19 19.96 10.13 41.15Zm-64.44-15.49q5.49-1.61 5.14 4.09-.12 1.91 2.69 1.39a.46.43-9.1 0 0 .37-.48l-.48-4.35a1.66.98 32.1 0 0-.44-.85q-1.14-1.24.17-2.04a1.52.96-16.5 0 0 .61-.7q1.76-5.6-4.34-5.87-3.38-.15-6.62-.1a.65.65-.4 0 0-.64.65q0 6.23-.22 12.09-.08 2.35 2.6 1.66a.86.84 83.1 0 0 .63-.83l.03-4.01a.7.67-8.7 0 1 .5-.65Zm16.38 2.42q1.33-1.31 2.73-2.55 1.77-1.57 2.32-2.85 1.32-3.1-1.28-4.88-1.93-1.33-4.23-1.08-3.32.37-3.62 4.21a.73.67-78 0 0 .43.72q1.38.53 2.04-.54.61-1 .64-1.03 2.33-2.71 3.41.69a1.37 1.32-42.4 0 1-.06.95q-1.09 2.45-3.41 3.96-2.5 1.62-3.32 5a.46.46 6.9 0 0 .45.57h8.48a1.01.82 13.2 0 0 .8-.39q.65-1-.02-1.92a1.16.91-13.6 0 0-.85-.39l-4.37-.1q-.5-.01-.14-.37Z" />
    <path fill="#2c2c2c"
        d="m363.06 108.45 4.62.1a.87.76-9.9 0 1 .75.45q.48 1.04-.34 1.62-.45.31-1.37.34-3.16.08-6.72.03a1.19 1.19 15.7 0 1-1.01-1.8q1.82-3.1 4.58-5.21 1.53-1.17 1.82-1.97.56-1.57-.95-2.95-1.73-1.57-2.75 1.13-.88 2.32-2.79 1.1a.68.65-65.1 0 1-.26-.77q1.44-4.79 5.58-3.88 2.84.62 3.89 3.14 1.32 3.2-2.17 5.66-2.22 1.56-3.08 2.59-.34.41.2.42ZM345.61 96.9q.99-.56 1.98.05a.98.84-76.7 0 1 .41.8v10.06a.71.69 0 0 0 .71.69l5.73.04a.81.76-9.9 0 1 .72.47q.53 1.22-.43 1.74-.47.25-1.5.25h-7.03a1.16 1.12.2 0 1-1.16-1.13l.12-12.18a.95.88 76.8 0 1 .45-.79Zm485.43 9.66-.03 4.01a.86.84 83.1 0 1-.63.83q-2.68.69-2.6-1.66.22-5.86.22-12.09a.65.65-.4 0 1 .64-.65q3.24-.05 6.62.1 6.1.27 4.34 5.87a1.52.96-16.5 0 1-.61.7q-1.31.8-.17 2.04a1.66.98 32.1 0 1 .44.85l.48 4.35a.46.43-9.1 0 1-.37.48q-2.81.52-2.69-1.39.35-5.7-5.14-4.09a.7.67-8.7 0 0-.5.65Zm5.87-5.66a1.39 1.39 0 0 0-1.39-1.39h-3.2a1.39 1.39 0 0 0-1.39 1.39v.96a1.39 1.39 0 0 0 1.39 1.39h3.2a1.39 1.39 0 0 0 1.39-1.39v-.96Zm11.15 7.8 4.37.1a1.16.91-13.6 0 1 .85.39q.67.92.02 1.92a1.01.82 13.2 0 1-.8.39h-8.48a.46.46 6.9 0 1-.45-.57q.82-3.38 3.32-5 2.32-1.51 3.41-3.96a1.37 1.32-42.4 0 0 .06-.95q-1.08-3.4-3.41-.69-.03.03-.64 1.03-.66 1.07-2.04.54a.73.67-78 0 1-.43-.72q.3-3.84 3.62-4.21 2.3-.25 4.23 1.08 2.6 1.78 1.28 4.88-.55 1.28-2.32 2.85-1.4 1.24-2.73 2.55-.36.36.14.37Z" />
    <path fill="#1a1a1a"
        d="M836.91 101.86a1.39 1.39 0 0 1-1.39 1.39h-3.2a1.39 1.39 0 0 1-1.39-1.39v-.96a1.39 1.39 0 0 1 1.39-1.39h3.2a1.39 1.39 0 0 1 1.39 1.39v.96Z" />
    <path
        d="m398.1 121.37.69 6.17a.91.89-.7 0 1-.98.98q-11.67-.92-23.05-1.63-21.63-1.34-43.26-.07-15.89.94-32.42 2.49a.4.38 2.9 0 1-.44-.46l1.66-7.33q48.94-8.19 97.8-.15Zm497.88.03 1.75 7.45a.62.58-3.2 0 1-.67.7q-17.06-1.51-33.82-2.5-10.59-.63-19.98-.5-22.23.32-44.48 2.4a.94.87-.7 0 1-1.03-.93l.54-6.27q8.47-.94 16.9-2.19 9.04-1.33 22.25-1.79 9.6-.33 19.99.2 19.35.99 38.55 3.43Z" />
    <path fill="#232323"
        d="M392.5 133.29q3.22.48.34 2.08-2 1.11-4.24 1.53-1.98.38-2.06.4-22.73 5.27-45.52 10.27-14.4 3.17-35.52 5.93-2.81.37-2.79-2.25 6.94-4.32 16.98-9.56 14.1-7.37 29.33-9.13 6.07-.71 19.97-.16 11.76.46 23.51.89Zm503.86 18.79q-2.56 1.3-4.11 1.17-15.22-1.24-30.11-4.55-10.19-2.26-10.32-2.28-14.26-3.01-28.48-6.25-1.34-.31-10.21-2.19-7.28-1.54-10.07-2.79-2.03-.91.01-1.86 10.31-.47 20.43-.8 17.43-.55 20-.43 15.44.7 29.56 7.34 11.3 5.31 23.3 12.64Z" />
    <path fill="#1a1a1a"
        d="M392.5 133.29q3.3-.13 4.69 1.02 6.61 5.5 5.31 14.4-54.64 6.44-108.2 18.95.44-5.01 1.2-7.66 1.64-5.72 7.21-8.75-.02 2.62 2.79 2.25 21.12-2.76 35.52-5.93 22.79-5 45.52-10.27.08-.02 2.06-.4 2.24-.42 4.24-1.53 2.88-1.6-.34-2.08Zm410.57.04q-2.04.95-.01 1.86 2.79 1.25 10.07 2.79 8.87 1.88 10.21 2.19 14.22 3.24 28.48 6.25.13.02 10.32 2.28 14.89 3.31 30.11 4.55 1.55.13 4.11-1.17 7.16 6.06 6.58 15.91-43.18-9.46-74.94-14.74-11.88-1.97-32.86-4.05-2.23-11.53 7.93-15.87Z" />
    <path fill="#0170bb"
        d="M749.8 147.21q3.75-.57 6.54.71 5.97 6.72 8.85 13.14 2.51 5.62 1.56 10.69-4.85 25.85-14 64.75-2.02 8.57-4.79 22.75-4.05 3.49-8.21.21 8.39-41.35 17.19-82.6.55-2.57.57-5.28.02-2.67.07-5.33.23-11.29-7.78-19.04Zm-304.63-.3q-9.38 9.43-8.21 21.84.49 5.14 1.65 10.17l1.2 5.2q7.4 34.93 14.58 69.88-.08 4.76-4.22 4.82-1.19.01-2.09-.78-.89-.79-1.54-1.79-8.35-36.97-16.19-74.06-2.2-10.35-2.2-10.38-.59-5.68 1.66-10.75 2.74-6.15 8.69-13.02l6.67-1.13Z" />
    <path fill="#818081"
        d="M795.929 162.798a.54.54 0 0 1-.546.535l-10.06-.106a.54.54 0 0 1-.534-.545l.002-.18a.54.54 0 0 1 .546-.535l10.06.106a.54.54 0 0 1 .534.545l-.002.18Zm-393.287 8.551a.67.67 0 0 1-.408.855l-.057.02a.67.67 0 0 1-.855-.408l-2.884-8.144a.67.67 0 0 1 .408-.856l.057-.02a.67.67 0 0 1 .855.408l2.884 8.144Zm2.994-.513a.56.56 0 0 1-.686.396l-.077-.02a.56.56 0 0 1-.396-.686l1.507-5.622a.56.56 0 0 1 .686-.396l.077.02a.56.56 0 0 1 .396.686l-1.507 5.622Zm390.088-4.843a.27.27 0 0 1-.275.264l-10.158-.195a.27.27 0 0 1-.265-.275l.01-.5a.27.27 0 0 1 .275-.264l10.158.195a.27.27 0 0 1 .265.275l-.01.5Zm.256 2.917a.35.35 0 0 1-.351.35l-10.54-.02a.35.35 0 0 1-.35-.35l.001-.54a.35.35 0 0 1 .351-.35l10.54.02a.35.35 0 0 1 .35.35l-.001.54Zm-396.328 4.24a3.68.72 37.7 0 1-3.352-1.68 3.68.72 37.7 0 1-2.472-2.82 3.68.72 37.7 0 1 3.352 1.68 3.68.72 37.7 0 1 2.472 2.82Zm22.601 31.13a9.73 9.73 0 0 1-7.231 11.707l-.915.216a9.73 9.73 0 0 1-11.707-7.23l-4.873-20.613a9.73 9.73 0 0 1 7.231-11.707l.915-.216a9.73 9.73 0 0 1 11.707 7.23l4.873 20.613Zm-6.34-20.202a8.29 8.29 0 0 0-9.964-6.178l-.74.173a8.29 8.29 0 0 0-6.178 9.964l4.796 20.445a8.29 8.29 0 0 0 9.964 6.178l.74-.173a8.29 8.29 0 0 0 6.178-9.964l-4.796-20.445Z" />
    <path fill="#777677"
        d="M793.067 208.91a9.67 9.67 0 0 1-11.648 7.166l-.895-.213a9.67 9.67 0 0 1-7.165-11.648l4.894-20.545a9.67 9.67 0 0 1 11.648-7.166l.895.213a9.67 9.67 0 0 1 7.165 11.648l-4.894 20.545Zm3.469-20.904a8.39 8.39 0 0 0-6.253-10.084l-.7-.164a8.39 8.39 0 0 0-10.085 6.252l-4.814 20.524a8.39 8.39 0 0 0 6.253 10.084l.7.164a8.39 8.39 0 0 0 10.085-6.252l4.814-20.524Z" />
    <path fill="#d8d8d8"
        d="M791.722 208.53a8.39 8.39 0 0 1-10.084 6.252l-.701-.164a8.39 8.39 0 0 1-6.253-10.084l4.814-20.524a8.39 8.39 0 0 1 10.084-6.252l.701.164a8.39 8.39 0 0 1 6.253 10.084l-4.814 20.524Zm-371.013-4.007a8.29 8.29 0 0 1-6.178 9.964l-.74.173a8.29 8.29 0 0 1-9.964-6.178l-4.796-20.445a8.29 8.29 0 0 1 6.178-9.964l.74-.173a8.29 8.29 0 0 1 9.964 6.178l4.796 20.445Z" />
    <path fill="#2e3940"
        d="M454.39 254q2.5 16.22 8.23 31.48-1.37-.24-2.37.82a1.18 1.13 19.1 0 1-.81.37l-8 .32-1.15-6.48a1.24.49 86.1 0 0-.4-.84q-.26-.16-.6-.17l-2.75-23.25q.65 1 1.54 1.79.9.79 2.09.78 4.14-.06 4.22-4.82Z" />
    <path fill="#2e3940"
        d="M747.96 259.25q-2.22 14.17-2.25 28.5-.98-.3-1.27.69-1.1 3.68-3.99 7.72-10.12 14.17-25.51 22.28-6.5 3.42-14.18 4.06-.15.01-14.53-.01-90.23-.14-180.46.22-12.52.05-17.45-1.15-8.65-2.11-16.01-7.87-13.81-10.82-20.87-26.7l8-.32a1.18 1.13 19.1 0 0 .81-.37q1-1.06 2.37-.82 7.01 13.56 16.94 21.96 2.9 2.45 7.09 3.7 2.87.86 7.8.86h206.27q.87 0 1.69-.29 13.13-4.7 22.55-14.13 4.46-4.46 7.14-9.41 2.93-5.42 4.09-11.23 2.94-14.77 3.56-17.48 4.16 3.28 8.21-.21Z" />
    <path fill="#1e1e1e"
        d="M449.29 279.5q.34.01.6.17a1.24.49 86.1 0 1 .4.84l1.15 6.48q7.06 15.88 20.87 26.7 7.36 5.76 16.01 7.87 4.93 1.2 17.45 1.15 90.23-.36 180.46-.22 14.38.02 14.53.01 7.68-.64 14.18-4.06 15.39-8.11 25.51-22.28 2.89-4.04 3.99-7.72.29-.99 1.27-.69.42 8.74 3.85 14.19 5.57 8.82 15.85 21.55 9.42 11.66 9.46 11.72 15.37 19.36 23.44 29.98 2.87 3.77 6.54 9.34 2.68 4.06 5.92 9.73 7.37 12.89 14.73 25.78 18.82 33.63 35.29 68.46 15.42 35.19 29.21 71.04 12.53 32.24 22.89 65.24 3.67 11.69 8.19 23.07 3.17 7.97 8.23 13.84 2.71 3.13 7.49 3.62-21.62 6.52-44.2 3.67-7.23-17.6-9.6-23.98-18.09-48.79-39.87-96.03-2.39-7.8-7.3-14.31-3-5.59-9.52-15.72-.81-1.26-1.35-.44-10.1-12.16-18.52-20.94-3.42-3.56-8.6-6.05-19.16-9.22-40.34-5.76-5.88.96-23 2.25-9.35.7-31.99.59-16.22-.09-20.02-.09h-178.9l-7.67.03q-27.57.11-58.42-2.78-9.45-.88-20.43-.35-6.39.31-10.87 2.07-6.99 2.76-13.51 7.97-14 11.16-22.73 24.81-.91.03-1.41.8-6.18 9.61-11.38 19.79-22.14 43.37-40.23 88.6-9.77 24.42-14.78 41.51-2.74 1.37-5.66 1.05-16.86-1.85-36.25-7.21 4.13-.89 6.81-4.73 3.94-5.63 6-10.5 4.84-11.43 8.59-23.26 11.35-35.82 25.06-70.8 14.55-38.67 31.79-76.21 14.9-30.25 31.25-59.75 7.72-13.32 15.31-26.73 3.34-5.89 7.93-12.49 3.04-4.38 8.9-11.82 31.49-39.99 38.3-48.81 1.38-1.79 4.06-5.96 2.19-3.39 3.13-6.45 2.67-8.6 1.91-17.78Zm181.98 57.13a3.78 3.78 0 0 0-3.78-3.78 3.78 3.78 0 0 0-3.78 3.78 3.78 3.78 0 0 0 3.78 3.78 3.78 3.78 0 0 0 3.78-3.78Zm-58.81 0a3.78 3.78 0 0 0-3.78-3.78 3.78 3.78 0 0 0-3.78 3.78 3.78 3.78 0 0 0 3.78 3.78 3.78 3.78 0 0 0 3.78-3.78Zm14.36.02a3.77 3.77 0 0 0-3.77-3.77 3.77 3.77 0 0 0-3.77 3.77 3.77 3.77 0 0 0 3.77 3.77 3.77 3.77 0 0 0 3.77-3.77Zm15.07.01a3.79 3.79 0 0 0-3.79-3.79 3.79 3.79 0 0 0-3.79 3.79 3.79 3.79 0 0 0 3.79 3.79 3.79 3.79 0 0 0 3.79-3.79Zm14.32 0a3.78 3.78 0 0 0-3.78-3.78 3.78 3.78 0 0 0-3.78 3.78 3.78 3.78 0 0 0 3.78 3.78 3.78 3.78 0 0 0 3.78-3.78Zm-95.26 58.02a52.16 52.16 0 0 0-52.16-52.16 52.16 52.16 0 0 0-52.16 52.16 52.16 52.16 0 0 0 52.16 52.16 52.16 52.16 0 0 0 52.16-52.16Zm258.63-.01a52.17 52.17 0 0 0-52.17-52.17 52.17 52.17 0 0 0-52.17 52.17 52.17 52.17 0 0 0 52.17 52.17 52.17 52.17 0 0 0 52.17-52.17Zm-201.35-45.13a3.11 3.11 0 0 0-3.11-3.11 3.11 3.11 0 0 0-3.11 3.11 3.11 3.11 0 0 0 3.11 3.11 3.11 3.11 0 0 0 3.11-3.11Zm15.13 0a3.12 3.12 0 0 0-3.12-3.12 3.12 3.12 0 0 0-3.12 3.12 3.12 3.12 0 0 0 3.12 3.12 3.12 3.12 0 0 0 3.12-3.12Zm14.36-.01a3.12 3.12 0 0 0-3.12-3.12 3.12 3.12 0 0 0-3.12 3.12 3.12 3.12 0 0 0 3.12 3.12 3.12 3.12 0 0 0 3.12-3.12Zm15.13-.03a3.16 3.16 0 0 0-3.16-3.16 3.16 3.16 0 0 0-3.16 3.16 3.16 3.16 0 0 0 3.16 3.16 3.16 3.16 0 0 0 3.16-3.16Zm-6.14 86.89a3.62 3.62 0 0 0-3.62-3.62h-30.5a3.62 3.62 0 0 0-3.62 3.62v.5a3.62 3.62 0 0 0 3.62 3.62h30.5a3.62 3.62 0 0 0 3.62-3.62v-.5Z" />
    <path fill="#070707"
        d="M631.27 336.63a3.78 3.78 0 0 1-3.78 3.78 3.78 3.78 0 0 1-3.78-3.78 3.78 3.78 0 0 1 3.78-3.78 3.78 3.78 0 0 1 3.78 3.78Zm-58.81 0a3.78 3.78 0 0 1-3.78 3.78 3.78 3.78 0 0 1-3.78-3.78 3.78 3.78 0 0 1 3.78-3.78 3.78 3.78 0 0 1 3.78 3.78Zm14.36.02a3.77 3.77 0 0 1-3.77 3.77 3.77 3.77 0 0 1-3.77-3.77 3.77 3.77 0 0 1 3.77-3.77 3.77 3.77 0 0 1 3.77 3.77Zm15.07.01a3.79 3.79 0 0 1-3.79 3.79 3.79 3.79 0 0 1-3.79-3.79 3.79 3.79 0 0 1 3.79-3.79 3.79 3.79 0 0 1 3.79 3.79Zm14.32 0a3.78 3.78 0 0 1-3.78 3.78 3.78 3.78 0 0 1-3.78-3.78 3.78 3.78 0 0 1 3.78-3.78 3.78 3.78 0 0 1 3.78 3.78Z" />
    <path fill="#0c0c0c"
        d="M520.95 394.68a52.16 52.16 0 0 1-52.16 52.16 52.16 52.16 0 0 1-52.16-52.16 52.16 52.16 0 0 1 52.16-52.16 52.16 52.16 0 0 1 52.16 52.16Zm-8.3.05a43.89 43.89 0 0 0-43.89-43.89 43.89 43.89 0 0 0-43.89 43.89 43.89 43.89 0 0 0 43.89 43.89 43.89 43.89 0 0 0 43.89-43.89Zm266.93-.06a52.17 52.17 0 0 1-52.17 52.17 52.17 52.17 0 0 1-52.17-52.17 52.17 52.17 0 0 1 52.17-52.17 52.17 52.17 0 0 1 52.17 52.17Zm-8.35.03a43.85 43.85 0 0 0-43.85-43.85 43.85 43.85 0 0 0-43.85 43.85 43.85 43.85 0 0 0 43.85 43.85 43.85 43.85 0 0 0 43.85-43.85Z" />
    <path fill="#070707"
        d="M578.23 349.54a3.11 3.11 0 0 1-3.11 3.11 3.11 3.11 0 0 1-3.11-3.11 3.11 3.11 0 0 1 3.11-3.11 3.11 3.11 0 0 1 3.11 3.11Zm15.13 0a3.12 3.12 0 0 1-3.12 3.12 3.12 3.12 0 0 1-3.12-3.12 3.12 3.12 0 0 1 3.12-3.12 3.12 3.12 0 0 1 3.12 3.12Zm14.36-.01a3.12 3.12 0 0 1-3.12 3.12 3.12 3.12 0 0 1-3.12-3.12 3.12 3.12 0 0 1 3.12-3.12 3.12 3.12 0 0 1 3.12 3.12Zm15.13-.03a3.16 3.16 0 0 1-3.16 3.16 3.16 3.16 0 0 1-3.16-3.16 3.16 3.16 0 0 1 3.16-3.16 3.16 3.16 0 0 1 3.16 3.16Z" />
    <path fill="#161616"
        d="M512.65 394.73a43.89 43.89 0 0 1-43.89 43.89 43.89 43.89 0 0 1-43.89-43.89 43.89 43.89 0 0 1 43.89-43.89 43.89 43.89 0 0 1 43.89 43.89Zm-10.12-.09a33.76 33.76 0 0 0-33.76-33.76 33.76 33.76 0 0 0-33.76 33.76 33.76 33.76 0 0 0 33.76 33.76 33.76 33.76 0 0 0 33.76-33.76Zm268.7.06a43.85 43.85 0 0 1-43.85 43.85 43.85 43.85 0 0 1-43.85-43.85 43.85 43.85 0 0 1 43.85-43.85 43.85 43.85 0 0 1 43.85 43.85Zm-10.07-.07a33.75 33.75 0 0 0-33.75-33.75 33.75 33.75 0 0 0-33.75 33.75 33.75 33.75 0 0 0 33.75 33.75 33.75 33.75 0 0 0 33.75-33.75Z" />
    <path fill="#1e1e1e"
        d="M502.53 394.64a33.76 33.76 0 0 1-33.76 33.76 33.76 33.76 0 0 1-33.76-33.76 33.76 33.76 0 0 1 33.76-33.76 33.76 33.76 0 0 1 33.76 33.76Zm258.63-.01a33.75 33.75 0 0 1-33.75 33.75 33.75 33.75 0 0 1-33.75-33.75 33.75 33.75 0 0 1 33.75-33.75 33.75 33.75 0 0 1 33.75 33.75Z" />
    <path fill="#070707"
        d="M616.71 436.89a3.62 3.62 0 0 1-3.62 3.62h-30.5a3.62 3.62 0 0 1-3.62-3.62v-.5a3.62 3.62 0 0 1 3.62-3.62h30.5a3.62 3.62 0 0 1 3.62 3.62v.5Z" />
    <path fill="#090806" fill-opacity=".514" d="m843.13 538.97-7.3-14.31q4.91 6.51 7.3 14.31Z" />
    <path fill="#e6e6e6"
        d="M369.96 510.25q-18.67 53.58-41.01 105.73-7 16.35-15.5 31.96-1.05 1.94-6.26 9.5-1.99 2.88-5.03 3.51 5.01-17.09 14.78-41.51 18.09-45.23 40.23-88.6 5.2-10.18 11.38-19.79.5-.77 1.41-.8ZM835.83 524.66l7.3 14.31Q864.91 586.21 883 635q2.37 6.38 9.6 23.98-5.34-3.66-8.6-9.48-12.23-21.85-21.04-43.02-20.19-48.53-38-97.98.54-.82 1.35.44 6.52 10.13 9.52 15.72Z" />
</svg>
