<?xml version="1.0" encoding="utf-8"?>
<!-- Generator: Adobe Illustrator 16.0.0, SVG Export Plug-In . SVG Version: 6.00 Build 0)  -->
<!DOCTYPE svg PUBLIC "-//W3C//DTD SVG 1.1//EN" "http://www.w3.org/Graphics/SVG/1.1/DTD/svg11.dtd">
<svg
	version="1.1"
	id="Layer_1"
	xmlns="http://www.w3.org/2000/svg"
	xmlns:xlink="http://www.w3.org/1999/xlink"
	x="0px"
	y="0px"
	width="171.154px"
	height="62.864px"
	viewBox="0 0 171.154 62.864"
	enable-background="new 0 0 171.154 62.864"
	xml:space="preserve">
	<g id="LB_Pressed">
		<path
			fill="#F2F2F2"
			d="M134.221,0.76C91.974-4.862,38.282,22.221,20.001,32.135c-0.274,0.164-0.557,0.313-0.828,0.464
		c-0.083,0.054-0.157,0.11-0.25,0.164c-0.183,0.083-0.351,0.192-0.533,0.303c-0.084,0.065-0.184,0.117-0.29,0.168
		c-0.142,0.101-0.297,0.202-0.452,0.297c-0.084,0.046-0.183,0.113-0.288,0.182c-0.131,0.099-0.273,0.188-0.419,0.268
		c-0.082,0.068-0.17,0.137-0.269,0.206c-0.134,0.087-0.259,0.171-0.397,0.27c-0.091,0.068-0.163,0.137-0.251,0.19
		c-0.137,0.087-0.257,0.188-0.377,0.29c-0.088,0.061-0.173,0.106-0.244,0.172c-0.119,0.103-0.25,0.207-0.362,0.287
		c-0.067,0.059-0.147,0.125-0.226,0.191c-0.116,0.105-0.224,0.184-0.348,0.288c-0.072,0.064-0.134,0.127-0.193,0.19
		c-0.118,0.081-0.24,0.189-0.341,0.299c-0.056,0.061-0.121,0.109-0.186,0.154c-0.12,0.112-0.214,0.226-0.326,0.325
		c-0.057,0.042-0.114,0.098-0.167,0.155c-0.095,0.119-0.209,0.221-0.323,0.328c-0.045,0.052-0.087,0.104-0.125,0.156
		c-0.113,0.107-0.227,0.222-0.325,0.348c-0.031,0.045-0.068,0.088-0.107,0.121c-0.118,0.121-0.225,0.255-0.315,0.37
		c-0.032,0.029-0.064,0.066-0.095,0.104c-0.118,0.144-0.219,0.266-0.315,0.403c-0.022,0.029-0.045,0.058-0.068,0.087
		c-0.119,0.138-0.216,0.285-0.321,0.442c-0.012,0.016-0.023,0.03-0.036,0.042c-0.124,0.152-0.227,0.328-0.333,0.473
		c0.025-0.01,97.688-41.961,121.984-34.379c15.54,4.869,27.223,15.331,32.802,18.224l3.423-6.342
		C156.689,13.781,142.069,1.797,134.221,0.76z"/>
		<g>
			<path fill="#E5E5E5" d="M166.167,23.969c0.156,0.063,0.306,0.123,0.464,0.187C166.472,24.092,166.323,24.03,166.167,23.969z"/>
			<path
				fill="#E5E5E5"
				d="M165.693,23.72c-5.579-2.882-17.262-13.358-32.815-18.231C108.67-2.066,11.571,39.581,10.901,39.864
			C5.931,47.299,8.69,55.195,0.06,62.83C0.044,62.843,0.018,62.854,0,62.864c33.159-17.875,99.165-38.11,118.749-34.331
			c9.123,1.756,19.905,12.083,31.08,24.761l15.851-29.583C165.685,23.715,165.688,23.718,165.693,23.72z"/>
			<path fill="#FFFFFF" d="M165.693,23.72c0.172,0.088,0.313,0.173,0.473,0.249C166.005,23.892,165.865,23.808,165.693,23.72z"/>
		</g>
		<path
			fill="#FFFFFF"
			d="M150.555,54.101c0.234,0.296,0.466,0.565,0.725,0.835l16.384-30.538l3.49-6.531
		c-0.344-0.066-0.688-0.131-1.038-0.226c-0.335-0.092-0.673-0.19-1.013-0.271l-3.423,6.342l-15.851,29.583
		C150.064,53.563,150.296,53.83,150.555,54.101L150.555,54.101"/>
	</g>
</svg>
