<svg xmlns="http://www.w3.org/2000/svg" width="750" height="630.455" viewBox="0 0 750 630.455">
    <path fill="#FF0002" d="M664.368 213.96c-6.72-16.682-20.542-20.877-21.818-22.003-11.701-10.336-2.474-21.214-19.946-30.695-18.281-9.914-71.979-36.997-114.22-31.375-9.225 1.235-27.837 17.608-41.214 17.608H282.84c-13.377 0-31.99-16.374-41.215-17.608-42.248-5.622-95.939 21.461-114.22 31.375-17.472 9.481-8.243 20.359-19.941 30.695-1.281 1.125-15.104 5.321-21.823 22.003C22.889 369.984-1.741 469.114.095 529.129c2.891 94.416 76.578 101.326 76.578 101.326 37.033-8.617 111.55-129.135 168.535-129.135h259.594c56.985 0 131.502 120.518 168.538 129.135 0 0 73.678-6.91 76.563-101.326 1.864-60.015-22.81-159.145-85.535-315.169zm-116.01-99.014l50.436 6.849C586.728 4.974 555.822 10.762 549.08 5.466a23.054 23.054 0 0 0-1.211-.899C541.453.091 534.303-.306 522.043.142c-10.823.403-12.063 11.439-12.182 15.19v1.227s2.9 40.716 0 93.094c9.787 2.256 37.718 5.211 38.497 5.293zm-346.682.004s28.613-3.009 38.539-5.298c-2.901-52.378 0-93.094 0-93.094v-1.227c-.124-3.751-1.36-14.787-12.193-15.19-12.249-.448-19.398-.051-25.815 4.425-.407.281-.811.58-1.211.899-6.756 5.296-37.648-.492-49.715 116.329l50.395-6.846v.002z" />
    <path fill="#FFF" d="M184.219 353.411v-44.813h12.938c16.521 0 24.781 7.281 24.781 21.844 0 6.917-2.292 12.474-6.875 16.672s-10.729 6.297-18.438 6.297h-12.406zm7.406-38.5v32.219h5.938c5.229 0 9.297-1.438 12.203-4.313s4.359-6.938 4.359-12.188c0-10.479-5.427-15.719-16.281-15.719h-6.219zm41.344-.219c-1.188 0-2.203-.385-3.047-1.156-.844-.771-1.266-1.75-1.266-2.938s.422-2.177 1.266-2.969c.844-.792 1.859-1.188 3.047-1.188 1.229 0 2.271.396 3.125 1.188.854.792 1.281 1.781 1.281 2.969 0 1.125-.427 2.089-1.281 2.891-.855.803-1.896 1.203-3.125 1.203zm3.594 38.719h-7.25v-32h7.25v32zm7.468-1v-6.719c2.708 2.063 5.698 3.094 8.969 3.094 4.375 0 6.563-1.292 6.563-3.875 0-.729-.188-1.349-.563-1.859-.375-.51-.88-.963-1.516-1.359s-1.386-.75-2.25-1.063a329.56 329.56 0 0 1-2.891-1.063 30.642 30.642 0 0 1-3.547-1.656c-1.052-.583-1.927-1.245-2.625-1.984a7.477 7.477 0 0 1-1.578-2.516c-.354-.938-.531-2.031-.531-3.281 0-1.542.364-2.901 1.094-4.078.729-1.177 1.708-2.167 2.938-2.969 1.229-.802 2.625-1.406 4.188-1.813s3.177-.609 4.844-.609c2.958 0 5.604.448 7.938 1.344v6.344c-2.25-1.542-4.833-2.313-7.75-2.313-.917 0-1.745.094-2.484.281-.74.188-1.37.448-1.891.781a3.84 3.84 0 0 0-1.219 1.203 2.868 2.868 0 0 0-.438 1.547c0 .688.146 1.271.438 1.75.292.479.724.901 1.297 1.266s1.26.698 2.063 1c.802.302 1.724.63 2.766.984a40.656 40.656 0 0 1 3.703 1.719c1.094.583 2.026 1.245 2.797 1.984a7.784 7.784 0 0 1 1.781 2.563c.417.969.625 2.12.625 3.453 0 1.625-.375 3.042-1.125 4.25a9.384 9.384 0 0 1-3 3c-1.25.792-2.693 1.38-4.328 1.766a22.51 22.51 0 0 1-5.172.578c-3.502 0-6.533-.583-9.096-1.75zm52.5-.469c-2.563 1.479-5.594 2.219-9.094 2.219-4.75 0-8.583-1.484-11.5-4.453-2.917-2.969-4.375-6.817-4.375-11.547 0-5.271 1.567-9.505 4.703-12.703 3.135-3.198 7.328-4.797 12.578-4.797 2.917 0 5.489.511 7.719 1.531v6.75c-2.229-1.667-4.604-2.5-7.125-2.5-3.063 0-5.573 1.037-7.531 3.109-1.958 2.073-2.938 4.787-2.938 8.141 0 3.313.922 5.927 2.766 7.844 1.844 1.917 4.317 2.875 7.422 2.875 2.604 0 5.063-.927 7.375-2.781v6.312zm21.375 2.219c-4.938 0-8.88-1.495-11.828-4.484-2.948-2.989-4.422-6.953-4.422-11.891 0-5.375 1.536-9.573 4.609-12.594 3.073-3.021 7.213-4.531 12.422-4.531 5 0 8.896 1.469 11.688 4.406 2.792 2.938 4.188 7.011 4.188 12.219 0 5.104-1.505 9.193-4.516 12.266-3.011 3.073-7.058 4.609-12.141 4.609zm.344-27.719c-2.833 0-5.073.99-6.719 2.969-1.646 1.979-2.469 4.708-2.469 8.188 0 3.354.833 5.995 2.5 7.922 1.667 1.927 3.896 2.891 6.688 2.891 2.854 0 5.047-.948 6.578-2.844 1.531-1.896 2.297-4.594 2.297-8.094 0-3.521-.766-6.239-2.297-8.156-1.531-1.917-3.724-2.876-6.578-2.876zm52.188 26.969h-7.25V335.38c0-5.979-2.115-8.969-6.344-8.969-2.208 0-4.031.828-5.469 2.484s-2.156 3.745-2.156 6.266v18.25h-7.281v-32h7.281v5.313h.125c2.396-4.042 5.854-6.063 10.375-6.063 3.479 0 6.135 1.13 7.969 3.391 1.833 2.261 2.75 5.526 2.75 9.797v19.562zm37.343 0h-7.25V335.38c0-5.979-2.115-8.969-6.344-8.969-2.208 0-4.031.828-5.469 2.484s-2.156 3.745-2.156 6.266v18.25h-7.281v-32h7.281v5.313h.125c2.396-4.042 5.854-6.063 10.375-6.063 3.479 0 6.135 1.13 7.969 3.391 1.833 2.261 2.75 5.526 2.75 9.797v19.562zm35.938-14.031h-21.813c.083 2.958.995 5.24 2.734 6.844 1.739 1.604 4.13 2.406 7.172 2.406 3.417 0 6.552-1.021 9.406-3.063v5.844c-2.917 1.833-6.771 2.75-11.563 2.75-4.708 0-8.401-1.453-11.078-4.359-2.677-2.906-4.016-6.995-4.016-12.266 0-4.979 1.474-9.036 4.422-12.172 2.948-3.135 6.609-4.703 10.984-4.703s7.76 1.406 10.156 4.219c2.396 2.813 3.594 6.719 3.594 11.719v2.781zm-7-5.125c-.021-2.604-.636-4.63-1.844-6.078-1.208-1.448-2.875-2.172-5-2.172-2.083 0-3.849.761-5.297 2.281-1.448 1.521-2.339 3.511-2.672 5.969h14.813zm36.812 17.687c-2.563 1.479-5.594 2.219-9.094 2.219-4.75 0-8.583-1.484-11.5-4.453-2.917-2.969-4.375-6.817-4.375-11.547 0-5.271 1.567-9.505 4.703-12.703 3.135-3.198 7.328-4.797 12.578-4.797 2.917 0 5.489.511 7.719 1.531v6.75c-2.229-1.667-4.604-2.5-7.125-2.5-3.063 0-5.573 1.037-7.531 3.109-1.958 2.073-2.938 4.787-2.938 8.141 0 3.313.922 5.927 2.766 7.844 1.844 1.917 4.317 2.875 7.422 2.875 2.604 0 5.063-.927 7.375-2.781v6.312zm24.063 1.125c-1.417.708-3.281 1.063-5.594 1.063-6.208 0-9.313-2.979-9.313-8.938v-18.094h-5.344v-5.688h5.344v-7.406l7.25-2.063v9.469h7.656v5.688h-7.656v16c0 1.896.344 3.25 1.031 4.063s1.833 1.219 3.438 1.219c1.229 0 2.292-.354 3.188-1.063v5.75zm32.969-13.687H508.75c.083 2.958.995 5.24 2.734 6.844 1.739 1.604 4.13 2.406 7.172 2.406 3.417 0 6.552-1.021 9.406-3.063v5.844c-2.917 1.833-6.771 2.75-11.563 2.75-4.708 0-8.401-1.453-11.078-4.359-2.677-2.906-4.016-6.995-4.016-12.266 0-4.979 1.474-9.036 4.422-12.172 2.948-3.135 6.609-4.703 10.984-4.703s7.76 1.406 10.156 4.219c2.396 2.813 3.594 6.719 3.594 11.719v2.781zm-7-5.125c-.021-2.604-.636-4.63-1.844-6.078-1.208-1.448-2.875-2.172-5-2.172-2.083 0-3.849.761-5.297 2.281-1.448 1.521-2.339 3.511-2.672 5.969h14.813zm43 19.156h-7.25v-5.438h-.125c-2.333 4.125-5.927 6.188-10.781 6.188-3.938 0-7.089-1.432-9.453-4.297-2.365-2.864-3.547-6.766-3.547-11.703 0-5.292 1.307-9.531 3.922-12.719 2.614-3.188 6.099-4.781 10.453-4.781 4.313 0 7.448 1.729 9.406 5.188h.125v-19.813h7.25v47.375zm-7.157-14.625v-4.188c0-2.271-.74-4.198-2.219-5.781-1.479-1.583-3.365-2.375-5.656-2.375-2.708 0-4.839 1.011-6.391 3.031-1.552 2.021-2.328 4.823-2.328 8.406 0 3.25.745 5.818 2.234 7.703 1.489 1.886 3.495 2.828 6.016 2.828 2.479 0 4.489-.911 6.031-2.734 1.542-1.822 2.313-4.119 2.313-6.89z" />
</svg>
