<svg xmlns="http://www.w3.org/2000/svg" width="70.659" height="128.036" viewBox="0 0 70.659 128.036">
    <path fill="#EBEBEB" d="M40.432 41.552V7.333c0-.043.007-.093.014-.142l.06-.227c.029-.041.066-.107.082-.133.495-.809 2.105-1.517 4.535-1.992.305-.068.594-.126.889-.182a9.59 9.59 0 0 1 .958-.135c.035-.003.128-.016.163-.026.255-.029.578-.072.906-.111a42.72 42.72 0 0 1 2.041-.192l2.369-.077c.353-.008.701-.012 1.047-.012 7.325 0 13.063 1.418 13.063 3.229l.001 34.219-13.065 13.052-13.063-13.052z"/>
    <path fill="#EDF4F4" d="M53.495 4.604c8.089 0 12.563 1.613 12.563 2.729l.001.044v33.968L53.495 53.897 40.932 41.344V7.336c0-.021.004-.043.004-.043l.002-.011.001-.003c.013-.035.029-.094.039-.134l.036-.055c.153-.25.906-1.114 4.186-1.759a21.91 21.91 0 0 1 .894-.183l.081-.014a8.42 8.42 0 0 1 .795-.114c.048-.002.113-.006.188-.02.309-.042.612-.082.919-.119l.024-.003c.328-.04.663-.075 1.002-.107a38.872 38.872 0 0 1 1.005-.081l.117-.006c.19-.008.382-.013.574-.017l.395-.01a62.737 62.737 0 0 1 1.148-.041l.124-.001c.342-.007.686-.011 1.029-.011m0-1a46.123 46.123 0 0 0-1.177.014 64.69 64.69 0 0 0-1.16.041c-.327.01-.654.014-.977.028l-.138.007c-.335.023-.668.05-.996.081-.014.001-.027.003-.041.003-.348.033-.691.07-1.027.11h-.002a70.504 70.504 0 0 0-1.048.135 9.135 9.135 0 0 0-.938.13l-.074.012c-.301.057-.596.116-.88.181l-.013.002c-2.427.475-4.25 1.215-4.865 2.222a.58.58 0 0 0-.106.165l-.009.017-.044.182-.017.041a1.851 1.851 0 0 0-.033.142 1.55 1.55 0 0 0-.02.216v34.426l13.563 13.552 13.564-13.552V7.334h-.001v-.001c.002-2.502-6.794-3.729-13.561-3.729z"/>
    <path fill="#DBDBDB" d="M45.026 4.347l.013-.002c.284-.064.579-.124.88-.181l.074-.012a9.38 9.38 0 0 1 .997-.137c.333-.045.658-.088.989-.128h.002c.336-.041.679-.077 1.027-.11.014 0 .027-.002.041-.003a44.12 44.12 0 0 1 1.134-.088c.323-.014.649-.018.977-.028a64.69 64.69 0 0 1 1.16-.041l.125-.002c.35-.008.702-.012 1.052-.012 6.768 0 13.563 1.227 13.563 3.729l2.755-2.772c-.902-1.367-2.715-2.707-6.145-3.524C60.927.362 57.313 0 53.495 0c-3.846 0-7.459.362-10.18 1.036-2.94.717-4.715 1.796-5.725 2.963l2.57 2.57c.616-1.006 2.439-1.747 4.866-2.222z"/>
    <path fill="#E3E3E3" d="M67.058 7.333l.001 34.425 3.6-3.625v-30.8c0-.852-.222-1.835-.846-2.773l-2.755 2.773z"/>
    <path fill="#D6D6D6" d="M39.932 7.333a1.4 1.4 0 0 1 .053-.358l.017-.041c.015-.062.028-.122.045-.183l.009-.017a.602.602 0 0 1 .106-.165l-2.57-2.57c-.971 1.121-1.262 2.293-1.262 3.334v30.802l3.602 3.625V7.333z"/>
    <path fill="#EBEBEB" d="M17.166 51.211c-7.132 0-12.742-1.323-13.049-3.078a.972.972 0 0 1-.014-.148V13.768L17.166.707 30.23 13.769v34.217a.951.951 0 0 1-.015.152c-.306 1.75-5.917 3.073-13.049 3.073z"/>
    <path fill="#EDF4F4" d="M17.166 1.414L29.73 13.976v34.009c0 .021-.004.046-.006.063-.195 1.117-4.668 2.664-12.558 2.664-7.889 0-12.361-1.547-12.556-2.656-.004-.027-.008-.054-.008-.07v-34.01L17.166 1.414m0-1.414L3.602 13.562v34.424c0 .07.007.152.021.234.408 2.329 6.975 3.491 13.542 3.491 6.568 0 13.135-1.162 13.542-3.491.014-.082.021-.165.021-.234V13.562L17.166 0z"/>
    <path fill="#F0F0F0" d="M30.729 47.985l2.754 2.77c.624-.945.846-1.92.846-2.77V17.182l-3.6-3.62v34.423z"/>
    <path fill="#E8E8E8" d="M30.708 48.22c-.407 2.329-6.975 3.491-13.542 3.491S4.032 50.549 3.624 48.22a1.439 1.439 0 0 1-.021-.234L.818 50.757c.929 1.367 2.743 2.702 6.168 3.522 2.721.672 6.333 1.041 10.18 1.041 3.818 0 7.432-.369 10.175-1.041 3.43-.82 5.243-2.157 6.143-3.524l-2.754-2.77a1.57 1.57 0 0 1-.022.235z"/>
    <path fill="#E3E3E3" d="M3.603 47.985V13.561L0 17.182v31.65l.093.236c.128.545.345 1.119.724 1.689l2.786-2.772z"/>
    <path fill="#EBEBEB" d="M13.771 87.558L.708 74.497l13.063-13.052h34.212c1.809 0 3.226 5.735 3.226 13.057s-1.417 13.057-3.226 13.057H13.771z"/>
    <path fill="#EDF4F4" d="M47.983 61.945c1.138 0 2.726 4.777 2.726 12.556 0 7.78-1.588 12.557-2.726 12.557H13.978L1.415 74.497l12.563-12.552h34.005m0-1H13.564L0 74.497l13.564 13.562h34.419c4.968-.001 4.968-27.114 0-27.114z"/>
    <path fill="#E6E6E6" d="M47.983 60.945l2.755-2.778a4.983 4.983 0 0 0-2.755-.846H17.165l-3.601 3.625 34.419-.001z"/>
    <path fill="#E8E8E8" d="M47.983 88.058H13.564l3.6 3.62h32.315l.34-.345c.308-.128.617-.303.925-.498l-2.761-2.777z"/>
    <path fill="#F0F0F0" d="M50.738 58.167l-2.755 2.778c4.967 0 4.967 27.113 0 27.113l2.76 2.777c1.369-.93 2.705-2.747 3.548-6.147.664-2.746 1.032-6.357 1.032-10.192 0-3.831-.368-7.442-1.032-10.188-.844-3.401-2.18-5.212-3.553-6.141z"/>
    <path fill="#EBEBEB" d="M7.34 123.916c-1.82 0-3.247-5.735-3.247-13.057S5.52 97.803 7.34 97.803h34.213l13.063 13.052-13.063 13.062H7.34z"/>
    <path fill="#EDF4F4" d="M41.346 98.303l12.563 12.552-12.563 12.561H7.34c-1.147 0-2.746-4.776-2.746-12.556 0-7.78 1.6-12.558 2.747-12.558h34.005m.414-.999H7.34c-4.995 0-4.995 27.113 0 27.113h34.42l13.563-13.562L41.76 97.303z"/>
    <path fill="#DBDBDB" d="M41.76 97.303l-3.602-3.625H7.341c-.863 0-1.822.226-2.784.846l2.784 2.778 34.419.001z"/>
    <path fill="#D6D6D6" d="M7.34 97.303l-2.783-2.778c-1.367.93-2.679 2.74-3.525 6.143C.368 103.413 0 107.025 0 110.854c0 3.835.368 7.447 1.032 10.193.845 3.402 2.158 5.212 3.525 6.143l2.783-2.774c-4.995 0-4.995-27.113 0-27.113z"/>
    <path fill="#E5E5E5" d="M7.34 124.416l-2.783 2.774c.961.62 1.92.846 2.783.846h30.817l3.603-3.62H7.34z"/>
</svg>
