<svg xmlns="http://www.w3.org/2000/svg" width="70.66" height="128.036" viewBox="0 0 70.66 128.036">
    <path fill="#EBEBEB" d="M40.064 42.069V7.424c0-.043.006-.094.012-.144l.061-.229c.029-.042.064-.108.08-.135.492-.819 2.086-1.536 4.492-2.017.303-.068.588-.127.881-.184.314-.063.629-.108.949-.137.035-.003.127-.016.16-.026.254-.03.572-.073.898-.113a41.473 41.473 0 0 1 2.021-.194l2.346-.078c.35-.008.693-.012 1.037-.012 7.254 0 12.938 1.436 12.938 3.269v34.645L53.001 55.284 40.064 42.069z"/>
    <path fill="#EDF4F4" d="M53.001 4.661c8.01 0 12.441 1.633 12.441 2.763V41.86L53.001 54.568 40.558 41.859V7.427c0-.021.004-.043.004-.043l.002-.011.002-.003c.012-.035.027-.095.037-.136l.037-.056c.15-.253.896-1.128 4.146-1.781.293-.068.588-.13.885-.186l.08-.014a8.24 8.24 0 0 1 .787-.115 1.29 1.29 0 0 0 .186-.02c.305-.043.605-.083.91-.121l.023-.003a37.117 37.117 0 0 1 1.988-.19l.115-.006c.189-.008.379-.013.568-.017l.393-.01c.379-.018.756-.032 1.135-.042l.125-.001c.339-.006.679-.011 1.02-.011m0-1.012a45.33 45.33 0 0 0-2.316.056c-.322.01-.648.014-.967.028l-.136.007c-.332.023-.662.051-.986.082-.014.001-.027.003-.041.003-.344.034-.684.071-1.018.112h-.002c-.346.042-.691.088-1.037.137a8.816 8.816 0 0 0-.928.131l-.074.012c-.297.058-.592.118-.873.184l-.012.002c-2.404.481-4.209 1.23-4.818 2.25a.59.59 0 0 0-.105.167l-.008.017-.045.185-.016.042a1.157 1.157 0 0 0-.033.144 1.591 1.591 0 0 0-.02.218V42.28L53 56l13.432-13.721V7.424c.001-2.533-6.729-3.775-13.431-3.775z"/>
    <path fill="#DBDBDB" d="M44.613 4.401l.012-.002c.283-.064.576-.125.873-.183l.074-.012c.326-.064.654-.11.986-.139.33-.046.652-.089.979-.129h.002c.334-.042.674-.078 1.018-.112.014 0 .027-.002.041-.003.375-.035.748-.064 1.123-.089.318-.014.643-.018.967-.028.383-.018.766-.031 1.15-.042l.122-.002c.346-.008.695-.012 1.043-.012 6.701 0 13.432 1.242 13.432 3.775l2.729-2.807c-.893-1.384-2.689-2.741-6.086-3.568C60.361.366 56.781 0 53.001 0c-3.811 0-7.389.366-10.084 1.049-2.912.726-4.668 1.818-5.67 3l2.545 2.602c.612-1.019 2.416-1.769 4.821-2.25z"/>
    <path fill="#E3E3E3" d="M66.433 7.424v34.854L70 38.608V7.424c0-.863-.221-1.858-.838-2.808l-2.729 2.808z"/>
    <path fill="#D6D6D6" d="M39.568 7.424c.002-.123.02-.244.053-.362l.016-.042.045-.186.01-.017a.6.6 0 0 1 .104-.167L37.25 4.049C36.289 5.184 36 6.371 36 7.424V38.61l3.568 3.67V7.424z"/>
    <path fill="#EBEBEB" d="M17.001 51.841c-7.063 0-12.62-1.339-12.924-3.116a.93.93 0 0 1-.014-.15V13.938L17.001.716 29.94 13.938v34.637a.874.874 0 0 1-.015.154c-.302 1.772-5.86 3.112-12.924 3.112z"/>
    <path fill="#EDF4F4" d="M17.001 1.432l12.443 12.716v34.427c0 .021-.004.047-.006.064-.193 1.131-4.623 2.697-12.438 2.697-7.813 0-12.242-1.566-12.436-2.688-.003-.028-.007-.055-.007-.071V14.148L17.001 1.432m0-1.432L3.567 13.729v34.847c0 .071.007.154.021.237.404 2.357 6.909 3.534 13.412 3.534 6.505 0 13.009-1.176 13.412-3.534.014-.083.021-.167.021-.237V13.729L17.001 0z"/>
    <path fill="#F0F0F0" d="M30.435 48.575l2.728 2.804A5.146 5.146 0 0 0 34 48.575V17.394l-3.565-3.665v34.846z"/>
    <path fill="#E8E8E8" d="M30.414 48.813c-.403 2.358-6.908 3.534-13.412 3.534S3.994 51.17 3.589 48.813a1.44 1.44 0 0 1-.021-.237L.81 51.381c.92 1.384 2.717 2.735 6.109 3.565C9.614 55.627 13.191 56 17.001 56c3.781 0 7.361-.373 10.077-1.054 3.397-.83 5.193-2.184 6.084-3.567l-2.728-2.804c0 .08-.007.159-.02.238z"/>
    <path fill="#E3E3E3" d="M3.568 48.575V13.728L0 17.394v32.039l.092.239c.127.551.342 1.133.717 1.709l2.759-2.806z"/>
    <path fill="#EBEBEB" d="M13.939 86.922L.717 73.997 13.94 61.081h34.63c1.831 0 3.265 5.675 3.265 12.921s-1.434 12.922-3.265 12.922H13.94v-.002z"/>
    <path fill="#EDF4F4" d="M48.57 61.576c1.151 0 2.759 4.728 2.759 12.425 0 7.701-1.607 12.428-2.759 12.428H14.149L1.432 73.997l12.717-12.421H48.57m0-.99H13.73L0 73.997l13.73 13.422h34.84c5.028-.001 5.028-26.833 0-26.833z"/>
    <path fill="#E6E6E6" d="M48.57 60.586l2.788-2.749A5.115 5.115 0 0 0 48.57 57H17.375l-3.645 3.587 34.84-.001z"/>
    <path fill="#E8E8E8" d="M48.57 87.418H13.73L17.374 91h32.709l.345-.342c.311-.127.624-.301.936-.494l-2.794-2.746z"/>
    <path fill="#F0F0F0" d="M51.358 57.837l-2.788 2.749c5.028 0 5.028 26.832 0 26.832l2.794 2.746c1.385-.92 2.738-2.717 3.591-6.082.671-2.716 1.045-6.29 1.045-10.085 0-3.791-.373-7.365-1.045-10.082-.855-3.366-2.207-5.158-3.597-6.078z"/>
    <path fill="#EBEBEB" d="M7.43 122.924c-1.842 0-3.287-5.677-3.287-12.923 0-7.244 1.445-12.919 3.287-12.919h34.631l13.224 12.915-13.224 12.927H7.43z"/>
    <path fill="#EDF4F4" d="M41.852 97.578l12.717 12.42-12.717 12.432H7.43c-1.161 0-2.779-4.728-2.779-12.426s1.619-12.428 2.78-12.428h34.421m.418-.989H7.43c-5.056 0-5.056 26.832 0 26.832h34.84L56 109.998 42.27 96.587z"/>
    <path fill="#DBDBDB" d="M42.27 96.587L38.625 93H7.431c-.874 0-1.844.223-2.818.837l2.818 2.748 34.839.002z"/>
    <path fill="#D6D6D6" d="M7.43 96.587l-2.817-2.75c-1.384.922-2.712 2.712-3.568 6.081C.373 102.633 0 106.208 0 109.998c0 3.794.373 7.37 1.045 10.087.855 3.367 2.184 5.157 3.568 6.079l2.817-2.744c-5.056-.001-5.056-26.833 0-26.833z"/>
    <path fill="#E5E5E5" d="M7.43 123.419l-2.817 2.744c.972.613 1.943.837 2.817.837h31.195l3.646-3.581H7.43z"/>
</svg>
