<svg xmlns="http://www.w3.org/2000/svg" width="168.77" height="83.383" viewBox="0 0 168.77 83.383">
    <path fill="#1A1A1A" d="M167.999 41.511c0 22.914-18.578 41.489-41.507 41.489C103.576 83 85 64.425 85 41.511 85 18.577 103.576 0 126.492 0c22.928 0 41.507 18.577 41.507 41.511z"/>
    <path fill="#404040" d="M126.492 0h-.854l-.149.003h-.004l-.026.001h-.035l-.028.001h-.003l-.027.001h-.035l-.028.001h-.001l-.062.002a36.42 36.42 0 0 0-.744.029l.939 19.886a21.59 21.59 0 0 1 1.051-.025V0h.006zm-3.976.188l-.169.017-.028.003h-.009l-.021.002-.014.001a.088.088 0 0 0-.016.002l-.021.002h-.007l-.026.003h-.002c-.558.058-1.113.125-1.664.205l2.83 19.707c.341-.049.688-.091 1.03-.124L122.516.188zm-3.939.566l-.091.018h-.002l-.025.005-.006.001-.023.005-.008.001-.022.005-.009.002-.021.003-.012.002-.018.003-.015.003-.017.003-.014.003-.016.003-.017.003-.015.003-.019.003-.012.002a.071.071 0 0 0-.021.004.036.036 0 0 0-.01.002l-.021.004-.01.002-.022.004-.008.002-.027.005h-.003l-.029.006h-.001c-.48.1-.96.207-1.435.323l4.714 19.341c.334-.081.67-.154 1.007-.22L118.577.754zm-3.867.943c-.269.08-.534.16-.8.245h-.001l-.06.02-.058.018-.005.001-.05.016c-.31.1-.617.203-.922.311l6.56 18.796c.323-.113.651-.219.979-.315L114.71 1.697zm-3.758 1.311c-.616.249-1.227.514-1.826.79l8.342 18.076c.311-.144.628-.281.946-.409l-7.462-18.457zm-3.613 1.669c-.591.307-1.172.628-1.742.962l10.041 17.19c.297-.173.601-.342.905-.5l-9.204-17.652zm-3.436 2.007c-.557.362-1.104.737-1.643 1.125l11.641 16.15a23.1 23.1 0 0 1 .855-.586L103.903 6.684zm-3.23 2.327c-.519.414-1.029.839-1.527 1.277l13.128 14.966c.26-.228.527-.453.798-.667L100.673 9.011zm-2.991 2.624c-.284.273-.563.552-.838.832l-.003.002-.019.02-.004.004-.017.018-.008.008-.014.013-.011.011-.01.011-.016.015-.007.007-.018.018-.005.003c-.145.15-.289.301-.433.453l14.493 13.647c.237-.252.483-.501.732-.74L97.682 11.635zm-2.729 2.899a.03.03 0 0 1-.008.008.049.049 0 0 0-.011.014l-.01.01-.012.014-.01.012-.01.012-.01.011a.174.174 0 0 0-.012.014.065.065 0 0 1-.008.009l-.014.015-.006.007-.014.017-.004.005-.016.019-.001.002c-.375.442-.739.893-1.096 1.351l-.019.024 15.728 12.204c.213-.274.432-.542.657-.807L94.953 14.534zm-2.44 3.144l-.157.226-.004.005-.01.014-.009.012-.006.009c-.315.457-.622.92-.918 1.39l16.82 10.645c.186-.291.378-.581.577-.863L92.513 17.678zm-2.128 3.364c-.152.269-.302.54-.448.812l-.002.004c-.168.311-.331.623-.49.938l17.767 8.982c.154-.306.318-.612.488-.911l-17.315-9.825zm-1.795 3.551c-.068.15-.135.303-.199.454l-.001.001-.024.057-.023.056c-.18.419-.353.842-.519 1.267l18.547 7.231c.125-.318.258-.638.397-.951L88.59 24.593zm-1.445 3.709c-.09.267-.176.531-.26.8l-.003.009c-.001.007-.004.014-.007.021l-.003.01-.006.02-.004.012-.006.019-.003.009-.006.021-.004.01-.006.021-.002.008-.007.021-.003.01-.006.021a.126.126 0 0 0-.003.01l-.006.021-.003.009-.008.021a.019.019 0 0 1-.002.008l-.006.022-.003.009-.005.021-.002.008-.007.022-.002.006-.007.025-.001.004c-.003.008-.005.017-.009.025l-.001.006a.085.085 0 0 1-.008.024l-.001.004-.008.026.003.005-.008.027-.001.002-.008.028v.002c-.056.184-.108.365-.159.55l19.158 5.407c.093-.329.194-.659.304-.982l-18.881-6.322zm-1.081 3.831a40.913 40.913 0 0 0-.333 1.585l-.068.365 19.591 3.535c.061-.336.13-.677.207-1.01l-19.397-4.475zm-.708 3.915a41.32 41.32 0 0 0-.147 1.279v.006a.194.194 0 0 0-.002.024l-.001.01-.001.018-.001.017-.001.011a.164.164 0 0 1-.002.023v.002c-.02.196-.037.392-.053.589l19.84 1.646c.029-.345.065-.692.11-1.034l-19.742-2.591zm-.329 3.968c-.012.317-.02.636-.023.955v.634c0 .134.001.269.003.402l19.906-.233-.001-.263c0-.265.005-.53.014-.792l-19.899-.703zm19.919 2.807l-19.872 1.174c.032.565.078 1.132.134 1.689v.005c0 .012.001.022.003.034l.002.02.001.017.001.012.002.021v.004l.02.183 19.794-2.12a24.366 24.366 0 0 1-.085-1.039zm.221 2.065l-19.669 3.066.005.035.001.009.003.022.003.018a.05.05 0 0 0 .002.012l.004.025v.004c.083.522.177 1.044.279 1.563l.004.021.003.014.002.014.004.021.001.008.006.027v.001l.033.166 19.5-4.011a26.594 26.594 0 0 1-.181-1.015zm.415 2.017l-19.283 4.948c.165.646.347 1.283.54 1.916l19.022-5.874a20.713 20.713 0 0 1-.279-.99zm.606 1.965l-18.714 6.786c.227.626.468 1.244.724 1.854l18.365-7.683a23.702 23.702 0 0 1-.375-.957zm.795 1.898L89.01 59.327l.103.217.004.01.005.01.01.02.001.002c.178.368.361.731.551 1.093l.013.024.003.007.011.018.007.014a.034.034 0 0 0 .006.012l.008.018.004.009.173.325 17.541-9.415a21.589 21.589 0 0 1-.467-.923zm.977 1.819L90.891 62.835l.292.478v.001l.013.021.004.006.008.013a41.178 41.178 0 0 0 .748 1.164l16.557-11.054c-.19-.287-.377-.583-.553-.877zm1.15 1.725L93.1 66.144l.224.3a.461.461 0 0 0 .018.023l.002.002.018.021.003.004c.006.01.012.017.019.024l.015.02.007.008.012.016.007.01.011.015.009.011.011.014.008.012.01.014.01.014a.047.047 0 0 1 .01.01l.011.015.008.011.011.016.007.01.013.017.006.008.015.019.004.005.016.02.003.006.017.021.001.002.019.022.001.001c.229.298.464.593.702.885l15.426-12.585a18.146 18.146 0 0 1-.644-.823zm1.315 1.612L95.616 69.228c.444.493.899.977 1.366 1.45l14.157-13.997a22.235 22.235 0 0 1-.714-.757zm1.463 1.48L98.414 72.059c.249.229.504.457.759.68l.002.002.016.014.009.009.011.009.015.012.005.004.021.018.001.001c.219.189.438.378.662.564l12.759-15.281c-.268-.223-.53-.453-.786-.687zm1.597 1.333L101.47 74.611c.529.4 1.068.787 1.615 1.163l11.242-16.429a24.95 24.95 0 0 1-.842-.608zm1.713 1.173l-10.443 16.949.104.062.004.003c.006.005.013.008.019.011l.011.008.012.007.018.011.006.003c.498.304 1.001.596 1.512.878l.003.002.02.01a.034.034 0 0 0 .012.006l.003.003 9.618-17.431a20.117 20.117 0 0 1-.899-.522zm1.81.998l-8.77 17.873.335.163.002.001.024.012.005.002.021.01c.003.002.006.004.01.004l.016.009.015.006.013.006a.142.142 0 0 0 .018.008l.011.006.019.008.009.004a.215.215 0 0 1 .026.014l.026.012.001.002c.416.195.835.385 1.259.569l7.896-18.274a22.104 22.104 0 0 1-.936-.435zm1.889.817l-7.006 18.635c.621.233 1.245.451 1.881.655l6.097-18.951a21.89 21.89 0 0 1-.972-.339zm1.958.63l-5.173 19.224.239.063h.001l.027.007.004.001.024.007a.03.03 0 0 1 .009.002l.021.004.013.004.015.004.02.004.034.01.006.001.029.008c.495.127.99.245 1.492.354l4.24-19.453c-.335-.07-.672-.152-1.001-.24zm2.011.437l-3.297 19.634c.654.11 1.312.204 1.971.282l2.352-19.769c-.343-.04-.688-.089-1.026-.147zm2.061.246l-1.404 19.858.403.026.015.001.016.001.022.001h.008l.026.001h.005c.317.02.636.033.956.045h.009l.017.001h.059l.028.001h.003l.421.012.462-19.902c-.349-.004-.698-.02-1.046-.045zm3.147 0c-.349.023-.698.041-1.048.049l.476 19.902c.205-.004.411-.01.617-.019h.007l.025-.001h.006l.028-.001h.001c.396-.017.788-.037 1.18-.063h.001l.061-.004h.001l.029-.002h.002l.029-.003-1.415-19.858zm2.061-.247a19.71 19.71 0 0 1-1.024.147l2.36 19.769c.61-.073 1.219-.159 1.824-.259h.001l.029-.006h.007l.024-.005.009-.001a.078.078 0 0 0 .022-.004l.011-.001a.918.918 0 0 0 .02-.003l.013-.002a.03.03 0 0 0 .009-.002l-3.305-19.633zm2.015-.44c-.332.09-.665.171-1.001.243l4.248 19.451.219-.049h.003l.027-.006.008-.002.021-.005.015-.004.016-.003.02-.005.009-.002.022-.005.007-.002.026-.006h.003l.027-.006h.002c.252-.058.505-.118.756-.182h.001l.024-.006.005-.001.025-.006.006-.002.024-.006h.007l.022-.006.008-.002.022-.006a.049.049 0 0 0 .007-.003l.024-.005.006-.002.024-.006.006-.001.022-.006.006-.002.025-.006h.005a.112.112 0 0 0 .026-.008h.003a.147.147 0 0 0 .025-.008h.005l.027-.007h.001l.39-.103-5.174-19.225zm1.957-.632c-.319.121-.646.235-.971.339l6.104 18.949c.306-.098.612-.2.915-.306h.001a.415.415 0 0 1 .053-.02l.008-.004.021-.005.013-.004.016-.006.016-.006.012-.004.021-.008.007-.002.024-.01h.004c.258-.092.514-.186.769-.281l-7.013-18.632zm1.891-.816c-.308.149-.622.296-.937.432l7.902 18.272c.349-.151.695-.307 1.039-.468h.003l.021-.012.007-.002.021-.01.009-.004.019-.008.011-.006.016-.006.015-.006.01-.006.02-.009.004-.002a34.5 34.5 0 0 0 .613-.295l-8.773-17.87zm1.81-.999c-.294.181-.592.354-.894.521l9.623 17.428.179-.1.004-.002a.437.437 0 0 0 .022-.012l.005-.004.02-.01.009-.006.017-.008.013-.007.011-.006.019-.01.007-.004.021-.012.006-.004c.467-.264.931-.537 1.388-.818l-10.45-16.946zm1.713-1.175c-.275.208-.56.414-.844.607l11.247 16.426c.252-.172.502-.348.749-.525l.002-.002.023-.017.002-.001.022-.016.005-.004.02-.016.006-.004.019-.012.009-.007.015-.012.012-.008.013-.009.013-.011.013-.008.015-.01.009-.007.018-.013.007-.006.021-.014.003-.002.022-.018.003-.002c.201-.146.399-.295.597-.444l-12.021-15.865zm1.594-1.331a24.24 24.24 0 0 1-.782.685l12.764 15.278.013-.012.004-.003.02-.017.006-.004.018-.016.007-.006.017-.014.008-.008.015-.012.009-.007.015-.014.01-.008.015-.012.011-.009.012-.011c.005-.002.009-.006.013-.01l.012-.01.013-.011.01-.009.015-.012.01-.008.015-.013.007-.006.018-.015.006-.006.017-.015.004-.004.021-.017.004-.004.021-.017.002-.001.021-.019.002-.002c.331-.284.656-.572.977-.863l.004-.004.019-.018.006-.006.017-.014.011-.01.011-.011.015-.013.007-.008.019-.016.003-.002.022-.021.007-.008-13.491-14.637zm1.463-1.481c-.231.257-.47.51-.714.757l14.162 13.993.005-.006.016-.016.003-.004c.312-.316.619-.638.921-.964l.002-.002.019-.02.006-.006.015-.016.011-.012.01-.011.014-.015.006-.008.02-.021.001-.001c.105-.116.214-.234.318-.352l-14.815-13.296zm1.316-1.613c-.205.276-.419.554-.638.82l15.429 12.58.005-.007.013-.016.008-.01.013-.016.009-.01a.076.076 0 0 1 .011-.014l.01-.013.009-.011.014-.016.006-.009.015-.019.004-.004.018-.021.002-.003.018-.022h.001a46.034 46.034 0 0 0 .634-.806l.001-.002.015-.02.004-.006.011-.016.009-.01.008-.012a.143.143 0 0 1 .011-.015l.005-.007c.005-.006.01-.012.014-.02l.002-.002c.119-.155.237-.313.354-.472l-16.015-11.821zm1.15-1.724c-.178.294-.363.59-.555.875l16.562 11.049.138-.21.013-.02.003-.005c.308-.467.604-.939.894-1.42l.001-.002.013-.021a.017.017 0 0 0 .002-.005L145.044 52.58zm.976-1.82c-.146.309-.304.618-.466.92l17.543 9.409c.236-.441.466-.887.687-1.336v-.001l.013-.023.004-.01.009-.018.007-.014.006-.012.011-.021.003-.006.161-.336-17.978-8.552zm.793-1.899c-.116.32-.241.643-.373.958l18.368 7.676c.097-.228.189-.457.281-.688l.002-.006.009-.021a.08.08 0 0 1 .004-.009l.008-.02.006-.016.005-.014c.003-.008.006-.018.01-.025l.001-.002c.137-.349.27-.7.398-1.054l-18.719-6.779zm.606-1.965c-.085.331-.178.664-.279.99l19.024 5.868.124-.414.001-.004.008-.024.001-.005.006-.023a.019.019 0 0 0 .002-.008l.008-.021.002-.008.007-.023.002-.006.007-.024.001-.005.007-.024.001-.005.008-.026.001-.002c.003-.01.005-.02.009-.028v-.003l.008-.027v-.001l.008-.028v-.002c.114-.398.224-.799.327-1.201l-19.283-4.946zm.414-2.017c-.054.339-.113.679-.183 1.015l19.5 4.003c.133-.649.251-1.303.353-1.958l-19.67-3.06zm.22-2.064c-.021.345-.049.693-.086 1.037l19.795 2.112c.025-.233.049-.465.069-.7v-.002l.002-.026v-.008l.002-.021.001-.012.001-.013c.033-.378.061-.757.083-1.138l.003-.063-19.87-1.166zM167.973 40l-19.895.71c.009.266.014.533.014.8l-.001.255 19.906.226.003-.388v-.504l-.001-.089v-.041a30.692 30.692 0 0 0-.008-.431v-.001l-.002-.092v-.053l-.001-.026-.001-.033v-.013l-.001-.035v-.006a5.207 5.207 0 0 1-.013-.279zm-.331-3.966l-19.737 2.599c.044.341.082.688.11 1.034l19.84-1.655c-.014-.155-.027-.311-.042-.466 0-.001 0 0 0 0l-.003-.028v-.008l-.002-.022-.001-.013-.003-.018-.002-.021-.001-.01-.003-.03a50.616 50.616 0 0 0-.156-1.362zm-.71-3.916l-19.396 4.483c.078.333.147.672.208 1.01l19.59-3.543a43.82 43.82 0 0 0-.183-.946v-.004a.174.174 0 0 0-.005-.022l-.002-.01-.005-.02-.003-.013-.003-.016-.003-.016-.003-.015-.004-.018-.002-.012-.004-.021-.002-.01-.004-.022-.002-.007-.005-.024-.001-.008c-.003-.008-.004-.017-.006-.025l-.001-.004-.006-.026-.001-.004-.006-.028-.001-.002-.006-.029v-.002l-.068-.313-.001-.004-.005-.026-.006-.025-.001-.003a1.055 1.055 0 0 0-.006-.026l-.001-.005-.056-.244zm-1.083-3.831l-18.872 6.334c.109.323.211.653.305.982l19.156-5.415-.003-.007c0-.004-.002-.009-.004-.014a.12.12 0 0 0-.005-.018l-.002-.011-.006-.022-.001-.006a45.422 45.422 0 0 0-.454-1.486l-.003-.009-.004-.014-.006-.018-.001-.004c-.034-.096-.067-.194-.1-.292zm-1.446-3.707l-18.174 8.125c.14.313.273.632.397.951l18.544-7.238a39.069 39.069 0 0 0-.767-1.838zm-1.797-3.552l-17.31 9.833c.169.299.333.604.489.911l17.761-8.991a41.824 41.824 0 0 0-.819-1.537v-.001l-.015-.026-.001-.001-.017-.028-.013-.023-.003-.005-.011-.02-.007-.01-.01-.017-.006-.012-.007-.014-.008-.015-.007-.012-.012-.02-.003-.006-.001-.006zm-2.13-3.361l-16.289 11.446c.198.281.392.572.577.863l16.817-10.653-.129-.202-.007-.011-.005-.008-.013-.02-.001-.001c-.214-.332-.432-.66-.654-.985l-.006-.009-.011-.015-.011-.017-.005-.006a12.89 12.89 0 0 0-.263-.382zm-2.442-3.144L142.912 27.47c.226.263.446.533.658.807l15.722-12.212-.114-.147a.385.385 0 0 0-.019-.023l-.002-.003-.016-.021-.006-.007-.013-.017-.007-.009-.012-.015-.01-.012-.009-.011a.069.069 0 0 0-.011-.013l-.007-.011-.012-.016-.007-.008-.014-.017-.005-.007c-.005-.006-.011-.012-.015-.019l-.005-.005-.016-.02-.003-.004-.017-.021-.002-.002-.021-.024-.017-.021-.003-.003a.22.22 0 0 0-.02-.023l-.018-.022-.002-.002-.018-.022-.003-.003-.016-.021-.003-.004-.017-.02-.004-.004-.016-.02-.003-.004-.017-.019-.004-.006-.015-.018-.005-.007-.015-.017-.006-.008-.013-.017-.007-.008-.014-.016-.007-.009-.012-.015-.008-.01-.011-.014-.01-.011-.011-.012-.009-.012-.009-.012-.011-.013-.009-.011a.076.076 0 0 1-.011-.014l-.008-.01-.013-.015-.007-.008-.014-.017-.005-.006-.017-.019a.018.018 0 0 0-.004-.005l-.016-.02-.003-.003-.018-.021-.003-.004-.016-.02-.003-.004-.018-.02-.003-.003a.313.313 0 0 0-.017-.021l-.003-.003-.016-.021-.004-.004a.313.313 0 0 0-.017-.021l-.003-.003-.017-.02-.004-.004-.017-.02-.003-.004-.017-.02-.005-.005-.015-.018-.005-.006-.015-.018-.006-.007-.015-.016-.006-.007-.014-.017-.007-.008-.014-.015-.008-.01-.011-.013-.01-.012-.009-.011-.012-.014-.008-.009-.016-.018a.022.022 0 0 1-.004-.005l-.017-.02-.003-.003a.676.676 0 0 0-.105-.144zm-2.729-2.897l-13.819 14.33c.249.239.496.488.732.74l14.487-13.654-.002-.002a43.346 43.346 0 0 0-1.398-1.414zm-2.993-2.624L139.92 24.583c.27.215.539.439.798.667l13.121-14.972-.233-.203-.006-.005-.016-.014-.015-.012-.008-.007a40.313 40.313 0 0 0-1.249-1.035zm-3.23-2.325l-10.846 16.694c.287.187.575.384.855.585l11.634-16.154c-.15-.108-.302-.216-.455-.322l-.002-.001-.017-.011-.01-.007a.03.03 0 0 0-.007-.005l-.02-.013h-.001a35.95 35.95 0 0 0-.514-.353l-.006-.004-.02-.013-.012-.008-.013-.009-.02-.013-.007-.004a20.217 20.217 0 0 0-.539-.362zm-3.438-2.007l-9.196 17.657c.306.158.608.326.905.5l10.034-17.194c-.143-.083-.287-.167-.431-.248l-.054-.03-.054-.029a38.874 38.874 0 0 0-1.204-.656zm-3.613-1.665l-7.454 18.459c.317.128.636.266.946.409l8.335-18.08-.013-.006-.014-.006-.014-.006-.016-.007-.014-.006-.016-.007-.014-.005-.015-.006-.015-.007-.013-.006-.014-.006-.016-.007-.011-.005a.142.142 0 0 1-.018-.008l-.01-.005-.014-.006-.015-.006-.015-.007-.006-.003-.022-.01-.013-.006-.015-.007a37.458 37.458 0 0 0-1.514-.65zm-3.76-1.311l-5.638 19.092c.328.097.657.203.979.315l6.553-18.798c-.439-.153-.883-.3-1.329-.438l-.003-.001-.027-.008a.019.019 0 0 1-.007-.002l-.021-.006-.014-.004-.017-.005-.021-.006-.007-.002-.026-.008h-.003a20.266 20.266 0 0 0-.419-.129zm-3.865-.942L130.635 20.3c.335.064.676.139 1.007.219l4.708-19.344-.004-.001-.019-.004-.014-.003-.017-.004-.017-.004-.013-.003-.019-.004-.012-.003-.021-.005-.009-.002-.023-.005a.019.019 0 0 1-.007-.002l-.026-.006h-.002l-.029-.007h-.001a63.415 63.415 0 0 0-.816-.185h-.001l-.062-.013h-.003l-.028-.006h-.002l-.027-.006-.006-.001-.025-.005-.006-.001-.021-.004-.012-.002-.016-.002-.017-.003-.009-.002a15.1 15.1 0 0 0-.66-.14zm-3.94-.565l-1.881 19.82c.343.032.69.073 1.031.123L132.442.423a28.442 28.442 0 0 0-.528-.072l-.01-.001-.021-.003-.014-.002-.016-.002-.02-.002-.011-.001a1.215 1.215 0 0 1-.022-.003h-.006a1.772 1.772 0 0 1-.025-.003h-.004c-.307-.04-.614-.075-.922-.106h-.003l-.02-.002-.014-.001-.014-.001a.123.123 0 0 1-.019-.002l-.011-.001-.023-.002h-.005c-.088-.014-.181-.023-.268-.032zM126.492 0v19.908c.351 0 .703.008 1.052.024L128.48.046a44.162 44.162 0 0 0-1.208-.04h-.746C126.513 0 126.503 0 126.492 0z"/>
    <path fill="#262626" d="M126.492 1.991c21.79 0 39.516 17.729 39.516 39.521 0 21.779-17.726 39.498-39.516 39.498-21.781 0-39.501-17.719-39.501-39.498 0-21.792 17.72-39.521 39.501-39.521m0-1.991C103.576 0 85 18.577 85 41.511 85 64.425 103.576 83 126.492 83c22.929 0 41.507-18.575 41.507-41.489C167.999 18.577 149.42 0 126.492 0z"/>
    <path opacity=".06" fill="#FFF" d="M162.347 41.511c0 19.784-16.052 35.837-35.854 35.837-19.787 0-35.84-16.053-35.84-35.837 0-19.806 16.053-35.859 35.84-35.859 19.802 0 35.854 16.053 35.854 35.859z"/>
    <path fill="#212121" d="M126.492 69.511c-15.437 0-27.994-12.561-27.994-27.999 0-15.435 12.558-27.992 27.994-27.992 15.438 0 27.996 12.557 27.996 27.992.001 15.439-12.557 27.999-27.996 27.999z"/>
    <path fill="#1A1A1A" d="M126.492 16.506c13.791 0 25.011 11.217 25.011 25.005 0 13.792-11.22 25.012-25.011 25.012-13.79 0-25.008-11.22-25.008-25.012.001-13.788 11.218-25.005 25.008-25.005m0-5.973c-17.115 0-30.98 13.863-30.98 30.978 0 17.112 13.865 30.984 30.98 30.984 17.118 0 30.982-13.872 30.982-30.984.001-17.115-13.863-30.978-30.982-30.978z"/>
    <path fill="#E5E5E5" d="M82.999 41.511C82.999 64.425 64.422 83 41.492 83 18.576 83 0 64.425 0 41.511 0 18.577 18.576 0 41.492 0c22.93 0 41.507 18.577 41.507 41.511z"/>
    <path fill="#BFBFBF" d="M41.492 0h-.854l-.147.003h-.004l-.027.001h-.036l-.027.001h-.003l-.027.001h-.035l-.028.001h-.002l-.062.002a36.42 36.42 0 0 0-.744.029l.939 19.886c.353-.008.707-.016 1.057-.016V0zm-3.977.188a9.553 9.553 0 0 0-.196.02h-.01l-.02.002-.014.001-.016.002-.02.002h-.008l-.025.003h-.002c-.559.058-1.113.125-1.664.205l2.831 19.707c.34-.049.686-.091 1.03-.124L37.515.188zm-3.939.566l-.09.018h-.002l-.026.005-.006.001-.023.005-.008.001-.022.004-.009.002-.021.003-.011.002-.017.003-.016.003-.016.003-.015.003-.016.003-.017.003-.015.003-.016.004-.012.002a.065.065 0 0 0-.021.004.036.036 0 0 0-.01.002l-.022.004-.009.002-.022.004-.009.002-.026.005h-.003l-.03.006h-.001c-.481.1-.959.207-1.435.323l4.714 19.341c.333-.081.67-.154 1.006-.22L33.576.754zm-3.866.943c-.268.08-.534.16-.799.245h-.001l-.062.02-.056.018-.005.001-.05.016c-.31.1-.617.203-.923.311l6.562 18.796c.322-.113.65-.219.978-.315L29.71 1.697zm-3.757 1.311c-.616.249-1.227.514-1.828.79l8.343 18.076c.31-.144.628-.281.945-.409l-7.46-18.457zm-3.615 1.669c-.589.307-1.17.628-1.742.962l10.041 17.19c.298-.173.602-.342.905-.5L22.338 4.677zm-3.435 2.007c-.557.362-1.104.737-1.643 1.125l11.641 16.15c.279-.202.567-.398.855-.586L18.903 6.684zm-3.229 2.327c-.52.414-1.029.839-1.528 1.277l13.128 14.965c.261-.228.528-.453.799-.667L15.674 9.011zm-2.993 2.624c-.284.273-.563.552-.839.832l-.002.002-.019.02-.003.004-.018.018-.007.008-.014.013-.011.011-.011.011-.015.015-.007.007-.019.018-.004.003c-.145.15-.29.301-.432.453l14.493 13.647c.237-.252.483-.501.732-.74L12.681 11.635zm-2.728 2.899l-.008.008a.053.053 0 0 0-.012.014l-.008.01-.012.014-.01.012-.011.012-.009.011-.011.015-.008.009-.014.015-.005.006-.014.017-.004.005-.016.019-.001.002c-.375.442-.74.893-1.096 1.351l-.02.024 15.729 12.204c.213-.274.431-.542.656-.807L9.953 14.534zm-2.44 3.144l-.157.226-.004.005-.01.014-.009.012-.007.009c-.315.457-.622.92-.918 1.39L23.23 29.979c.184-.291.377-.581.576-.863L7.513 17.678zm-2.128 3.364c-.153.269-.303.54-.449.812l-.002.004c-.167.311-.331.623-.49.938l17.766 8.982c.154-.306.319-.612.489-.911L5.385 21.042zm-1.796 3.551c-.067.15-.134.303-.199.454l-.001.001-.023.057-.024.056c-.179.419-.352.842-.518 1.267l18.548 7.231c.124-.318.257-.638.397-.951l-18.18-8.115zm-1.445 3.709c-.09.267-.175.531-.259.8l-.003.009-.007.021-.003.01-.006.02-.004.012-.006.019-.004.009-.006.021-.003.01-.005.021-.002.008-.006.021-.003.01-.006.021a.017.017 0 0 0-.003.01l-.007.021-.003.009-.007.021a.019.019 0 0 1-.002.008l-.006.022-.003.009-.006.021-.002.008-.007.022-.002.006-.008.025-.001.004a.241.241 0 0 1-.008.025l-.001.006a.135.135 0 0 1-.008.024l-.001.004-.008.026.001.005-.008.027-.001.002-.008.028v.002c-.055.184-.107.365-.16.55l19.159 5.407c.093-.329.195-.659.304-.982L2.144 28.302zm-1.081 3.831a40.913 40.913 0 0 0-.333 1.585l-.067.365 19.59 3.535c.062-.336.13-.677.207-1.01L1.063 32.133zm-.708 3.915c-.056.425-.104.851-.147 1.279v.006a.194.194 0 0 0-.002.024l-.001.01-.001.018-.001.017-.001.011-.002.023v.002c-.02.196-.037.392-.053.589l19.84 1.646c.028-.345.065-.692.11-1.034L.355 36.048zm-.329 3.968c-.011.317-.019.636-.022.955v.634c0 .134.001.269.003.402l19.906-.233-.004-.262c0-.265.004-.53.013-.792L.026 40.016zm19.921 2.807L.074 43.997c.032.565.078 1.132.134 1.689v.005c0 .012.001.022.003.034l.002.02.001.017.001.012.002.021v.004l.019.183 19.794-2.12a22.709 22.709 0 0 1-.083-1.039zm.22 2.064L.498 47.953l.005.037.001.008.003.021.003.018a.05.05 0 0 0 .002.013l.004.024v.006c.083.522.176 1.044.28 1.563l.004.021.003.015.002.014.004.021.001.007.005.028v.001l.034.166 19.499-4.01c-.067-.34-.127-.679-.181-1.019zm.415 2.018L1.299 51.853c.165.646.346 1.283.54 1.916l19.022-5.874a20.713 20.713 0 0 1-.279-.99zm.607 1.964L2.473 55.656c.227.626.469 1.244.725 1.854l18.366-7.683a18.27 18.27 0 0 1-.375-.958zm.794 1.899L4.009 59.327l.104.217.004.01.005.01.009.02.001.002a39.881 39.881 0 0 0 .564 1.117l.003.007.01.018.007.014.007.012.009.018.004.009.172.325 17.542-9.415a21.589 21.589 0 0 1-.467-.923zm.976 1.819L5.891 62.835c.096.159.192.317.292.478v.001l.013.021.004.006.008.013.013.021c.238.385.484.767.735 1.143l16.56-11.054a22.34 22.34 0 0 1-.557-.877zm1.152 1.725L8.101 66.144l.223.3.019.023.002.002.016.021.003.004a.17.17 0 0 0 .02.024l.015.02.006.008.013.016.007.01.011.015.008.011.012.014.007.012.01.014.01.014a.028.028 0 0 1 .009.01l.012.015.008.011.012.018.006.009.014.016.006.008.015.02.003.005.016.021.003.004.017.021-.004-.003.019.023.001.001c.229.298.464.593.701.885l15.426-12.584c-.218-.267-.43-.542-.636-.82zm1.314 1.612L10.617 69.228c.443.493.898.977 1.366 1.45L26.14 56.681a22.208 22.208 0 0 1-.715-.757zm1.464 1.48L13.414 72.059c.249.229.503.457.757.68l.003.002.017.014.009.009.01.009.016.012.005.004.019.018.001.001c.22.189.439.378.662.564l12.759-15.28a25.663 25.663 0 0 1-.783-.688zm1.597 1.333L16.469 74.611c.529.4 1.067.787 1.616 1.163l11.243-16.429a20.901 20.901 0 0 1-.842-.608zm1.712 1.173L19.754 76.859l.104.062.004.003a.072.072 0 0 0 .019.011l.01.008.013.007.017.011.006.003c.498.304 1.001.596 1.512.878l.003.002.02.01a.04.04 0 0 0 .011.006l.004.003 9.617-17.431a23.832 23.832 0 0 1-.896-.522zm1.809.998l-8.768 17.873.334.163.002.001.024.012.005.002.021.01c.004.002.007.004.011.004l.017.008.014.007.014.006a.245.245 0 0 0 .017.008l.01.006.02.008.009.004a.215.215 0 0 1 .026.014l.025.012.001.002c.416.195.835.385 1.26.569l7.896-18.274a22.183 22.183 0 0 1-.938-.435zm1.89.817L26.892 80.36c.621.233 1.245.451 1.88.655l6.096-18.951c-.326-.106-.65-.218-.971-.339zm1.957.63l-5.172 19.224.238.063h.001l.028.007.004.001.024.007a.03.03 0 0 1 .009.002l.021.004.014.004.015.004.018.004.034.01.005.001a40.976 40.976 0 0 0 1.523.362l4.239-19.453c-.335-.07-.671-.152-1.001-.24zm2.012.437l-3.297 19.634c.655.11 1.312.204 1.971.282l2.351-19.769c-.341-.04-.687-.089-1.025-.147zm2.06.246l-1.404 19.858.403.026.015.001.016.001.023.001h.008l.025.001h.006c.317.02.636.033.956.045h.008l.018.001h.06l.027.001h.003l.422.012.462-19.902a17.45 17.45 0 0 1-1.048-.045zm3.147 0c-.348.023-.698.041-1.047.049l.475 19.902c.206-.004.412-.01.617-.019h.008l.025-.001h.005l.03-.001h.001a50.42 50.42 0 0 0 1.178-.063h.001l.061-.004h.001l.03-.002h.002l.028-.003-1.415-19.858zm2.062-.247c-.338.058-.683.107-1.025.147l2.361 19.769c.61-.073 1.219-.159 1.824-.259h.001l.029-.006h.007l.024-.005.009-.001a.065.065 0 0 0 .021-.004l.012-.001.02-.003.012-.002.011-.002-3.306-19.633zm2.014-.44c-.332.09-.666.171-1.001.243l4.249 19.451.219-.049h.003l.027-.006.008-.002.021-.005.015-.004.014-.003.021-.005.009-.002.023-.005.007-.002.025-.006h.003l.028-.006h.002c.252-.058.503-.118.754-.182h.001l.026-.006.005-.001.025-.006.005-.002.023-.006h.008l.022-.006.007-.002.023-.006.007-.003.024-.005.006-.002.023-.006.006-.001.024-.006.006-.002.025-.006h.004a.112.112 0 0 0 .026-.008h.003a.147.147 0 0 0 .025-.008h.004l.028-.007h.001l.389-.103-5.173-19.225zm1.958-.632c-.32.121-.646.235-.972.339l6.104 18.949c.306-.098.611-.2.915-.306h.001a.498.498 0 0 1 .054-.02l.007-.004.021-.005.013-.004.015-.006.017-.006.012-.004.021-.008.007-.002.024-.01h.003c.259-.092.514-.186.77-.281l-7.012-18.632zm1.891-.816a24.04 24.04 0 0 1-.936.432l7.901 18.272c.35-.151.696-.307 1.039-.468h.003l.022-.012.007-.002.021-.01.009-.004.018-.008.012-.006.015-.006a.196.196 0 0 0 .014-.006l.011-.006.02-.009.005-.002c.205-.096.409-.195.612-.295l-8.773-17.87zm1.809-.999c-.293.181-.592.354-.894.521l9.623 17.428.18-.1.004-.002.021-.012.006-.004.02-.01.009-.006.017-.008a.054.054 0 0 1 .013-.007l.011-.006.018-.01.006-.004.021-.012.006-.004c.469-.264.931-.537 1.389-.818l-10.45-16.946zm1.712-1.175c-.274.208-.558.414-.843.607l11.248 16.426c.252-.172.501-.348.75-.525l.001-.002.024-.017.002-.001.021-.016.006-.004.02-.016.006-.004.019-.012.009-.007.015-.012.011-.008.014-.009.012-.011.012-.008.016-.01.009-.007.018-.013.008-.006.021-.014.003-.002.022-.018.003-.002c.201-.146.4-.295.597-.444L54.519 58.729zm1.596-1.331c-.254.232-.518.464-.783.685l12.764 15.278.013-.012.004-.003.02-.017.005-.004.018-.016.007-.006.017-.014.008-.008.016-.012.008-.007.016-.014.01-.008.013-.012.012-.009.012-.011c.005-.002.009-.006.013-.01l.011-.01.014-.011.01-.009.014-.012.011-.008.014-.013.007-.006.018-.015.006-.006.018-.015.004-.004.021-.017.004-.004.019-.017.002-.001.022-.019.002-.002c.331-.284.656-.572.976-.863l.005-.004.019-.018.006-.006.016-.014.011-.01.011-.011a.166.166 0 0 1 .014-.013l.008-.008.019-.016.003-.002.022-.021.007-.008-13.487-14.637zm1.464-1.481c-.232.257-.47.51-.713.757l14.161 13.993.005-.006.017-.016.003-.004c.311-.316.619-.638.921-.964l.002-.002.019-.02.006-.006.015-.016.009-.012.011-.011.014-.015.006-.008.02-.021.001-.001c.106-.116.214-.234.319-.352L57.579 55.917zm1.314-1.613c-.205.276-.419.554-.638.82l15.429 12.58.006-.007.012-.016.008-.01.012-.016.01-.01a.076.076 0 0 1 .011-.014l.01-.013.009-.011.014-.016.006-.009.015-.019.004-.004.017-.021.002-.003c.005-.008.012-.015.018-.022h.001a46.034 46.034 0 0 0 .633-.806l.001-.002.016-.02.005-.006.011-.016.008-.01.008-.012.012-.015.005-.007a.099.099 0 0 0 .013-.02l.002-.002c.119-.155.237-.313.354-.472L58.893 54.304zm1.151-1.725a20.85 20.85 0 0 1-.554.876l16.56 11.048.139-.21.013-.02.003-.005c.307-.467.604-.939.893-1.42l.001-.002.013-.021a.017.017 0 0 0 .002-.005l-17.07-10.241zm.975-1.819c-.146.309-.303.618-.465.92l17.543 9.409c.236-.441.464-.887.685-1.336v-.001l.014-.023.004-.01.009-.018a.061.061 0 0 1 .007-.014l.006-.012.011-.021.003-.006.16-.336-17.977-8.552zm.795-1.899c-.117.32-.242.643-.374.958l18.369 7.676c.095-.228.19-.457.281-.688l.002-.006.009-.021c.001-.003.002-.007.004-.009l.007-.02.006-.016.005-.014a.109.109 0 0 1 .01-.025l.001-.002c.137-.349.27-.7.398-1.054l-18.718-6.779zm.605-1.965c-.084.331-.179.664-.279.99l19.023 5.868.125-.414.001-.004.008-.024.001-.005.006-.023a.019.019 0 0 0 .002-.008l.007-.021.002-.008.008-.023.002-.006.007-.024.001-.005.007-.024.001-.005.008-.026.001-.002a.187.187 0 0 1 .008-.028v-.003l.009-.027v-.001l.007-.028v-.002c.115-.398.224-.799.328-1.201l-19.283-4.946zm.414-2.017c-.054.339-.115.679-.184 1.015l19.501 4.003c.132-.649.251-1.303.353-1.958l-19.67-3.06zm.221-2.064c-.021.345-.049.693-.085 1.036l19.794 2.113c.025-.233.048-.465.069-.7v-.002l.002-.026v-.008l.002-.021.001-.012.001-.013c.033-.378.061-.757.083-1.138l.003-.063-19.87-1.166zM82.972 40l-19.894.71c.009.266.013.533.013.8v.255l19.906.226.003-.388v-.504l-.001-.089v-.041a30.692 30.692 0 0 0-.008-.431v-.001l-.002-.092v-.053l-.001-.026-.001-.033v-.013l-.001-.035v-.006a5.21 5.21 0 0 1-.014-.279zm-.332-3.966l-19.737 2.599c.046.341.083.688.112 1.034l19.838-1.655a18.318 18.318 0 0 0-.042-.466c0-.001 0 0 0 0l-.003-.028v-.008l-.002-.022-.001-.013-.002-.018-.002-.021-.001-.01-.003-.03c-.044-.457-.096-.91-.157-1.362zm-.708-3.916l-19.395 4.483c.077.333.146.672.208 1.01l19.589-3.543a43.82 43.82 0 0 0-.183-.946v-.004c-.002-.007-.003-.015-.006-.022l-.002-.01-.004-.02-.002-.013-.003-.016-.003-.016-.003-.015-.004-.018-.002-.012-.004-.021-.002-.01-.004-.022-.002-.007-.005-.024-.001-.008-.005-.025-.001-.004-.006-.026-.001-.004-.006-.028-.001-.002-.006-.029v-.002l-.069-.313-.001-.004-.005-.026a.221.221 0 0 0-.005-.025l-.001-.003a1.055 1.055 0 0 0-.006-.026l-.001-.005-.058-.244zm-1.082-3.831l-18.872 6.334c.109.323.211.653.303.982l19.157-5.415-.002-.007c0-.004-.002-.009-.004-.014a.12.12 0 0 0-.005-.018l-.003-.011-.006-.022-.001-.006-.008-.028a43.93 43.93 0 0 0-.446-1.458l-.003-.009-.004-.014-.005-.018-.001-.003a9.168 9.168 0 0 1-.1-.293zm-1.447-3.707l-18.174 8.125c.139.313.274.632.397.951l18.545-7.238a41.335 41.335 0 0 0-.768-1.838zm-1.798-3.552l-17.309 9.833c.169.298.333.604.488.911l17.762-8.991a40.352 40.352 0 0 0-.819-1.537v-.001l-.015-.026-.002-.001c-.004-.01-.01-.019-.016-.028l-.012-.023-.003-.005-.012-.02-.006-.01-.01-.017-.006-.012-.008-.014-.008-.015-.008-.012-.011-.02-.003-.006-.002-.006zm-2.128-3.361L59.188 29.113c.198.282.392.572.576.863l16.817-10.653-.128-.202-.007-.011-.005-.008-.012-.02-.001-.001c-.214-.332-.432-.66-.654-.985l-.006-.009-.012-.015-.011-.017-.005-.006c-.086-.13-.175-.256-.263-.382zm-2.441-3.144L57.913 27.47c.226.263.446.533.658.807l15.722-12.211-.115-.147a.385.385 0 0 0-.019-.023l-.002-.003-.017-.021-.005-.007-.013-.017-.006-.009-.012-.015-.01-.012-.007-.012a.069.069 0 0 0-.011-.013l-.008-.011-.013-.016-.006-.008-.014-.017-.005-.007a.09.09 0 0 1-.015-.019l-.004-.005-.016-.02-.003-.004-.018-.021-.002-.002-.02-.024-.017-.021-.004-.003a.211.211 0 0 0-.019-.023l-.017-.022-.002-.002-.018-.022-.003-.003a.313.313 0 0 0-.017-.021l-.003-.004-.017-.02a.008.008 0 0 0-.004-.004l-.016-.02-.003-.004-.016-.019-.004-.006-.015-.018-.005-.007-.015-.017-.006-.008-.013-.017-.007-.008-.014-.016-.007-.009-.012-.015-.007-.01-.005-.014-.009-.011-.011-.012-.009-.012-.01-.012-.011-.013-.009-.011a.076.076 0 0 1-.011-.014l-.008-.01-.012-.015-.007-.008-.014-.017-.005-.006-.016-.019a.022.022 0 0 1-.004-.005l-.016-.02-.003-.003-.018-.021-.004-.004-.016-.02-.003-.004-.017-.02-.003-.003a.313.313 0 0 0-.017-.021l-.003-.003-.018-.021-.003-.004a.313.313 0 0 0-.017-.021l-.003-.003-.017-.02-.004-.004-.016-.02-.003-.004-.01-.019-.005-.005-.015-.018-.005-.006-.015-.018-.006-.007-.015-.016-.006-.007-.013-.017-.007-.008-.014-.015-.008-.01-.011-.013-.01-.012-.01-.011-.012-.014-.008-.009-.016-.018a.022.022 0 0 1-.004-.005l-.016-.02-.003-.003a4.478 4.478 0 0 1-.124-.145zm-2.731-2.897l-13.82 14.329c.249.239.496.488.731.74l14.489-13.654-.002-.002a43.315 43.315 0 0 0-1.398-1.413zm-2.993-2.624L54.92 24.583c.27.215.54.439.798.667l13.123-14.972-.233-.203-.008-.004-.017-.014-.014-.012-.008-.007a42.857 42.857 0 0 0-1.249-1.036zm-3.23-2.325L53.235 23.371c.289.187.577.384.856.585L65.724 7.801c-.15-.108-.302-.216-.454-.322l-.003-.001a.153.153 0 0 1-.016-.011l-.011-.007a.03.03 0 0 0-.007-.005l-.02-.013h-.001a26.453 26.453 0 0 0-.518-.358l-.02-.013-.011-.008-.013-.009-.02-.013-.007-.004c-.176-.12-.359-.241-.541-.36zM60.644 4.67l-9.197 17.657c.305.158.609.326.905.5L62.387 5.633a60.36 60.36 0 0 0-.431-.248l-.054-.03-.054-.029a41.113 41.113 0 0 0-1.204-.656zM57.03 3.005l-7.454 18.459c.317.128.635.266.946.409l8.335-18.08-.013-.006-.014-.006-.014-.006a.077.077 0 0 1-.016-.007l-.014-.006-.015-.007-.011-.004-.015-.006-.016-.007c-.002-.004-.007-.005-.011-.007l-.014-.006-.016-.007-.01-.005a.142.142 0 0 1-.018-.008l-.015-.006-.015-.006-.014-.006-.012-.007-.006-.003-.022-.01-.012-.006-.016-.007a39.769 39.769 0 0 0-1.518-.649zm-3.758-1.311l-5.638 19.092c.328.097.657.203.979.315l6.554-18.798c-.44-.153-.885-.3-1.33-.438l-.003-.001-.027-.008a.019.019 0 0 1-.007-.002l-.022-.006-.013-.004a.084.084 0 0 1-.017-.005l-.021-.006-.007-.002-.027-.008h-.003a20.177 20.177 0 0 0-.418-.129zM49.406.752L45.635 20.3c.335.064.674.139 1.006.219l4.708-19.344-.004-.001-.02-.004-.012-.003-.017-.004-.015-.003-.013-.003-.02-.004-.01-.003-.02-.005-.01-.002-.022-.005-.007-.002-.027-.006h-.002l-.03-.007h-.001a45.727 45.727 0 0 0-.815-.187h-.001L50.24.922h-.003l-.029-.006h-.002L50.18.911 50.174.91l-.025-.005-.006-.001L50.122.9 50.11.898l-.016-.003-.017-.003-.008-.002c-.219-.05-.442-.095-.663-.138zm-3.94-.565l-1.881 19.82c.343.032.69.073 1.031.123L47.443.423a28.553 28.553 0 0 0-.5-.068l-.029-.004-.009-.001-.022-.003-.014-.002-.017-.002-.019-.003-.011-.001A1.215 1.215 0 0 1 46.8.336h-.007l-.026-.003h-.004c-.306-.04-.613-.075-.921-.106h-.003l-.02-.002-.014-.001-.014-.001-.02-.002-.01-.001-.021-.002h-.006c-.089-.013-.18-.022-.268-.031zM41.492 0v19.908c.351 0 .704.008 1.052.024L43.48.047a44.162 44.162 0 0 0-1.208-.04h-.746C41.514 0 41.503 0 41.492 0z"/>
    <path fill="#D9D9D9" d="M41.492 1.991c21.791 0 39.517 17.729 39.517 39.521 0 21.779-17.726 39.498-39.517 39.498-21.781 0-39.501-17.719-39.501-39.498 0-21.792 17.72-39.521 39.501-39.521m0-1.991C18.576 0 0 18.577 0 41.511 0 64.425 18.576 83 41.492 83c22.93 0 41.507-18.575 41.507-41.489C82.999 18.577 64.422 0 41.492 0z"/>
    <path opacity=".06" d="M77.348 41.511c0 19.784-16.051 35.837-35.855 35.837-19.787 0-35.839-16.053-35.839-35.837 0-19.806 16.052-35.859 35.839-35.859 19.803 0 35.855 16.053 35.855 35.859z"/>
    <path fill="#DEDEDE" d="M41.492 69.511c-15.436 0-27.994-12.561-27.994-27.999 0-15.435 12.558-27.992 27.994-27.992 15.438 0 27.997 12.557 27.997 27.992.001 15.439-12.559 27.999-27.997 27.999z"/>
    <path fill="#E5E5E5" d="M41.492 16.506c13.792 0 25.011 11.217 25.011 25.005 0 13.792-11.219 25.012-25.011 25.012-13.79 0-25.008-11.22-25.008-25.012 0-13.788 11.219-25.005 25.008-25.005m0-5.973c-17.115 0-30.98 13.863-30.98 30.978 0 17.112 13.865 30.984 30.98 30.984 17.119 0 30.983-13.872 30.983-30.984.001-17.115-13.864-30.978-30.983-30.978z"/>
</svg>
