<svg xmlns="http://www.w3.org/2000/svg" width="168.77" height="83.384" viewBox="0 0 168.77 83.384">
    <path fill="#1A1A1A" d="M168.77 41.703c0 23.02-18.664 41.681-41.7 41.681-23.023 0-41.685-18.661-41.685-41.681C85.385 18.663 104.047 0 127.07 0c23.035 0 41.7 18.663 41.7 41.703z"/>
    <path fill="#404040" d="M127.07 0h-.858l-.149.003h-.004l-.027.001h-.036l-.028.001h-.003l-.027.001h-.035l-.029.001h-.001l-.062.002c-.25.007-.499.017-.747.029l.943 19.978c.349-.017.705-.025 1.056-.025V0h.007zm-3.995.189a9.665 9.665 0 0 0-.169.017 2.752 2.752 0 0 1-.029.003h-.009l-.021.002-.014.001a.077.077 0 0 0-.015.002l-.021.002h-.007l-.026.003h-.002c-.561.058-1.118.126-1.672.206l2.844 19.797c.342-.049.69-.091 1.035-.124L123.075.189zm-3.957.569l-.091.018h-.002l-.026.005-.006.001-.023.005-.008.001-.022.004a.037.037 0 0 0-.009.002l-.021.004-.011.002-.018.003-.015.003-.016.003-.015.003-.015.003-.017.003-.015.003-.018.003-.012.002a.155.155 0 0 0-.021.004.036.036 0 0 0-.01.002l-.022.004-.009.002-.023.004-.008.002-.027.005h-.003l-.03.006h-.001c-.483.1-.964.208-1.441.324l4.736 19.431a22.71 22.71 0 0 1 1.011-.221L119.118.758zm-3.885.947c-.27.08-.536.161-.803.246h-.001a1.089 1.089 0 0 0-.061.02l-.057.018-.005.001-.05.016c-.311.1-.62.204-.927.312l6.591 18.883c.324-.113.654-.22.983-.316l-5.67-19.18zm-3.775 1.317c-.619.25-1.232.516-1.835.794l8.381 18.159c.312-.144.631-.282.95-.411l-7.496-18.542zm-3.631 1.676c-.592.309-1.176.631-1.75.967l10.088 17.27c.298-.174.604-.343.909-.502l-9.247-17.735zm-3.452 2.017c-.559.364-1.109.74-1.65 1.13L114.42 24.07c.281-.203.57-.4.86-.589L104.375 6.715zm-3.244 2.338a41.85 41.85 0 0 0-1.535 1.283l13.189 15.035c.261-.229.53-.455.802-.67L101.131 9.053zm-3.006 2.636c-.285.275-.565.554-.842.836l-.002.002-.019.02-.004.004-.017.018-.007.008-.014.014-.011.011-.01.011-.015.015-.007.007-.018.018-.004.003c-.146.151-.291.303-.435.455l14.561 13.71c.238-.253.485-.503.735-.744L98.125 11.689zm-2.741 2.912a.065.065 0 0 1-.008.009.076.076 0 0 0-.011.014l-.009.01-.012.014-.01.012-.01.012-.009.011a.174.174 0 0 0-.012.014.065.065 0 0 1-.008.009l-.013.015-.006.007-.014.017-.004.005-.016.019-.001.002c-.376.444-.743.897-1.101 1.357l-.019.024 15.801 12.26a23.3 23.3 0 0 1 .66-.81L95.384 14.601zm-2.451 3.159l-.158.227a.018.018 0 0 1-.004.005l-.01.015a.094.094 0 0 1-.009.012l-.006.009c-.317.459-.625.924-.923 1.396l16.9 10.694c.185-.292.379-.584.579-.867L92.933 17.76zm-2.138 3.379c-.153.27-.304.542-.451.816l-.002.004a45.83 45.83 0 0 0-.492.942l17.849 9.024c.155-.308.32-.615.491-.915l-17.395-9.871zm-1.804 3.568c-.068.151-.135.304-.2.456l-.001.001-.024.057-.024.057c-.18.421-.354.846-.521 1.273l18.634 7.264c.125-.32.259-.641.399-.955l-18.263-8.153zm-1.452 3.726c-.09.268-.176.534-.26.804l-.003.009a.13.13 0 0 1-.007.021l-.003.01-.006.02-.004.012-.006.019-.003.009-.006.021a.126.126 0 0 0-.003.01l-.006.021-.002.008-.007.021-.003.01-.006.021a.126.126 0 0 0-.003.01l-.006.021-.003.009-.007.022a.03.03 0 0 1-.002.008l-.006.022-.003.009-.006.021-.002.008-.007.023-.002.006-.007.025-.001.004a.183.183 0 0 1-.008.025l-.001.006a.183.183 0 0 1-.008.025l-.001.004a.198.198 0 0 1-.008.026l-.001.004-.008.027-.001.002-.008.028v.002c-.055.185-.108.367-.16.553l19.248 5.432c.093-.33.196-.662.305-.987l-18.969-6.351zm-1.086 3.848a41.633 41.633 0 0 0-.335 1.593l-.068.366 19.682 3.552c.061-.338.131-.68.208-1.015l-19.487-4.496zm-.711 3.934c-.056.426-.105.855-.148 1.285v.006a.194.194 0 0 0-.002.024l-.001.01-.001.018-.001.017-.001.011a.164.164 0 0 1-.002.023v.002c-.019.197-.037.394-.053.592l19.932 1.654c.029-.346.066-.695.111-1.039l-19.834-2.603zm-.331 3.985c-.011.319-.019.639-.023.959v.637c0 .135.001.27.003.404l19.999-.234-.001-.264c0-.266.005-.532.014-.796L85.411 40.2zm20.012 2.821L85.458 44.2c.033.568.079 1.136.135 1.697v.005a.21.21 0 0 0 .003.034l.002.02.001.016.001.012.002.022v.005l.019.182 19.886-2.13a27.77 27.77 0 0 1-.084-1.042zm.223 2.074l-19.761 3.081a.445.445 0 0 1 .005.036l.001.008.003.022.003.018a.05.05 0 0 0 .002.012l.004.025v.005a40.62 40.62 0 0 0 .281 1.57l.004.021.003.014.002.014.004.021.001.007a.274.274 0 0 0 .005.028v.001l.034.167 19.59-4.029a27.258 27.258 0 0 1-.181-1.021zm.417 2.027l-19.373 4.97c.166.648.348 1.29.543 1.925l19.11-5.901a20.377 20.377 0 0 1-.28-.994zm.608 1.973L87.87 55.913c.228.628.47 1.249.727 1.863l18.451-7.718a22.58 22.58 0 0 1-.377-.963zm.799 1.907l-18.057 8.599.104.218.004.009.005.011.009.019.001.002c.179.37.363.734.553 1.098a.521.521 0 0 0 .013.024l.003.007a.29.29 0 0 1 .01.018l.007.013a.067.067 0 0 0 .006.012l.009.018.004.008.173.327 17.623-9.458a22.229 22.229 0 0 1-.467-.925zm.981 1.829L91.303 63.125c.097.161.194.32.293.48v.001l.013.021.004.007a.083.083 0 0 0 .008.012.174.174 0 0 0 .012.02c.24.387.487.77.739 1.148l16.634-11.104c-.19-.288-.378-.584-.555-.879zm1.156 1.732L93.523 66.45l.224.3v.001a.461.461 0 0 0 .018.023l.002.002.017.021.003.005a.347.347 0 0 0 .019.025l.015.019.006.008.012.016.007.009.011.015.008.011a.625.625 0 0 0 .011.014l.008.011.01.014.01.013a.106.106 0 0 1 .009.011l.011.014.008.011.012.016.006.009.013.017.006.008.015.019.004.005a.26.26 0 0 0 .015.02l.003.005.017.021.001.002.018.023.001.001c.231.299.466.596.705.889l15.498-12.642a22.553 22.553 0 0 1-.639-.823zm1.321 1.619L96.051 69.548c.446.496.903.981 1.372 1.456l14.223-14.061a21.461 21.461 0 0 1-.718-.761zm1.47 1.487L98.862 72.392c.25.23.505.459.761.683l.002.002.017.014a.065.065 0 0 1 .009.008l.01.009.015.012.005.004.02.017.001.001c.22.191.441.38.665.567l12.819-15.351a20.545 20.545 0 0 1-.788-.689zm1.604 1.34l-12.071 15.946a42.045 42.045 0 0 0 1.623 1.169l11.295-16.505c-.285-.196-.57-.401-.847-.61zm1.721 1.177l-10.492 17.027.104.063.004.003a.186.186 0 0 0 .019.011l.01.007.012.007.018.011.006.003a41.62 41.62 0 0 0 1.518.882l.003.001.02.011a.11.11 0 0 0 .011.006l.003.002 9.663-17.511a20.618 20.618 0 0 1-.899-.523zm1.818 1.003l-8.809 17.956.336.163.002.001.024.012.005.002.021.01a.104.104 0 0 0 .01.004l.017.008a.091.091 0 0 1 .014.007l.013.006a.318.318 0 0 0 .018.008l.01.005.019.009.009.004a.226.226 0 0 1 .026.013l.026.012.001.001c.418.197.839.388 1.265.572l7.933-18.359a20.467 20.467 0 0 1-.94-.434zm1.898.821l-7.038 18.721c.624.234 1.251.453 1.889.658l6.125-19.039a21.68 21.68 0 0 1-.976-.34zm1.967.633l-5.197 19.313.24.063h.001l.028.007.004.001.024.006a.03.03 0 0 0 .009.002l.021.005.013.003.015.004.019.005a.745.745 0 0 1 .034.009l.006.001a.25.25 0 0 1 .03.008c.497.128.995.246 1.499.356l4.259-19.542c-.336-.07-.674-.153-1.005-.241zm2.021.44l-3.312 19.724a41.47 41.47 0 0 0 1.98.284l2.362-19.86c-.344-.042-.69-.091-1.03-.148zm2.07.246l-1.411 19.95.405.026.015.001.016.001.023.001h.008l.026.001h.005c.319.019.639.034.96.045h.009l.018.001h.059l.028.001h.003l.423.012.464-19.995a16.69 16.69 0 0 1-1.051-.044zm3.162-.001a23 23 0 0 1-1.052.05l.477 19.994a35.393 35.393 0 0 0 .62-.019h.007l.026-.001h.005l.03-.001h.001c.396-.016.791-.037 1.184-.064h.001l.061-.004h.001l.03-.002h.002l.029-.002-1.422-19.951zm2.071-.247c-.34.057-.687.107-1.03.148l2.372 19.859a40.61 40.61 0 0 0 1.833-.26h.001l.029-.005.007-.001.024-.004.009-.001a.143.143 0 0 0 .022-.004l.011-.001a.918.918 0 0 0 .02-.003l.012-.002a.03.03 0 0 0 .01-.002l-3.32-19.724zm2.023-.442a21.63 21.63 0 0 1-1.005.245l4.268 19.54.22-.049h.003l.027-.006a.019.019 0 0 0 .008-.002l.021-.004.015-.004.015-.003.02-.005a.03.03 0 0 0 .009-.002l.023-.005.007-.001.026-.006.003-.001.028-.006h.002c.253-.058.506-.119.758-.182h.001l.026-.006.005-.001.025-.006.006-.001.024-.006.007-.001a.745.745 0 0 0 .023-.006l.007-.002.023-.006a.019.019 0 0 0 .007-.002l.024-.006a.014.014 0 0 0 .006-.002l.024-.006.006-.001.024-.006.006-.001.025-.006.005-.001a.197.197 0 0 0 .026-.007l.003-.001a.197.197 0 0 0 .026-.007h.004l.028-.007h.001l.391-.103-5.201-19.318zm1.967-.634c-.321.121-.649.235-.976.34l6.132 19.037c.308-.099.615-.202.919-.308h.001a.771.771 0 0 1 .054-.019l.008-.003a.159.159 0 0 0 .02-.007l.013-.004.015-.005.016-.006.012-.004.021-.008.007-.002.025-.009.003-.001c.26-.092.517-.186.773-.282l-7.043-18.719zm1.9-.821c-.309.151-.625.297-.941.434l7.939 18.356c.351-.151.699-.308 1.044-.469l.003-.001.022-.011.007-.003.02-.009.009-.004.018-.008.011-.005.016-.007a.196.196 0 0 0 .014-.006l.01-.005.02-.009.005-.002c.206-.097.411-.196.615-.296l-8.812-17.955zm1.818-1.004a22.35 22.35 0 0 1-.898.524l9.668 17.508.18-.1.004-.002a.437.437 0 0 0 .022-.012l.005-.003.02-.011.009-.005.016-.009a.178.178 0 0 1 .013-.007l.011-.006.018-.01.007-.004.02-.011.006-.004a40.12 40.12 0 0 0 1.395-.823L138.438 60.18zm1.72-1.179c-.276.209-.561.415-.847.61l11.3 16.501c.253-.173.504-.349.753-.528l.001-.001.024-.017.002-.001.022-.016.005-.004a.26.26 0 0 0 .02-.015l.006-.004.018-.013.009-.007.015-.011.011-.008.013-.009.013-.01a.125.125 0 0 1 .012-.008l.015-.011.009-.006.018-.013a.03.03 0 0 0 .007-.005l.021-.015.003-.002.022-.017.003-.002c.202-.147.401-.296.6-.446l-12.075-15.942zm1.603-1.339c-.255.235-.52.467-.786.689l12.823 15.348a.127.127 0 0 0 .013-.011l.004-.003.019-.016.006-.005.018-.015.007-.006a.2.2 0 0 0 .016-.014l.008-.007.016-.013.008-.007.015-.013.01-.008.014-.012a.106.106 0 0 1 .011-.009.106.106 0 0 0 .012-.01.127.127 0 0 0 .013-.011l.011-.009.013-.011.01-.008.014-.012.01-.008.015-.013.007-.006.017-.014.006-.006.018-.015.004-.004.02-.017.004-.004.02-.017.002-.001.022-.019.002-.002c.332-.284.659-.573.981-.867l.004-.004.019-.017.006-.006.016-.014.011-.01.011-.01a.179.179 0 0 1 .014-.013l.007-.007.019-.017.003-.002a.426.426 0 0 0 .022-.021l.007-.007-13.542-14.716zm1.47-1.488a22.39 22.39 0 0 1-.717.761l14.227 14.057.005-.005.016-.016.003-.003c.313-.318.622-.641.926-.969l.002-.003.018-.019.006-.006a.234.234 0 0 0 .015-.016l.01-.011.01-.011.014-.015.006-.007a.36.36 0 0 1 .019-.021l.001-.001c.107-.117.215-.235.321-.354l-14.882-13.361zm1.321-1.619c-.206.278-.421.556-.641.825l15.501 12.637.005-.006.013-.016a.07.07 0 0 1 .008-.01l.012-.015.009-.011a.127.127 0 0 1 .011-.013l.01-.013.009-.011.013-.016.006-.008.015-.018a.022.022 0 0 1 .004-.005l.017-.021.002-.003a.348.348 0 0 1 .018-.022l.001-.001c.209-.26.415-.521.618-.787a.361.361 0 0 1 .018-.023l.001-.002.015-.019.005-.006.011-.016.008-.01.008-.011a.143.143 0 0 1 .011-.015l.005-.007a.133.133 0 0 0 .014-.019l.002-.002c.119-.157.238-.315.355-.474l-16.084-11.882zm1.156-1.733c-.178.296-.365.592-.557.879l16.638 11.1.139-.21.013-.02.003-.005c.308-.469.607-.945.897-1.427l.001-.002.013-.022a.008.008 0 0 0 .002-.004l-17.149-10.289zm.98-1.828c-.147.311-.305.622-.468.925l17.625 9.453a41.517 41.517 0 0 0 .689-1.342v-.001l.013-.025.004-.009.009-.018a.091.091 0 0 1 .007-.014l.006-.012.01-.021.003-.006.162-.337-18.06-8.593zm.797-1.908c-.117.322-.243.646-.375.963l18.454 7.712c.096-.23.19-.46.282-.692l.002-.006.009-.022a.042.042 0 0 1 .004-.01l.007-.019.006-.015.005-.014a.186.186 0 0 1 .01-.025l.001-.002c.138-.351.271-.703.4-1.059l-18.805-6.811zm.609-1.973c-.085.332-.179.667-.28.994l19.112 5.895c.042-.138.084-.276.125-.416l.001-.003a.241.241 0 0 1 .008-.025l.001-.005.006-.023a.024.024 0 0 0 .002-.008l.007-.022.002-.007.007-.024.002-.006.007-.024.001-.005.007-.025.001-.005a.198.198 0 0 1 .008-.026l.001-.003a.294.294 0 0 1 .008-.028v-.002l.008-.028v-.001l.008-.029v-.002c.115-.399.225-.802.329-1.206l-19.371-4.966zm.416-2.027a22 22 0 0 1-.184 1.02l19.591 4.022a42.731 42.731 0 0 0 .355-1.968l-19.762-3.074zm.221-2.074c-.021.347-.049.698-.086 1.042l19.887 2.123c.025-.235.048-.468.069-.704v-.002l.002-.026v-.008l.002-.021.001-.011.001-.013c.033-.38.061-.761.084-1.144l.003-.063-19.963-1.173zm20.012-2.827l-19.987.714c.009.267.014.535.014.804l-.001.256 19.999.227.003-.391v-.506l-.001-.09v-.041a30.978 30.978 0 0 0-.008-.433v-.001l-.002-.092v-.054l-.001-.026-.001-.034v-.013l-.001-.035v-.006a5.057 5.057 0 0 1-.014-.279zm-.333-3.985l-19.829 2.611c.045.343.083.692.112 1.039l19.931-1.662a36.946 36.946 0 0 0-.042-.468c0-.001 0 0 0 0l-.003-.028v-.008l-.002-.022-.001-.013-.002-.018-.002-.021-.001-.01-.003-.03c-.046-.46-.098-.915-.158-1.37zm-.712-3.934l-19.486 4.504c.078.335.148.676.209 1.015l19.681-3.56a41.937 41.937 0 0 0-.184-.95v-.004a.174.174 0 0 0-.005-.022l-.002-.01-.004-.019-.003-.013-.003-.016-.003-.016-.003-.015a.116.116 0 0 0-.004-.018l-.002-.012-.004-.021-.002-.01-.004-.023-.002-.007-.005-.024-.001-.008a.276.276 0 0 1-.005-.025l-.001-.004-.006-.027-.001-.004-.006-.028-.001-.002-.006-.029v-.002l-.069-.315-.001-.004-.005-.026a1.055 1.055 0 0 0-.006-.026l-.001-.003a1.055 1.055 0 0 0-.006-.026l-.001-.005c-.021-.084-.039-.165-.058-.245zm-1.088-3.848l-18.96 6.363c.109.325.212.657.305.987l19.246-5.44-.002-.007a.057.057 0 0 0-.004-.014.12.12 0 0 0-.005-.018l-.003-.011a.658.658 0 0 0-.006-.022l-.001-.006a42.071 42.071 0 0 0-.456-1.493l-.003-.009-.004-.014-.006-.018-.001-.004a51.456 51.456 0 0 1-.1-.294zm-1.453-3.725l-18.259 8.162c.14.314.275.635.399.955l18.631-7.271c-.242-.623-.5-1.238-.771-1.846zm-1.806-3.568l-17.39 9.879c.17.3.335.607.491.915l17.844-9.032a41.407 41.407 0 0 0-.823-1.544v-.001l-.015-.026-.001-.001a.314.314 0 0 0-.016-.029l-.013-.023-.003-.005-.011-.02-.006-.01-.01-.017-.006-.012-.008-.014-.008-.015-.007-.012-.011-.02-.003-.006-.004-.007zm-2.14-3.377l-16.364 11.499c.199.283.394.575.579.867l16.896-10.702-.129-.203-.007-.011-.005-.008-.013-.02-.001-.001a43.508 43.508 0 0 0-.657-.99l-.006-.009-.011-.015-.011-.017-.005-.006c-.087-.13-.176-.257-.266-.384zm-2.452-3.158l-15.192 13.007c.226.264.448.536.661.81l15.795-12.268-.115-.148a.385.385 0 0 0-.019-.023l-.002-.003-.016-.021-.005-.007-.013-.017-.007-.009-.012-.015-.009-.012-.009-.012a.127.127 0 0 0-.011-.013l-.008-.011-.012-.016-.006-.008-.014-.017-.005-.007a.315.315 0 0 1-.015-.019l-.004-.005-.016-.02-.003-.004-.017-.021-.002-.002a.348.348 0 0 0-.02-.024l-.017-.021-.003-.003a.313.313 0 0 0-.019-.024l-.018-.022-.002-.002a.326.326 0 0 1-.017-.022l-.003-.003a.313.313 0 0 0-.017-.021l-.003-.004-.016-.02a.018.018 0 0 0-.004-.005l-.016-.02-.003-.004-.016-.019-.004-.006-.015-.018-.005-.007-.014-.017-.006-.008-.013-.017-.007-.008-.013-.016-.007-.009-.012-.015-.008-.01-.011-.014-.009-.011-.011-.013-.009-.012a.106.106 0 0 0-.01-.012l-.01-.013-.009-.011a.076.076 0 0 1-.011-.014l-.008-.01-.012-.015-.007-.008-.014-.017-.005-.006-.016-.019a.018.018 0 0 0-.004-.005l-.016-.02-.003-.003a.313.313 0 0 0-.017-.021l-.003-.004-.016-.02-.003-.004-.017-.02-.003-.003a.313.313 0 0 0-.017-.021l-.003-.003-.017-.021-.003-.004a.313.313 0 0 0-.017-.021l-.003-.003-.017-.02-.003-.004-.017-.02-.003-.004-.017-.02a.018.018 0 0 1-.004-.005l-.015-.018-.005-.006-.015-.018-.006-.007a.2.2 0 0 0-.014-.016l-.006-.007-.014-.017-.007-.008-.013-.015-.008-.01-.011-.013-.01-.012-.009-.011-.012-.014-.008-.009-.015-.018a.022.022 0 0 1-.004-.005l-.017-.02-.003-.003c-.044-.047-.086-.096-.129-.146zm-2.742-2.91l-13.884 14.396c.25.241.498.491.735.744l14.555-13.717-.002-.002a41.826 41.826 0 0 0-1.404-1.421zm-3.008-2.636L140.56 24.697c.271.216.542.441.802.67l13.182-15.041-.234-.204-.007-.005-.016-.014-.014-.012-.008-.007c-.411-.355-.83-.701-1.256-1.04zm-3.244-2.336l-10.897 16.771c.29.188.579.386.86.588l11.688-16.229a37.518 37.518 0 0 0-.457-.324l-.002-.001a.153.153 0 0 1-.016-.011l-.011-.007a.03.03 0 0 0-.007-.005l-.019-.013h-.001c-.171-.12-.342-.237-.516-.354l-.006-.004a.127.127 0 0 1-.019-.013l-.012-.008-.013-.009-.019-.013-.007-.004a27.24 27.24 0 0 0-.546-.364zm-3.454-2.016l-9.239 17.738c.306.159.611.328.909.502l10.081-17.274a37.255 37.255 0 0 0-.433-.249l-.054-.03-.054-.03c-.4-.226-.803-.444-1.21-.657zm-3.631-1.673l-7.488 18.545c.318.129.638.267.95.411l8.374-18.163-.013-.006-.013-.006-.014-.006a.197.197 0 0 1-.016-.007l-.013-.006-.016-.007-.014-.006-.014-.006-.016-.007-.013-.006-.013-.006-.016-.007-.011-.005a.089.089 0 0 1-.017-.008l-.015-.006-.014-.006-.014-.006-.015-.007-.006-.003-.022-.01-.013-.006-.015-.007a37.281 37.281 0 0 0-1.523-.653zm-3.776-1.317l-5.664 19.181c.329.097.66.204.983.316l6.584-18.885a40.126 40.126 0 0 0-1.336-.44l-.003-.001-.027-.008a.019.019 0 0 1-.007-.002l-.022-.007-.013-.004a.11.11 0 0 1-.017-.005l-.021-.006-.007-.002-.027-.008h-.003c-.139-.045-.28-.087-.42-.129zM135.02.756l-3.788 19.638c.337.065.678.139 1.011.22l4.73-19.433-.004-.001-.019-.004-.013-.003-.017-.004-.016-.004-.013-.003-.019-.004-.011-.003-.021-.005-.009-.002-.023-.005a.019.019 0 0 1-.007-.002l-.027-.006h-.002l-.03-.007h-.001a46.234 46.234 0 0 0-.82-.186h-.001l-.061-.013h-.003l-.029-.006h-.002l-.027-.006-.006-.001-.025-.005-.006-.001-.021-.004-.012-.002-.016-.003-.016-.003-.009-.002a17.18 17.18 0 0 0-.667-.14zm-3.958-.568l-1.89 19.911c.345.033.694.074 1.036.123l2.84-19.797a43.197 43.197 0 0 0-.502-.069.254.254 0 0 1-.029-.004l-.01-.001-.021-.003-.014-.002-.016-.002-.019-.002-.011-.001a1.215 1.215 0 0 1-.022-.003h-.006a1.99 1.99 0 0 1-.026-.003h-.004a37.835 37.835 0 0 0-.926-.107h-.003l-.02-.002-.013-.001-.014-.001a.123.123 0 0 1-.019-.002l-.01-.001-.024-.002h-.005c-.092-.013-.184-.022-.272-.031zM127.07 0v20c.352 0 .707.008 1.056.025l.941-19.978a44.337 44.337 0 0 0-1.214-.04h-.749C127.091 0 127.081 0 127.07 0z"/>
    <path fill="#262626" d="M127.07 2c21.891 0 39.7 17.811 39.7 39.703 0 21.88-17.809 39.681-39.7 39.681-21.882 0-39.685-17.801-39.685-39.681C87.385 19.811 105.188 2 127.07 2m0-2c-23.023 0-41.685 18.663-41.685 41.703 0 23.02 18.662 41.681 41.685 41.681 23.036 0 41.7-18.661 41.7-41.681C168.77 18.663 150.105 0 127.07 0z"/>
    <path fill="#FFF" d="M163.091 41.703c0 19.876-16.126 36.003-36.021 36.003-19.879 0-36.006-16.127-36.006-36.003 0-19.898 16.127-36.025 36.006-36.025 19.895 0 36.021 16.127 36.021 36.025z" opacity=".06"/>
    <path fill="#212121" d="M127.07 69.832c-15.508 0-28.124-12.618-28.124-28.128 0-15.506 12.616-28.121 28.124-28.121 15.51 0 28.127 12.615 28.127 28.121 0 15.509-12.617 28.128-28.127 28.128z"/>
    <path fill="#1A1A1A" d="M127.07 16.582c13.855 0 25.127 11.269 25.127 25.121 0 13.856-11.272 25.128-25.127 25.128-13.854 0-25.124-11.272-25.124-25.128 0-13.852 11.27-25.121 25.124-25.121m0-6c-17.195 0-31.124 13.927-31.124 31.121 0 17.191 13.929 31.128 31.124 31.128 17.198 0 31.127-13.937 31.127-31.128 0-17.194-13.929-31.121-31.127-31.121z"/>
    <path fill="#E5E5E5" d="M83.385 41.703c0 23.02-18.664 41.681-41.7 41.681C18.662 83.384 0 64.723 0 41.703 0 18.663 18.662 0 41.685 0c23.036 0 41.7 18.663 41.7 41.703z"/>
    <path fill="#BFBFBF" d="M41.685 0h-.858l-.148.003h-.004l-.027.001h-.036l-.028.001h-.003l-.027.001h-.035l-.029.001h-.001l-.062.002c-.25.007-.499.017-.747.029l.943 19.978c.355-.008.71-.016 1.062-.016V0zM37.69.189a9.665 9.665 0 0 0-.169.017 2.752 2.752 0 0 1-.029.003h-.009l-.021.002-.014.001a.077.077 0 0 0-.015.002l-.021.002h-.007l-.026.003h-.002c-.561.058-1.118.126-1.672.206l2.844 19.797c.342-.049.69-.091 1.035-.124L37.69.189zm-3.957.569l-.091.018h-.002l-.026.005-.006.001-.024.005-.008.001-.022.004a.037.037 0 0 0-.009.002l-.021.004-.011.002-.018.003-.015.003-.016.003-.015.003-.015.003-.017.003-.015.003-.018.003-.012.002a.155.155 0 0 0-.021.004.036.036 0 0 0-.01.002l-.022.004-.009.002-.023.004-.008.002-.027.005h-.003l-.03.006h-.001c-.483.1-.964.208-1.441.324l4.736 19.431a22.71 22.71 0 0 1 1.011-.221L33.733.758zm-3.885.947c-.27.08-.536.161-.803.246h-.001l-.061.02-.057.018-.005.001-.05.016c-.311.1-.62.204-.927.312l6.591 18.883c.324-.113.654-.22.983-.316l-5.67-19.18zm-3.775 1.317c-.619.25-1.232.516-1.835.794l8.381 18.159c.312-.144.631-.282.95-.411L26.073 3.022zm-3.631 1.676c-.592.309-1.176.631-1.75.967l10.088 17.27c.298-.174.604-.343.909-.502L22.442 4.698zM18.99 6.715c-.559.364-1.109.74-1.65 1.13L29.035 24.07c.281-.203.57-.4.86-.589L18.99 6.715zm-3.244 2.338a41.85 41.85 0 0 0-1.535 1.283l13.19 15.034c.261-.229.53-.455.802-.67L15.746 9.053zm-3.006 2.636c-.285.275-.565.554-.842.836l-.002.002-.019.02-.004.004-.017.018-.007.008-.014.014-.011.011-.01.011-.015.015-.007.007-.018.018-.004.003c-.146.151-.291.303-.435.455l14.561 13.71c.238-.253.485-.503.735-.744L12.74 11.689zm-2.741 2.912a.065.065 0 0 1-.008.009.076.076 0 0 0-.011.014l-.009.01-.012.014-.01.012-.01.012-.009.011a.174.174 0 0 0-.012.014.065.065 0 0 1-.008.009l-.013.015-.006.007-.014.017-.004.005-.016.019-.001.002c-.376.444-.743.897-1.101 1.357l-.019.024 15.801 12.26a23.3 23.3 0 0 1 .66-.81L9.999 14.601zM7.548 17.76l-.158.227a.018.018 0 0 1-.004.005l-.01.015a.094.094 0 0 1-.009.012l-.006.009c-.317.459-.625.924-.923 1.396l16.9 10.694c.185-.292.379-.584.579-.867L7.548 17.76zM5.41 21.139c-.153.27-.304.542-.451.816l-.002.004a45.83 45.83 0 0 0-.492.942l17.849 9.024c.155-.308.32-.615.491-.915L5.41 21.139zm-1.804 3.568c-.068.151-.135.304-.2.456l-.001.001-.024.057-.024.057c-.18.421-.354.846-.521 1.273l18.634 7.264c.125-.32.259-.641.399-.955L3.606 24.707zm-1.452 3.726c-.09.268-.176.534-.26.804l-.003.009a.13.13 0 0 1-.007.021l-.003.01-.006.02-.004.012-.006.019-.003.009-.006.021a.126.126 0 0 0-.003.01l-.006.021-.002.008-.007.021-.003.01-.006.021a.126.126 0 0 0-.003.01l-.006.021-.003.009-.007.022a.03.03 0 0 1-.002.008l-.006.022-.003.009-.006.021-.002.008-.007.023-.002.006-.007.025-.001.004a.183.183 0 0 1-.008.025l-.001.006a.183.183 0 0 1-.008.025l-.001.004a.198.198 0 0 1-.008.026l-.001.004-.008.027-.001.002-.008.028v.002c-.055.185-.108.367-.16.553l19.248 5.432c.093-.33.196-.662.305-.987L2.154 28.433zm-1.086 3.848a41.633 41.633 0 0 0-.335 1.593l-.068.366 19.682 3.552c.061-.338.131-.68.208-1.015L1.068 32.281zm-.711 3.934c-.056.427-.105.855-.148 1.285v.006a.194.194 0 0 0-.002.024l-.001.01-.001.018-.001.017-.001.011a.164.164 0 0 1-.002.023v.002c-.019.197-.037.394-.053.592l19.932 1.654c.029-.346.066-.695.111-1.039L.357 36.215zM.026 40.2c-.011.319-.019.639-.023.959v.637c0 .135.001.27.003.404l19.999-.234-.005-.263c0-.266.005-.532.014-.796L.026 40.2zm20.013 2.821L.074 44.2c.033.568.079 1.136.135 1.697v.005a.21.21 0 0 0 .003.034l.002.02.001.016.001.012.002.022v.005l.019.182 19.886-2.13a24.107 24.107 0 0 1-.084-1.042zm.222 2.074L.5 48.175a.445.445 0 0 1 .005.036l.001.008.003.022.003.018a.05.05 0 0 0 .002.012l.004.025v.005a40.62 40.62 0 0 0 .281 1.57l.004.021.003.014.002.014.004.021.001.007a.274.274 0 0 0 .005.028v.001l.034.167 19.59-4.029a26.85 26.85 0 0 1-.181-1.02zm.417 2.027l-19.373 4.97c.166.648.348 1.29.543 1.925l19.11-5.901a21.567 21.567 0 0 1-.28-.994zm.609 1.973L2.485 55.913c.228.628.47 1.249.727 1.863l18.451-7.718a21.306 21.306 0 0 1-.376-.963zm.798 1.907L4.028 59.601l.104.218.004.009.005.011.009.019.001.002c.179.37.363.734.553 1.098a.521.521 0 0 0 .013.024l.003.007a.29.29 0 0 1 .01.018l.007.013a.067.067 0 0 0 .006.012l.009.018.004.008.173.327 17.623-9.458a22.229 22.229 0 0 1-.467-.925zm.981 1.829L5.918 63.125c.097.161.194.32.293.48v.001l.013.021.004.007a.083.083 0 0 0 .008.012.174.174 0 0 0 .012.02c.24.387.487.77.739 1.148L23.623 53.71a23.183 23.183 0 0 1-.557-.879zm1.157 1.732L8.139 66.45l.224.3v.001a.461.461 0 0 0 .018.023l.002.002.017.021.003.005a.347.347 0 0 0 .019.025l.015.019.006.008.012.016.007.009.011.015.008.011a.625.625 0 0 0 .011.014l.008.011.01.014.01.013a.106.106 0 0 1 .009.011l.011.014.008.011.012.017.006.009.013.017.006.008.015.019.004.005a.26.26 0 0 0 .015.02l.003.005.017.021.001.002.018.023.001.001c.231.299.466.596.705.889l15.498-12.642a22.343 22.343 0 0 1-.639-.824zm1.32 1.619L10.666 69.548c.446.496.903.981 1.372 1.456l14.223-14.061a22.42 22.42 0 0 1-.718-.761zm1.471 1.487L13.477 72.392c.25.23.505.459.761.683l.002.002.017.014a.065.065 0 0 1 .009.008l.01.009.015.012.005.004.02.017.001.001c.22.191.441.38.665.567L27.8 58.359c-.266-.223-.53-.454-.786-.69zm1.604 1.34L16.546 74.955a42.045 42.045 0 0 0 1.623 1.169l11.295-16.505a22.94 22.94 0 0 1-.846-.61zm1.72 1.177L19.846 77.213l.104.063.004.003a.186.186 0 0 0 .019.011l.01.007.012.007.018.011.006.003a41.62 41.62 0 0 0 1.518.882l.003.001.02.011a.11.11 0 0 0 .011.006l.003.002 9.663-17.511a20.618 20.618 0 0 1-.899-.523zm1.818 1.003l-8.809 17.956.336.163.002.001.024.012.005.002.021.01a.104.104 0 0 0 .01.004l.017.008a.091.091 0 0 1 .014.007l.013.006a.318.318 0 0 0 .018.008l.01.005.019.009.009.004a.226.226 0 0 1 .026.013l.026.012.001.001c.418.197.839.388 1.265.572l7.933-18.359a20.467 20.467 0 0 1-.94-.434zm1.899.821l-7.038 18.721c.624.234 1.251.453 1.889.658L35.03 62.35a21.216 21.216 0 0 1-.975-.34zm1.966.633l-5.197 19.313.24.063h.001l.028.007.004.001.024.006a.03.03 0 0 0 .009.002l.021.005.013.003.015.004.019.005a.745.745 0 0 1 .034.009l.005.001a.268.268 0 0 1 .031.008c.497.128.995.246 1.499.356l4.259-19.542c-.336-.07-.674-.153-1.005-.241zm2.021.44L34.73 82.807a41.47 41.47 0 0 0 1.98.284l2.362-19.86c-.343-.042-.69-.091-1.03-.148zm2.07.246l-1.411 19.95.405.026.015.001.016.001.023.001h.008l.026.001h.005c.319.019.639.034.96.045h.009l.018.001h.059l.028.001h.003l.423.012.464-19.995a16.69 16.69 0 0 1-1.051-.044zm3.162-.001a23 23 0 0 1-1.052.05l.477 19.994a35.393 35.393 0 0 0 .62-.019h.007l.026-.001h.005l.03-.001h.001c.396-.016.791-.037 1.184-.064h.001l.061-.004h.001l.03-.002h.002l.029-.002-1.422-19.951zm2.071-.247c-.34.057-.687.107-1.03.148l2.372 19.859a40.61 40.61 0 0 0 1.833-.26h.001l.029-.005.007-.001.024-.004.009-.001a.143.143 0 0 0 .022-.004l.011-.001a.918.918 0 0 0 .02-.003l.012-.002a.03.03 0 0 0 .01-.002l-3.32-19.724zm2.023-.442a21.63 21.63 0 0 1-1.005.245l4.268 19.54.22-.049h.003l.027-.006a.019.019 0 0 0 .008-.002l.021-.004.015-.004.015-.003.02-.005a.03.03 0 0 0 .009-.002l.023-.005.007-.001.026-.006.003-.001.028-.006h.002c.253-.058.506-.119.758-.182h.001l.026-.006.005-.001.025-.006.006-.001.024-.006.007-.001a.745.745 0 0 0 .023-.006l.007-.002.023-.006a.019.019 0 0 0 .007-.002l.024-.006a.014.014 0 0 0 .006-.002l.024-.006.006-.001.024-.006.006-.001.025-.006.005-.001a.197.197 0 0 0 .026-.007l.003-.001a.197.197 0 0 0 .026-.007h.004l.028-.007h.001l.391-.103-5.201-19.318zm1.967-.634c-.321.121-.649.235-.976.34l6.132 19.037c.308-.099.615-.202.919-.308h.001a.771.771 0 0 1 .054-.019l.008-.003a.159.159 0 0 0 .02-.007l.013-.004.015-.005.016-.006.012-.004.021-.008.007-.002.025-.009.003-.001c.26-.092.516-.186.773-.282l-7.043-18.719zm1.9-.821c-.309.151-.625.297-.941.434l7.939 18.356c.351-.151.699-.308 1.044-.469l.003-.001.022-.011.007-.003.02-.009.009-.004.018-.008.011-.005.016-.007a.196.196 0 0 0 .014-.006l.01-.005.02-.009.005-.002c.206-.097.411-.196.615-.296l-8.812-17.955zm1.818-1.004a22.35 22.35 0 0 1-.898.524l9.668 17.508.18-.1.004-.002a.437.437 0 0 0 .022-.012l.005-.003.02-.011.009-.005.016-.009a.178.178 0 0 1 .013-.007l.011-.006.018-.01.006-.004.021-.011.006-.004a40.12 40.12 0 0 0 1.395-.823L53.053 60.18zm1.72-1.179c-.276.209-.561.415-.847.61l11.3 16.501c.253-.173.504-.349.753-.528l.001-.001.024-.017.002-.001.022-.016.005-.004a.26.26 0 0 0 .02-.015l.006-.004.018-.013.009-.007.015-.011.011-.008.013-.009.013-.01a.125.125 0 0 1 .012-.008l.015-.011.009-.006.018-.013a.03.03 0 0 0 .007-.005l.021-.015.003-.002.022-.017.003-.002c.202-.147.402-.296.6-.446L54.773 59.001zm1.603-1.339c-.255.235-.52.467-.786.689l12.823 15.348a.127.127 0 0 0 .013-.011l.004-.003.019-.016.006-.005.018-.015.007-.006a.2.2 0 0 0 .016-.014l.008-.007.016-.013.008-.007.015-.013.01-.008.014-.012a.106.106 0 0 1 .011-.009.106.106 0 0 0 .012-.01.127.127 0 0 0 .013-.011l.011-.009.013-.011.01-.008.014-.012.01-.008.015-.013.007-.006.017-.014.006-.006.018-.015.004-.004.02-.017.004-.004.02-.017.002-.001.022-.019.002-.002c.332-.284.659-.573.981-.867l.004-.004.019-.017.006-.006.016-.014.011-.01.011-.01a.179.179 0 0 1 .014-.013l.007-.007.019-.017.003-.002a.426.426 0 0 0 .022-.021l.007-.007-13.542-14.716zm1.471-1.488a22.39 22.39 0 0 1-.717.761l14.227 14.057.005-.005.016-.016.003-.003c.313-.318.622-.641.926-.969l.002-.003.018-.019.006-.006a.234.234 0 0 0 .015-.016l.01-.011.01-.011.014-.015.006-.007a.36.36 0 0 1 .019-.021l.001-.001c.107-.117.215-.235.321-.354L57.847 56.174zm1.32-1.619c-.206.278-.421.556-.641.825l15.501 12.637.005-.006.013-.016a.07.07 0 0 1 .008-.01l.012-.015.009-.011a.127.127 0 0 1 .011-.013l.01-.013.009-.011.013-.016.006-.008.015-.018a.022.022 0 0 1 .004-.005l.017-.021.002-.003a.348.348 0 0 1 .018-.022l.001-.001c.209-.26.415-.521.618-.787a.361.361 0 0 1 .018-.023l.001-.002.015-.019.005-.006.011-.016.008-.01.008-.011a.143.143 0 0 1 .011-.015l.005-.007a.133.133 0 0 0 .014-.019l.002-.002c.119-.157.238-.315.355-.474L59.167 54.555zm1.156-1.733c-.178.296-.365.592-.557.879l16.638 11.1.139-.21.013-.02.003-.005c.308-.469.607-.945.897-1.427l.001-.002.013-.022a.008.008 0 0 0 .002-.004L60.323 52.822zm.98-1.828c-.147.311-.305.622-.468.925l17.625 9.453a41.517 41.517 0 0 0 .689-1.342v-.001l.013-.025.004-.009.009-.018a.091.091 0 0 1 .007-.014l.006-.012.01-.021.003-.006.162-.337-18.06-8.593zm.798-1.908c-.117.322-.243.646-.375.963l18.454 7.712c.096-.23.19-.46.282-.692l.002-.006.009-.022a.042.042 0 0 1 .004-.01l.007-.019.006-.015.005-.014a.186.186 0 0 1 .01-.025l.001-.002c.138-.351.271-.703.4-1.059l-18.805-6.811zm.608-1.973c-.085.332-.179.667-.28.994l19.112 5.895c.042-.138.084-.276.125-.416l.001-.003a.241.241 0 0 1 .008-.025l.001-.005.006-.023a.024.024 0 0 0 .002-.008l.007-.022.002-.007.007-.024.002-.006.007-.024.001-.005.007-.025.001-.005a.198.198 0 0 1 .008-.026l.001-.003a.294.294 0 0 1 .008-.028v-.002l.008-.028v-.001l.008-.029v-.002c.115-.399.225-.802.329-1.206l-19.371-4.966zm.416-2.027a22 22 0 0 1-.184 1.02l19.591 4.022a42.731 42.731 0 0 0 .355-1.968l-19.762-3.074zm.222-2.074c-.021.347-.049.698-.086 1.042l19.887 2.123c.025-.235.048-.468.069-.704v-.002l.002-.026v-.008l.002-.021.001-.011.001-.013c.033-.38.061-.761.084-1.144l.003-.063-19.963-1.173zm20.011-2.827l-19.987.714c.009.267.014.535.014.804l-.001.256 19.999.227.003-.391v-.506l-.001-.09v-.041a30.978 30.978 0 0 0-.008-.433v-.001l-.002-.092v-.054l-.001-.026-.001-.034v-.013l-.001-.035v-.006a5.057 5.057 0 0 1-.014-.279zm-.333-3.985l-19.829 2.611c.045.343.083.692.112 1.039l19.931-1.662a36.946 36.946 0 0 0-.042-.468c0-.001 0 0 0 0l-.003-.028v-.008l-.002-.022-.001-.013-.002-.018-.002-.021-.001-.01-.003-.03c-.045-.46-.098-.915-.158-1.37zm-.712-3.934L62.827 36.77c.078.335.148.676.209 1.015l19.681-3.56a41.937 41.937 0 0 0-.184-.95v-.004a.174.174 0 0 0-.005-.022l-.002-.01-.004-.019-.002-.013-.003-.016-.003-.016-.003-.015a.116.116 0 0 0-.004-.018l-.002-.012-.004-.021-.002-.01-.004-.023-.002-.007-.005-.024-.001-.008a.276.276 0 0 1-.005-.025l-.001-.004-.006-.027-.001-.004-.006-.028-.001-.002-.006-.029v-.002l-.069-.315-.001-.004-.005-.026a1.055 1.055 0 0 0-.006-.026l-.001-.003a1.055 1.055 0 0 0-.006-.026l-.001-.005-.059-.245zm-1.087-3.848l-18.96 6.363c.109.325.212.657.305.987l19.246-5.44-.002-.007a.057.057 0 0 0-.004-.014.12.12 0 0 0-.005-.018l-.003-.011a.658.658 0 0 0-.006-.022l-.001-.006-.008-.028c-.141-.492-.29-.981-.448-1.465l-.003-.009-.004-.014-.006-.018-.001-.004a12.765 12.765 0 0 1-.1-.294zm-1.454-3.725l-18.259 8.162c.14.314.275.635.399.955l18.631-7.271c-.242-.623-.5-1.238-.771-1.846zm-1.806-3.568l-17.39 9.879c.17.3.335.607.491.915l17.844-9.032a41.407 41.407 0 0 0-.823-1.544v-.001l-.015-.026-.001-.001a.314.314 0 0 0-.016-.029l-.013-.023-.003-.005-.011-.02-.006-.01-.01-.017-.006-.012-.008-.014-.008-.015-.007-.012-.011-.02-.003-.006-.004-.007zm-2.139-3.377L59.463 29.247c.199.283.394.575.579.867l16.896-10.702-.129-.203-.007-.011-.005-.008-.013-.02-.001-.001a43.508 43.508 0 0 0-.657-.99l-.006-.009-.011-.015-.011-.017-.005-.006c-.088-.13-.177-.257-.266-.384zm-2.452-3.158L58.182 27.597c.226.264.448.536.661.81L74.638 16.14l-.115-.148a.385.385 0 0 0-.019-.023l-.002-.003-.016-.021-.005-.007-.013-.017-.007-.009-.012-.015-.009-.012-.009-.012a.127.127 0 0 0-.011-.013l-.008-.011-.012-.016-.006-.008-.014-.017-.005-.007a.315.315 0 0 1-.015-.019l-.004-.005-.016-.02-.003-.004-.017-.021-.002-.002a.348.348 0 0 0-.02-.024l-.017-.021-.003-.003a.313.313 0 0 0-.019-.024l-.018-.022-.002-.002a.326.326 0 0 1-.017-.022l-.003-.003a.313.313 0 0 0-.017-.021l-.003-.004-.016-.02a.018.018 0 0 0-.004-.005l-.016-.02-.003-.004-.016-.019-.004-.006-.015-.018-.005-.007-.014-.017-.006-.008-.013-.017-.007-.008-.013-.016-.007-.009-.012-.015-.008-.01-.011-.014-.009-.011-.011-.013-.009-.012a.106.106 0 0 0-.01-.012l-.01-.013-.009-.011a.076.076 0 0 1-.011-.014l-.008-.01-.012-.015-.007-.008-.014-.017-.005-.006-.015-.019a.018.018 0 0 1-.004-.005l-.016-.02-.003-.003a.313.313 0 0 0-.017-.021l-.004-.004-.016-.02-.003-.004-.017-.02-.003-.003a.313.313 0 0 0-.017-.021l-.003-.003-.017-.021-.003-.004a.313.313 0 0 0-.017-.021l-.003-.003-.017-.02-.003-.004-.017-.02-.003-.004-.017-.02a.018.018 0 0 1-.004-.005l-.015-.018-.005-.006-.015-.018-.006-.007a.2.2 0 0 0-.014-.016l-.006-.007-.014-.017-.007-.008-.013-.015-.008-.01-.011-.013-.01-.012-.009-.011-.012-.014-.008-.009-.015-.018a.022.022 0 0 1-.004-.005l-.017-.02-.003-.003a4.489 4.489 0 0 1-.128-.147zm-2.743-2.91L56.748 26.075c.25.241.498.491.735.744l14.555-13.717-.002-.002a41.785 41.785 0 0 0-1.404-1.42zm-3.007-2.636l-12.45 15.653c.271.216.542.441.802.67L69.16 10.326l-.234-.204-.007-.005-.016-.014-.014-.012-.008-.007a43.001 43.001 0 0 0-1.256-1.04zM64.38 6.708L53.483 23.479c.29.188.579.386.86.588L66.03 7.837a37.518 37.518 0 0 0-.457-.324l-.002-.001a.153.153 0 0 1-.016-.011l-.011-.007a.03.03 0 0 0-.007-.005l-.019-.013h-.001a31.294 31.294 0 0 0-.521-.36l-.019-.013-.012-.008-.013-.009-.019-.013-.007-.004c-.18-.121-.363-.242-.546-.361zm-3.454-2.016L51.687 22.43c.306.159.611.328.909.502L62.677 5.659a37.255 37.255 0 0 0-.433-.249l-.054-.03-.054-.03c-.4-.227-.803-.445-1.21-.658zm-3.631-1.673l-7.488 18.545c.318.129.638.267.95.411l8.374-18.163-.013-.006-.013-.006-.014-.006a.197.197 0 0 1-.016-.007l-.013-.006-.016-.007-.014-.006-.014-.006-.016-.007c-.002-.004-.007-.005-.011-.007l-.013-.006-.016-.007-.011-.005a.089.089 0 0 1-.017-.008l-.015-.006-.014-.006-.014-.006-.015-.007-.006-.003-.022-.01-.013-.006-.015-.007a39.458 39.458 0 0 0-1.525-.652zM53.52 1.702l-5.664 19.181c.329.097.66.204.983.316l6.584-18.885a40.126 40.126 0 0 0-1.336-.44l-.003-.001-.027-.008a.019.019 0 0 1-.007-.002l-.022-.007-.013-.004a.11.11 0 0 1-.017-.005l-.021-.006-.007-.002-.027-.008h-.003c-.14-.045-.28-.087-.42-.129zM49.635.756l-3.788 19.638c.337.065.678.139 1.011.22l4.73-19.433-.004-.001-.019-.004-.013-.003-.017-.004-.016-.004-.013-.003-.019-.004-.011-.003-.021-.005-.009-.002-.023-.005a.019.019 0 0 1-.007-.002l-.027-.006h-.002l-.03-.007h-.001a38.856 38.856 0 0 0-.82-.188h-.001l-.061-.013h-.003l-.029-.006h-.002l-.027-.006-.006-.001-.025-.005-.006-.001-.021-.004-.012-.002-.016-.003-.016-.003-.009-.002c-.221-.05-.444-.095-.667-.138zM45.677.188l-1.89 19.911c.345.033.694.074 1.036.123L47.663.425a43.197 43.197 0 0 0-.502-.069l-.029-.004-.01-.001L47.1.348l-.014-.002-.016-.002-.019-.002-.011-.001a1.215 1.215 0 0 1-.022-.003h-.007l-.026-.003h-.004a37.835 37.835 0 0 0-.926-.107h-.003l-.02-.002-.013-.001-.014-.001a.123.123 0 0 1-.019-.002l-.01-.001-.024-.002h-.005c-.09-.013-.181-.022-.27-.031zM41.685 0v20c.352 0 .707.008 1.056.025L43.682.047a44.337 44.337 0 0 0-1.214-.04h-.749C41.707 0 41.696 0 41.685 0z"/>
    <path fill="#D9D9D9" d="M41.685 2c21.891 0 39.7 17.811 39.7 39.703 0 21.88-17.809 39.681-39.7 39.681C19.803 81.384 2 63.583 2 41.703 2 19.811 19.803 2 41.685 2m0-2C18.662 0 0 18.663 0 41.703c0 23.02 18.662 41.681 41.685 41.681 23.036 0 41.7-18.661 41.7-41.681C83.385 18.663 64.721 0 41.685 0z"/>
    <path d="M77.707 41.703c0 19.876-16.126 36.003-36.021 36.003-19.879 0-36.006-16.127-36.006-36.003 0-19.898 16.127-36.025 36.006-36.025 19.894 0 36.021 16.127 36.021 36.025z" opacity=".06"/>
    <path fill="#DEDEDE" d="M41.685 69.832c-15.508 0-28.124-12.618-28.124-28.128 0-15.506 12.616-28.121 28.124-28.121 15.51 0 28.127 12.615 28.127 28.121.001 15.509-12.617 28.128-28.127 28.128z"/>
    <path fill="#E5E5E5" d="M41.685 16.582c13.855 0 25.127 11.269 25.127 25.121 0 13.856-11.272 25.128-25.127 25.128-13.854 0-25.124-11.272-25.124-25.128 0-13.852 11.271-25.121 25.124-25.121m0-6c-17.195 0-31.124 13.927-31.124 31.121 0 17.191 13.929 31.128 31.124 31.128 17.198 0 31.127-13.937 31.127-31.128.001-17.194-13.929-31.121-31.127-31.121z"/>
</svg>
