<svg xmlns="http://www.w3.org/2000/svg" width="88.934" height="121.795" viewBox="0 0 88.934 121.795">
    <path fill="#E5E5E5" d="M74.753 56.076v-.668c.015.413 0 .668 0 .668zM49.715 5.466c.401-.319.805-.618 1.211-.899l2.322 109.995L0 121.795C12.067 4.974 42.959 10.762 49.715 5.466z"/>
    <path fill="#EBEBEB" d="M76.741.142c10.833.403 12.069 11.439 12.193 15.19v1.227s-2.901 40.716 0 93.094c-9.926 2.289-38.539 5.298-38.539 5.298s-.051-20.914-.68-50.596c-.811-37.501 1.211-59.788 1.211-59.788C57.343.091 64.492-.307 76.741.142z"/>
</svg>
