<svg xmlns="http://www.w3.org/2000/svg" width="806" height="598.9" viewBox="0 0 806 598.9">
    <path fill="#ED1C24" d="m805.75,508.717l0,-2.4c-0.1,-12.399 -0.8,-67.1 -4.6,-87.6c-2.9,-15.5 -17.7,-102.5 -32,-144.6c-9.4,-27.701 -13.101,-53 -17,-64.9c-12,-35.7 -33,-65.7 -33,-65.7s-9.5,-13.1 -10.101,-16.3c-0.6,-3.3 -4.7,-8.6 -4.7,-8.6s-2.3,-0.8 -7.399,-1.7l0,-6.9c0,-0.8 -0.4,-1.5 -1.101,-1.9c-4.5,-2.9 -23.399,-13.6 -51.5,-13.6c-26.899,0 -41.1,5.9 -45.1,8c-0.8,0.4 -1.2,1.2 -1.2,2l0,11c-7.399,1.2 -9.6,2.4 -9.6,2.4s-2.4,2.9 -5.9,4.8c-3.5,1.8 -11.7,1.7 -11.7,1.7l-33.399,0s-0.601,-0.1 -0.9,0.3c-0.399,0.4 -0.6,2 -0.6,2l-1.601,0c-0.899,-2.3 -3.1,-3.9 -5.699,-4.1l-251.7,0c-2.5,0.2 -4.8,1.8 -5.7,4.1l-1.6,0s-0.301,-1.7 -0.601,-2c-0.399,-0.4 -0.899,-0.3 -0.899,-0.3l-33.4,0s-8.2,0.2 -11.7,-1.7c-3.5,-1.8 -5.899,-4.8 -5.899,-4.8s-2.101,-1.2 -9.601,-2.4l0,-11c0,-0.9 -0.5,-1.6 -1.2,-2c-4,-2 -18.2,-8 -45.1,-8c-28.2,0 -47,10.7 -51.5,13.6c-0.7,0.4 -1.1,1.1 -1.1,1.9l0,6.9c-5.1,1 -7.4,1.7 -7.4,1.7s-4.1,5.3 -4.7,8.6c-0.6,3.3 -10.1,16.3 -10.1,16.3s-21,30 -33,65.7c-4,11.9 -7.7,37.199 -17,64.9c-14.3,42.1 -29.1,129.1 -32,144.6c-3.8,20.5 -4.5,75.2 -4.6,87.6l0,2.602c0.2,2.5 3.6,35.699 20.8,59.5c0.5,0.699 1.1,1.399 1.6,2.1c0,0 0,0.1 0.1,0.1c0.5,0.7 1.1,1.4 1.6,2c0.6,0.7 1.1,1.3 1.7,1.9l0.2,0.2c0.6,0.6 1.1,1.2 1.7,1.8l0.1,0.1c0.6,0.601 1.2,1.2 1.8,1.7l0.3,0.3c0.6,0.5 1.2,1 1.8,1.601l0.1,0.1c0.6,0.5 1.3,1 1.9,1.5c0.2,0.1 0.3,0.2 0.5,0.3c0.7,0.5 1.3,1 2,1.4c31.7,21.5 56.7,14 56.7,14l0.1,0c0.1,0 0.1,0 0.2,-0.101l0.1,0c0.1,0 0.3,-0.1 0.4,-0.1c0.2,0 0.3,-0.1 0.5,-0.2l0.1,0c0.2,-0.1 0.4,-0.1 0.7,-0.2c0.1,0 0.1,0 0.2,-0.1c0.3,-0.1 0.5,-0.2 0.8,-0.3l0.1,0l0.9,-0.3c0.1,0 0.1,0 0.2,-0.101c0.3,-0.1 0.7,-0.199 1.1,-0.399c0.1,0 0.2,-0.101 0.3,-0.101c0.4,-0.1 0.8,-0.3 1.2,-0.5c0.1,0 0.1,-0.1 0.2,-0.1c0.4,-0.2 0.8,-0.3 1.2,-0.5c0.1,0 0.2,-0.1 0.2,-0.1c0.4,-0.2 0.9,-0.4 1.4,-0.601c0.1,0 0.2,-0.1 0.3,-0.1c0.5,-0.2 1,-0.4 1.5,-0.7c0.1,0 0.2,-0.1 0.3,-0.1c0.5,-0.2 1,-0.4 1.5,-0.7c0.1,0 0.2,-0.101 0.2,-0.101c0.5,-0.3 1.1,-0.5 1.7,-0.8c0.1,-0.1 0.3,-0.1 0.4,-0.2c0.6,-0.3 1.1,-0.6 1.7,-0.899c0.1,-0.101 0.2,-0.101 0.3,-0.2c0.6,-0.3 1.1,-0.6 1.7,-0.9c0.1,0 0.1,-0.1 0.2,-0.1c0.6,-0.3 1.2,-0.7 1.9,-1.1c0.1,-0.101 0.3,-0.2 0.4,-0.2c0.6,-0.4 1.3,-0.7 1.9,-1.101c0.1,-0.1 0.3,-0.199 0.4,-0.199c0.7,-0.4 1.3,-0.801 2,-1.2c0,0 0.1,0 0.1,-0.101c10,-6.399 21.4,-15.899 31.5,-29.6c0.5,-0.7 1,-1.4 1.5,-2.2c0.1,-0.2 0.3,-0.399 0.4,-0.6c0.5,-0.7 1,-1.4 1.4,-2.2c0,-0.1 0.1,-0.1 0.1,-0.2c0.5,-0.8 1.1,-1.7 1.6,-2.5c0.1,-0.2 0.2,-0.3 0.3,-0.5c0.5,-0.8 1,-1.7 1.5,-2.5l0.1,-0.1c0.6,-1 1.1,-1.9 1.7,-2.9c0.1,-0.1 0.1,-0.2 0.2,-0.3c0.5,-1 1.1,-2 1.7,-3l1.8,-3.3l0,-0.101c21.9,-41.6 44.3,-108.8 44.3,-108.8s2.2,-3 5.7,-5.3s6.3,-2.6 6.3,-2.6l1.9,0c13.8,13.5 32.699,21.8 53.5,21.8c20.8,0 39.6,-8.3 53.399,-21.7l36,0c0,2.8 1.8,2.2 4.601,2.2l67.899,0c2.8,0 5.5,0.6 5.5,-2.2l35.9,0c13.8,13.4 32.6,21.7 53.399,21.7c20.801,0 39.7,-8.3 53.5,-21.8l1.9,0s2.8,0.3 6.3,2.6s5.7,5.3 5.7,5.3s22.5,67.2 44.3,108.8l0,0.101l1.8,3.3c0.601,1 1.101,2 1.7,3c0.101,0.1 0.101,0.2 0.2,0.3c0.6,1 1.1,2 1.7,2.9l0.1,0.1c0.5,0.9 1,1.7 1.5,2.5c0.101,0.2 0.2,0.3 0.3,0.5c0.5,0.9 1.101,1.7 1.601,2.5c0,0.101 0.1,0.101 0.1,0.2c0.5,0.7 1,1.5 1.4,2.2c0.1,0.2 0.3,0.399 0.399,0.6c0.5,0.7 1,1.5 1.5,2.2c10,13.7 21.5,23.2 31.5,29.6c0,0 0.101,0 0.101,0.101c0.7,0.399 1.3,0.8 2,1.2c0.1,0.1 0.3,0.199 0.399,0.199c0.601,0.4 1.301,0.801 1.9,1.101c0.1,0.1 0.3,0.2 0.4,0.2c0.6,0.399 1.3,0.699 1.899,1.1c0.101,0 0.101,0.1 0.2,0.1c0.6,0.301 1.2,0.601 1.7,0.9c0.1,0.1 0.2,0.1 0.3,0.2c0.6,0.3 1.2,0.6 1.7,0.899c0.1,0.101 0.3,0.101 0.399,0.2c0.601,0.3 1.101,0.5 1.7,0.8c0.101,0 0.2,0.101 0.2,0.101c0.5,0.2 1,0.5 1.5,0.7c0.1,0 0.2,0.1 0.3,0.1c0.5,0.2 1,0.4 1.5,0.7c0.101,0 0.2,0.1 0.3,0.1c0.5,0.2 0.9,0.4 1.4,0.601c0.1,0 0.2,0.1 0.2,0.1c0.4,0.2 0.8,0.3 1.2,0.5c0.1,0 0.1,0.1 0.2,0.1c0.399,0.2 0.8,0.301 1.199,0.5c0.101,0 0.2,0.101 0.301,0.101c0.399,0.1 0.699,0.3 1.1,0.399c0.1,0 0.1,0 0.2,0.101l0.899,0.3l0.101,0c0.3,0.1 0.6,0.2 0.8,0.3c0.1,0 0.1,0 0.2,0.1c0.2,0.101 0.5,0.101 0.7,0.2l0.1,0c0.2,0.101 0.4,0.101 0.5,0.2c0.2,0 0.3,0.1 0.4,0.1l0.1,0c0.1,0 0.2,0.101 0.2,0.101l0.1,0s25,7.5 56.7,-14c0.7,-0.5 1.3,-0.9 2,-1.4c0.2,-0.1 0.3,-0.2 0.5,-0.3c0.6,-0.5 1.3,-1 1.9,-1.5l0.1,-0.1c0.6,-0.5 1.2,-1 1.8,-1.601l0.3,-0.3c0.601,-0.6 1.2,-1.1 1.8,-1.7l0.101,-0.1c0.6,-0.6 1.1,-1.2 1.7,-1.8l0.199,-0.2c0.601,-0.6 1.101,-1.3 1.7,-1.9c0.601,-0.7 1.101,-1.3 1.601,-2c0,0 0,-0.1 0.1,-0.1c0.5,-0.7 1.1,-1.4 1.6,-2.1c17.2,-23.801 20.601,-57 20.801,-59.5l0,-0.101s-0.398,-0.002 -0.398,-0.101zm-197.2,-419.3c0.5,0 1.101,-0.1 1.601,-0.1c4.399,-0.3 9.6,-0.6 15,-0.9c1.3,-0.1 2.699,-0.1 4,-0.2c2.699,-0.1 5.399,-0.2 8,-0.3c1.3,0 2.6,-0.1 3.8,-0.1s2.399,0 3.6,-0.1l1.7,0c17.9,0 50.6,3.2 50.6,3.2s0,-0.1 -0.1,-0.3l0,-0.3c0,-0.1 0,-0.2 -0.1,-0.3l0,-0.3c0,-0.2 -0.101,-0.5 -0.2,-0.8l0,-0.1c0,-0.1 -0.101,-0.3 -0.101,-0.4l0,-0.1c-2.3,-11 -11.399,-53.8 -19.399,-66.8c-9.101,-15 -23.7,-21.4 -34.601,-21.4c-10.899,0 -13.6,3.4 -22.699,10.1c-9.101,6.7 -15.301,20.6 -16.9,27.9c-1.2,5.5 -3.3,32.4 -4.3,45.2l0,2.8c0,0.6 -0.101,1.1 -0.101,1.6l0,0.5c-0.1,1 -0.1,1.6 -0.1,1.8l0,0.1s1.9,-0.1 5,-0.4c1.3,-0.1 3.2,-0.2 5.3,-0.3zm-401,0.7c0,-0.3 -0.1,-0.9 -0.1,-1.9l0,-0.5c0,-0.5 -0.1,-1 -0.1,-1.6l0,-2.7c-1,-12.8 -3.1,-39.7 -4.3,-45.2c-1.6,-7.3 -7.7,-21.3 -16.9,-27.9c-9.2,-6.6 -12.2,-10.2 -23,-10.2s-25.4,6.4 -34.6,21.4c-8,13 -17.1,55.8 -19.4,66.8l0,0.1c0,0.2 -0.1,0.3 -0.1,0.4l0,0.1c-0.1,0.3 -0.1,0.6 -0.2,0.8l0,0.3c0,0.1 0,0.2 -0.1,0.3l0,0.3c0,0.1 0,0.2 -0.1,0.3c0,0 32.7,-3.2 50.6,-3.2s48.3,2.4 48.3,2.4z" />
    <path fill="#FFF" d="m169.5,249.8c4.3,-0.699 9.8,-1.1 15.7,-1.1c10.1,0 17,2.1 22,6.199c5.2,4.201 8.399,10.601 8.399,19.801c0,9.6 -3.3,16.8 -8.399,21.4c-5.4,4.899 -13.9,7.399 -24.4,7.399c-5.8,0 -10.1,-0.3 -13.3,-0.7l0,-52.999zm9.9,45.7c1.4,0.2 3.4,0.2 5.4,0.2c12.8,0.1 20.4,-7 20.4,-20.6c0.1,-11.9 -6.8,-18.701 -19.1,-18.701c-3.1,0 -5.4,0.201 -6.7,0.601l0,38.5zm55.1,-42.3c0,3 -2.2,5.3 -5.6,5.3c-3.301,0 -5.4,-2.3 -5.4,-5.3s2.2,-5.4 5.5,-5.4s5.4,2.4 5.5,5.4zm-10.5,49.8l0,-39l9.9,0l0,39l-9.9,0zm20,-9c2.2,1.399 6.5,2.8 10,2.8c4.3,0 6.2,-1.8 6.2,-4.3c0,-2.601 -1.601,-4 -6.4,-5.7c-7.6,-2.6 -10.8,-6.8 -10.7,-11.4c0,-6.899 5.7,-12.199 14.7,-12.199c4.3,0 8.101,1.1 10.3,2.3l-1.899,7c-1.7,-1 -4.8,-2.2 -8.2,-2.2c-3.5,0 -5.4,1.7 -5.4,4.1c0,2.5 1.801,3.701 6.801,5.4c7,2.6 10.3,6.2 10.399,11.9c0,7 -5.5,12.2 -15.8,12.2c-4.7,0 -9,-1.101 -11.8,-2.7l1.799,-7.201zm62.5,7.8c-2.1,1 -6.2,2 -11,2c-12.2,0 -20.1,-7.8 -20.1,-19.8c0,-11.7 8,-20.8 21.699,-20.8c3.601,0 7.301,0.8 9.5,1.8l-1.8,7.399c-1.6,-0.699 -3.899,-1.5 -7.399,-1.5c-7.5,0 -12,5.5 -11.9,12.601c0,8 5.2,12.601 11.9,12.601c3.399,0 5.8,-0.701 7.8,-1.5l1.3,7.199zm43.6,-18.6c0,14.3 -10.1,20.7 -20,20.7c-11,0 -19.5,-7.601 -19.5,-20.101c0,-12.8 8.4,-20.6 20.2,-20.6c11.5,0.001 19.3,8.2 19.3,20.001zm-29.4,0.401c0,7.5 3.7,13.199 9.7,13.199c5.6,0 9.5,-5.5 9.5,-13.4c0,-6.1 -2.7,-13 -9.4,-13c-7,-0.001 -9.8,6.701 -9.8,13.201zm37.5,-7.901c0,-4.5 -0.101,-8.2 -0.3,-11.6l8.6,0l0.5,5.799l0.2,0c1.7,-3 5.899,-6.699 12.399,-6.699c6.801,0 13.801,4.4 13.801,16.699l0,23.101l-9.8,0l0,-22c0,-5.601 -2.1,-9.8 -7.399,-9.8c-3.9,0 -6.601,2.8 -7.7,5.8c-0.3,0.899 -0.4,2.101 -0.4,3.2l0,22.9l-9.901,0l0,-27.4zm45.7,0c0,-4.5 -0.101,-8.2 -0.301,-11.6l8.601,0l0.5,5.799l0.2,0c1.699,-3 5.899,-6.699 12.399,-6.699c6.8,0 13.8,4.4 13.8,16.699l0,23.101l-9.8,0l0,-22c0,-5.601 -2.1,-9.8 -7.399,-9.8c-3.9,0 -6.601,2.8 -7.7,5.8c-0.3,0.899 -0.4,2.101 -0.4,3.2l0,22.9l-9.9,0l0,-27.4zm52.7,10.6c0.2,7 5.801,10.1 12,10.1c4.601,0 7.801,-0.6 10.801,-1.799l1.399,6.8c-3.399,1.399 -8,2.399 -13.6,2.399c-12.601,0 -20.101,-7.8 -20.101,-19.699c0,-10.801 6.601,-21 19,-21c12.601,0 16.801,10.399 16.801,19c0,1.799 -0.2,3.299 -0.301,4.199l-25.999,0zm17.2,-6.901c0.101,-3.6 -1.5,-9.5 -8.1,-9.5c-6.101,0 -8.601,5.5 -9,9.5l17.1,0zm45.8,22.401c-2.1,1 -6.199,2 -11,2c-12.199,0 -20.1,-7.8 -20.1,-19.8c0,-11.7 8,-20.8 21.7,-20.8c3.6,0 7.3,0.8 9.5,1.8l-1.8,7.399c-1.601,-0.699 -3.9,-1.5 -7.4,-1.5c-7.5,0 -12,5.5 -11.9,12.601c0,8 5.2,12.601 11.9,12.601c3.4,0 5.8,-0.701 7.8,-1.5l1.3,7.199zm19.8,-48.8l0,11.101l9.399,0l0,7.399l-9.399,0l0,17.2c0,4.699 1.3,7.199 5,7.199c1.699,0 3,-0.199 3.8,-0.5l0.2,7.501c-1.4,0.6 -4,1 -7.101,1c-3.6,0 -6.6,-1.2 -8.5,-3.2c-2.1,-2.2 -3,-5.801 -3,-10.9l0,-18.3l-5.6,0l0,-7.399l5.6,0l0,-8.801l9.601,-2.3zm23.2,33.3c0.2,7 5.801,10.1 12,10.1c4.601,0 7.801,-0.6 10.801,-1.799l1.399,6.8c-3.399,1.399 -8,2.399 -13.6,2.399c-12.601,0 -20.101,-7.8 -20.101,-19.699c0,-10.801 6.601,-21 19,-21c12.601,0 16.801,10.399 16.801,19c0,1.799 -0.2,3.299 -0.301,4.199l-25.999,0zm17.2,-6.901c0.101,-3.6 -1.5,-9.5 -8.1,-9.5c-6.101,0 -8.601,5.5 -9,9.5l17.1,0zm53.1,-33.199l0,45.9c0,4 0.199,8.3 0.3,10.999l-8.8,0l-0.4,-6.2l-0.2,0c-2.3,4.301 -7,7.001 -12.7,7.001c-9.3,0 -16.6,-7.9 -16.6,-19.9c-0.1,-13 8.1,-20.8 17.4,-20.8c5.399,0 9.199,2.199 11,5.1l0.199,0l0,-22.1l9.801,0zm-9.9,34.1c0,-0.8 -0.1,-1.8 -0.2,-2.6c-0.899,-3.801 -4,-7 -8.5,-7c-6.3,0 -9.8,5.6 -9.8,12.9c0,7.1 3.5,12.299 9.8,12.299c4,0 7.5,-2.699 8.5,-7c0.2,-0.899 0.3,-1.799 0.3,-2.899l-0.1,-5.7z" />
</svg>
