<svg xmlns="http://www.w3.org/2000/svg" width="178.5" height="104" viewBox="0 0 178.5 104">
    <path fill="#1A1A1A" d="M124.505 20.654c1.399-2 1.2-2.9 1.2-2.9s.199-.9-1.2-2.9-15-13.6-15.7-14c-.699-.399-28.5-2.199-31.4 1.301s-2.6 15.6-2.6 15.6-.3 12.1 2.6 15.6 30.701 1.7 31.4 1.301c.7-.402 14.3-12.002 15.7-14.002z"/>
    <path opacity=".25" d="M124.505 20.654c1.399-2 1.2-2.9 1.2-2.9s.199-.9-1.2-2.9c-.899-1.3-6.899-6.6-11.2-10.3-2.1 3.9-3.4 8.4-3.4 13.2s1.201 9.3 3.4 13.2c4.3-3.7 10.3-9 11.2-10.3z"/>
    <path fill="#1A1A1A" d="M52.205 49.754c2 1.4 2.9 1.2 2.9 1.2s.9.2 2.9-1.2 13.6-15 14-15.7 2.2-28.5-1.3-31.399c-3.5-2.9-15.6-2.601-15.6-2.601s-12.1-.2-15.6 2.601c-3.5 2.8-1.7 30.699-1.3 31.399.4.7 12 14.3 14 15.7z"/>
    <path opacity=".25" d="M52.205 49.754c2 1.4 2.9 1.2 2.9 1.2s.9.2 2.9-1.2c1.3-.9 6.6-6.9 10.3-11.2-3.9-2.1-8.4-3.399-13.2-3.399-4.8 0-9.3 1.199-13.2 3.399 3.7 4.3 9 10.3 10.3 11.2z"/>
    <path fill="#1A1A1A" d="M175.904 2.254c-2.899-3.5-30.699-1.7-31.399-1.3-.7.399-14.3 12-15.7 14s-1.199 2.899-1.199 2.899-.201.9 1.199 2.9 15 13.6 15.7 14 28.5 2.2 31.399-1.3c2.9-3.5 2.601-15.601 2.601-15.601s.3-12.098-2.601-15.598z"/>
    <path opacity=".25" d="M140.105 4.654c-4.301 3.699-10.301 9-11.201 10.3-1.399 2-1.199 2.899-1.199 2.899s-.2.9 1.199 2.9c.9 1.3 6.9 6.6 11.201 10.3 2.1-3.899 3.399-8.399 3.399-13.2.001-4.799-1.299-9.299-3.399-13.199z"/>
    <path fill="#1A1A1A" d="M20.605 1.254c-2-1.4-2.9-1.2-2.9-1.2s-.9-.2-2.9 1.2-13.6 15-14 15.7c-.4.7-2.2 28.5 1.3 31.399 3.5 2.9 15.6 2.601 15.6 2.601s12.1.3 15.6-2.601c3.5-2.899 1.7-30.699 1.3-31.399s-12-14.3-14-15.7z"/>
    <path opacity=".25" d="M20.605 1.254c-2-1.4-2.9-1.2-2.9-1.2s-.9-.2-2.9 1.2c-1.3.9-6.6 6.9-10.3 11.2 3.9 2.1 8.4 3.399 13.2 3.399 4.8 0 9.3-1.199 13.2-3.399-3.7-4.3-9-10.3-10.3-11.2z"/>
    <path fill="#E6E6E6" d="M124.505 73.654c1.399-2 1.2-2.9 1.2-2.9s.199-.9-1.2-2.9-15-13.6-15.7-14c-.699-.399-28.5-2.199-31.4 1.301s-2.6 15.6-2.6 15.6-.3 12.1 2.6 15.6 30.701 1.7 31.4 1.301c.7-.402 14.3-12.002 15.7-14.002z"/>
    <path opacity=".25" fill="#FFF" d="M124.505 73.654c1.399-2 1.2-2.9 1.2-2.9s.199-.9-1.2-2.9c-.899-1.3-6.899-6.6-11.2-10.3-2.1 3.9-3.4 8.4-3.4 13.2s1.201 9.3 3.4 13.2c4.3-3.7 10.3-9 11.2-10.3z"/>
    <path fill="#E6E6E6" d="M52.205 102.754c2 1.4 2.9 1.2 2.9 1.2s.9.2 2.9-1.2 13.6-15 14-15.7 2.2-28.5-1.3-31.399c-3.5-2.9-15.6-2.601-15.6-2.601s-12.1-.2-15.6 2.601c-3.5 2.8-1.7 30.699-1.3 31.399.4.7 12 14.3 14 15.7z"/>
    <path opacity=".25" fill="#FFF" d="M52.205 102.754c2 1.4 2.9 1.2 2.9 1.2s.9.2 2.9-1.2c1.3-.9 6.6-6.9 10.3-11.2-3.9-2.1-8.4-3.399-13.2-3.399-4.8 0-9.3 1.199-13.2 3.399 3.7 4.3 9 10.3 10.3 11.2z"/>
    <path fill="#E6E6E6" d="M175.904 55.154c-2.899-3.5-30.699-1.7-31.399-1.301-.7.4-14.3 12-15.7 14s-1.199 2.9-1.199 2.9-.201.9 1.199 2.9 15 13.6 15.7 14c.7.399 28.5 2.199 31.399-1.301 2.9-3.5 2.601-15.6 2.601-15.6s.3-12.098-2.601-15.598z"/>
    <path opacity=".25" fill="#FFF" d="M140.105 57.654c-4.301 3.699-10.301 9-11.201 10.3-1.399 2-1.199 2.899-1.199 2.899s-.2.9 1.199 2.9c.9 1.3 6.9 6.6 11.201 10.3 2.1-3.899 3.399-8.399 3.399-13.2.001-4.799-1.299-9.299-3.399-13.199z"/>
    <path fill="#E6E6E6" d="M20.605 54.254c-2-1.4-2.9-1.2-2.9-1.2s-.9-.2-2.9 1.2-13.6 15-14 15.7c-.4.7-2.2 28.5 1.3 31.399 3.5 2.9 15.6 2.601 15.6 2.601s12.1.3 15.6-2.601c3.5-2.899 1.7-30.699 1.3-31.399s-12-14.3-14-15.7z"/>
    <path opacity=".25" fill="#FFF" d="M20.605 54.254c-2-1.4-2.9-1.2-2.9-1.2s-.9-.2-2.9 1.2c-1.3.9-6.6 6.9-10.3 11.2 3.9 2.1 8.4 3.399 13.2 3.399 4.8 0 9.3-1.199 13.2-3.399-3.7-4.3-9-10.3-10.3-11.2z"/>
</svg>
