<svg xmlns="http://www.w3.org/2000/svg" width="42.3" height="42.3" viewBox="0 0 42.3 42.3">
    <circle fill="#FAFAFA" cx="21.15" cy="21.15" r="20.2"/>
    <path fill="#FFF" d="M21.15 42.35c-11.699 0-21.199-9.5-21.199-21.199C-.049 9.45 9.451-.05 21.15-.05c11.7 0 21.2 9.5 21.2 21.201 0 11.699-9.5 21.199-21.2 21.199zm0-40.4c-10.6 0-19.199 8.602-19.199 19.201S10.55 40.35 21.15 40.35s19.2-8.6 19.2-19.199S31.75 1.95 21.15 1.95z"/>
    <g fill="#0D0D0D">
        <path d="M22.25 27.75v-12.8c0-.5.101-.799.301-1 .1-.199.4-.299.699-.199.601.199.9.699.9 1.699v6.9c.801.4 1.5.5 2.1.5.601 0 1.201-.199 1.601-.5 1-.699 1.5-1.9 1.5-3.699 0-1.9-.399-3.4-1.2-4.301-.8-1-2.1-1.9-4.1-2.6-1.301-.4-2.5-.801-3.6-1.1-1.101-.301-2-.5-2.9-.701V30.55l4.699 1.5v-4.3zm-5-1l-1.699.6-.9.4-1.6.301-1.5-.201c-.301-.199-.4-.4-.2-.6.101-.1.2-.1.3-.199.1-.102.301-.102.4-.201l1.1-.4 4.1-1.5v-2.7l-1.699.5-5.5 2-1 .4c-1.5.6-2.2 1.199-2.2 1.799.101.801 1 1.5 2.7 1.9.699.201 1.4.301 2.1.4.7.1 1.4.1 2.2.1 1 0 2.101-.1 3.3-.299v-2.3h.098z"/>
        <path d="M33.05 24.45c-.9-.299-1.7-.5-2.5-.6-.801-.1-1.7-.199-2.5-.1-.9 0-1.9.199-2.801.301-.799.199-1.699.398-2.6.799v2.801l3.9-1.4 1.6-.5 1.1-.301h1.4c.301.102.6.201.7.4 0 .201-.2.4-.8.6l-1.4.5-6.5 2.4v2.701l3.5-1.301 6.4-2.301.699-.398c1.5-.5 2.201-1.201 2.201-1.9.002-.6-.799-1.201-2.399-1.701z"/>
    </g>
</svg>
